<svg width="24" height="24" viewBox="-3 0 24 24" fill="none" xmlns="http://www.w3.org/2000/svg">
<g id="Group 1">
<path id="path0_fill" d="M4.98529 24C7.20134 24 8.99987 22.208 8.99987 20V16H4.98529C2.76924 16 0.970703 17.792 0.970703 20C0.970703 22.208 2.76924 24 4.98529 24Z" fill="#1E386B"/>
<path id="path1_fill" d="M0.970703 12C0.970703 9.79197 2.76924 7.99997 4.98529 7.99997H8.99987V16H4.98529C2.76924 16 0.970703 14.208 0.970703 12Z" fill="#1E386B"/>
<path id="path1_fill_1_" d="M0.970703 4C0.970703 1.792 2.76924 0 4.98529 0H8.99987V8H4.98529C2.76924 8 0.970703 6.208 0.970703 4Z" fill="#1E386B"/>
<path id="path2_fill" d="M9 0H13.0146C15.2306 0 17.0292 1.792 17.0292 4C17.0292 6.208 15.2306 8 13.0146 8H9V0Z" fill="#1E386B"/>
<path id="path3_fill" d="M17.0292 12C17.0292 14.208 15.2306 16 13.0146 16C10.7985 16 9 14.208 9 12C9 9.79197 10.7985 7.99997 13.0146 7.99997C15.2306 7.99997 17.0292 9.79197 17.0292 12Z" fill="#1E386B"/>
</g>
</svg>
