<svg width="24" height="24" viewBox="0 0 24 24" fill="none" xmlns="http://www.w3.org/2000/svg">
<g id="html-svgrepo-com 1">
<path id="Subtract" fill-rule="evenodd" clip-rule="evenodd" d="M2.74121 1.49997L4.42646 20.4007L11.9887 22.5L19.5712 20.3977L21.2587 1.49997H2.74121ZM11.9917 5.36323V5.36325H11.9917H6.1874L6.2429 5.98575L6.81215 12.3735H11.9917V12.3735H14.8462L14.5777 15.3803L12 16.0755V16.0755L11.997 16.0763L11.9917 16.0778V16.0779L11.9895 16.0785L9.40798 15.3817L9.24298 13.533H7.98823H6.91573L7.24048 17.172L11.9895 18.4905L12 18.4875L16.7444 17.172L16.7789 16.7805L17.3234 10.6778L17.3804 10.0553H16.7557H11.9999V10.0553H8.9324L8.7209 7.6815H11.9999V7.68148H17.5837H17.5912L17.6377 7.16098L17.7434 5.98573L17.7989 5.36323H11.9917Z" fill="#1E386B"/>
</g>
</svg>
