<svg width="24" height="24" viewBox="0 0 24 24" fill="none" xmlns="http://www.w3.org/2000/svg">
<g id="laravel-logo-svgrepo-com 1" clip-path="url(#clip0_1360_231)">
<g id="Group">
<path id="Vector" d="M15.0417 19.4999C15.2292 19.7708 15.3437 19.75 15.4895 19.6874C15.6353 19.6249 23.1354 17.0937 23.3645 17.0104C23.5937 16.9271 23.5208 16.8541 23.448 16.7395C23.375 16.6249 20.875 13.2291 20.7499 13.0312C20.625 12.8333 20.5624 12.8749 20.3645 12.9374L12.4141 15.0062C12.4141 15.0062 14.8542 19.229 15.0417 19.4999ZM24 16.042V12.0672C23.1055 12.3055 21.9741 12.6068 21.5275 12.7256C22.2013 13.6271 23.2547 15.0379 24 16.042ZM21.5198 7.83004C21.3973 7.85789 18.6842 8.3482 18.517 8.37042C18.3499 8.39273 18.4056 8.48742 18.4725 8.5821L20.86 11.858C20.86 11.858 23.7793 11.1338 23.9576 11.0948C23.972 11.0916 23.9862 11.0882 24 11.0848V10.651C23.4693 9.97814 22.0237 8.14617 21.8988 7.97498C21.7484 7.76882 21.6424 7.80229 21.5198 7.83004Z" fill="#1E386B"/>
<path id="Vector_2" d="M4.44879 2.68444C5.03632 2.65772 5.08994 2.79141 5.34804 3.17419L11.8327 14.0156L19.9865 12.0623C19.5348 11.4219 17.4839 8.51428 17.2856 8.23678C17.0628 7.92478 17.2912 7.77994 17.6534 7.71872C18.0154 7.65741 21.1353 7.13372 21.4026 7.09472C21.6701 7.05572 21.8819 6.96103 22.3163 7.48472C22.5387 7.75266 23.2924 8.69128 23.9998 9.57113V4.5C23.9998 3.26044 23.5596 2.2005 22.6795 1.32028C21.7993 0.440156 20.7393 0 19.4998 0H4.49979C3.26022 0 2.20029 0.440156 1.32007 1.32028C0.815223 1.82531 0.455879 2.38941 0.240723 3.01256C1.71054 2.89181 4.03769 2.70319 4.44888 2.68444H4.44879Z" fill="#1E386B"/>
<path id="Vector_3" d="M15.7771 20.9591C15.0895 21.1674 14.7812 21.2708 14.3333 20.6458C13.9979 20.1777 12.1839 16.9105 11.2945 15.2999C9.61125 15.7407 6.53072 16.5447 5.64234 16.7582C4.77534 16.9665 4.40503 16.4467 4.26262 16.1263C4.16278 15.9015 1.62084 10.4211 0 6.90469V19.5C0 20.7397 0.440156 21.7994 1.32028 22.6797C2.2005 23.5598 3.26044 24 4.5 24H19.5C20.7396 24 21.7995 23.5598 22.6797 22.6797C23.5598 21.7994 24 20.7397 24 19.5V18.0205C22.1588 18.694 16.2403 20.8188 15.7771 20.9591Z" fill="#1E386B"/>
<path id="Vector_4" d="M5.66341 15.4957C5.90716 15.4399 10.474 14.347 10.5715 14.3261C10.669 14.3052 10.7316 14.2495 10.6272 14.0686C10.5227 13.8876 4.53963 3.56013 4.53963 3.56013C4.48441 3.46535 4.50016 3.43376 4.35006 3.44163C4.21628 3.44876 0.830875 3.75082 0.047125 3.81626C0.0239897 3.98198 0.00956362 4.1488 0.00390625 4.31604C0.799563 5.94494 5.36631 15.3633 5.39191 15.4399C5.41975 15.5236 5.41975 15.5514 5.66341 15.4957Z" fill="#1E386B"/>
</g>
</g>
<defs>
<clipPath id="clip0_1360_231">
<rect width="24" height="24" fill="white"/>
</clipPath>
</defs>
</svg>
