<svg width="38" height="38" viewBox="0 0 38 38" fill="none" xmlns="http://www.w3.org/2000/svg">

<path d="M25.9695 16.0614V11.4742H21.3823" stroke="#4F4F4F" stroke-width="1.3" stroke-linecap="round" stroke-linejoin="round"/>
<path d="M20.6178 16.8259L25.9694 11.4742" stroke="#4F4F4F" stroke-width="1.3" stroke-linecap="round" stroke-linejoin="round"/>
<path d="M25.2049 23.6454V25.939C25.2058 26.1519 25.1621 26.3627 25.0768 26.5578C24.9915 26.7528 24.8664 26.928 24.7095 27.0719C24.5526 27.2159 24.3674 27.3254 24.1657 27.3937C23.964 27.4619 23.7503 27.4872 23.5382 27.468C21.1857 27.2124 18.9259 26.4085 16.9404 25.121C15.0932 23.9472 13.5271 22.381 12.3533 20.5338C11.0612 18.5393 10.2572 16.2686 10.0062 13.9054C9.9871 13.694 10.0122 13.4809 10.08 13.2798C10.1477 13.0786 10.2566 12.8937 10.3998 12.7369C10.5429 12.5802 10.7171 12.4549 10.9112 12.3691C11.1054 12.2834 11.3153 12.239 11.5276 12.2388H13.8212C14.1922 12.2351 14.5519 12.3665 14.8332 12.6084C15.1145 12.8504 15.2983 13.1863 15.3502 13.5537C15.447 14.2877 15.6265 15.0084 15.8854 15.702C15.9882 15.9757 16.0105 16.2731 15.9495 16.559C15.8886 16.8449 15.7469 17.1073 15.5413 17.3152L14.5704 18.2861C15.6587 20.2001 17.2435 21.7849 19.1575 22.8733L20.1285 21.9023C20.3363 21.6968 20.5988 21.5551 20.8847 21.4941C21.1706 21.4332 21.468 21.4554 21.7416 21.5583C22.4352 21.8171 23.1559 21.9966 23.8899 22.0934C24.2613 22.1458 24.6005 22.3329 24.8429 22.6191C25.0854 22.9052 25.2142 23.2705 25.2049 23.6454Z" stroke="#4F4F4F" stroke-width="1.3" stroke-linecap="round" stroke-linejoin="round"/>
</svg>
