<svg width="38" height="38" viewBox="0 0 38 38" fill="none" xmlns="http://www.w3.org/2000/svg">

<path d="M26.8335 11.4255C26.3374 10.9694 24.3286 9.50882 19.851 9.48881C19.851 9.48881 14.5731 9.1687 12.0001 11.5296C10.5676 12.9621 10.0634 15.0548 10.0114 17.6558C9.95938 20.2527 9.89135 25.1225 14.5851 26.443H14.5891L14.5851 28.4557C14.5851 28.4557 14.5571 29.272 15.0933 29.4361C15.7415 29.6362 16.1256 29.016 16.7459 28.3477C17.086 27.9796 17.5542 27.4434 17.9103 27.0312C21.1195 27.2993 23.5884 26.6831 23.8685 26.5911C24.5167 26.379 28.186 25.9108 28.7823 21.041C29.3985 16.0312 28.4822 12.858 26.8335 11.4255ZM27.3777 20.6889C26.8736 24.7544 23.9005 25.0105 23.3523 25.1866C23.1202 25.2626 20.9514 25.8028 18.2224 25.6227C18.2224 25.6227 16.1897 28.0756 15.5574 28.7118C15.4574 28.8119 15.3413 28.8519 15.2653 28.8319C15.1573 28.8039 15.1253 28.6758 15.1293 28.4878C15.1293 28.2157 15.1453 25.1385 15.1453 25.1385C15.1413 25.1385 15.1413 25.1385 15.1453 25.1385C11.1718 24.0381 11.4039 19.8926 11.4479 17.7238C11.4919 15.555 11.9001 13.7744 13.1125 12.5779C15.2853 10.6092 19.771 10.9013 19.771 10.9013C23.5564 10.9173 25.369 12.0578 25.7892 12.4379C27.1857 13.6383 27.8979 16.4994 27.3777 20.6889Z" fill="#4F4F4F"/>
<path d="M21.6955 17.7999C21.5634 17.7999 21.4514 17.6958 21.4434 17.5598C21.3994 16.6995 20.9952 16.2793 20.1709 16.2353C20.0309 16.2273 19.9228 16.1072 19.9308 15.9672C19.9388 15.8271 20.0589 15.7191 20.1989 15.7271C21.2873 15.7871 21.8956 16.4114 21.9516 17.5318C21.9596 17.6718 21.8515 17.7919 21.7115 17.7959C21.7035 17.7999 21.6995 17.7999 21.6955 17.7999Z" fill="#4F4F4F"/>
<path d="M22.9921 18.2321H22.9881C22.848 18.2281 22.736 18.1121 22.74 17.972C22.76 17.1077 22.5119 16.4074 21.9837 15.8312C21.4595 15.255 20.7353 14.9429 19.7789 14.8749C19.6389 14.8629 19.5348 14.7428 19.5468 14.6028C19.5588 14.4627 19.6789 14.3587 19.8189 14.3707C20.8993 14.4507 21.7516 14.8269 22.3599 15.4911C22.9721 16.1593 23.2682 16.9956 23.2482 17.984C23.2442 18.1241 23.1282 18.2321 22.9921 18.2321Z" fill="#4F4F4F"/>
<path d="M24.3207 18.7522C24.1806 18.7522 24.0686 18.6401 24.0686 18.5001C24.0566 16.9515 23.6124 15.7711 22.7081 14.8868C21.8157 14.0144 20.6833 13.5703 19.3508 13.5583C19.2108 13.5583 19.0988 13.4422 19.0988 13.3022C19.0988 13.1621 19.2148 13.0501 19.3508 13.0501C20.8194 13.0621 22.0678 13.5543 23.0562 14.5226C24.0486 15.491 24.5568 16.8275 24.5728 18.4921C24.5768 18.6361 24.4647 18.7522 24.3207 18.7522C24.3247 18.7522 24.3247 18.7522 24.3207 18.7522Z" fill="#4F4F4F"/>
<path d="M20.2311 20.933C20.2311 20.933 20.5872 20.965 20.7793 20.7289L21.1514 20.2607C21.3315 20.0286 21.7677 19.8806 22.1918 20.1167C22.4279 20.2487 22.8561 20.5128 23.1202 20.7089C23.4043 20.917 23.9805 21.3971 23.9845 21.4011C24.2606 21.6332 24.3246 21.9733 24.1365 22.3375C24.1365 22.3375 24.1365 22.3415 24.1365 22.3455C23.9445 22.6856 23.6844 23.0057 23.3602 23.3018C23.3562 23.3018 23.3562 23.3058 23.3522 23.3058C23.0841 23.5299 22.82 23.658 22.5639 23.686C22.5319 23.694 22.4959 23.694 22.4479 23.694C22.3359 23.694 22.2238 23.678 22.1118 23.642L22.1038 23.63C21.7036 23.5179 21.0394 23.2378 19.935 22.6256C19.2147 22.2294 18.6185 21.8253 18.1103 21.4211C17.8422 21.2091 17.5701 20.973 17.29 20.6929C17.282 20.6849 17.27 20.6729 17.262 20.6649C17.254 20.6569 17.242 20.6449 17.234 20.6369C17.226 20.6289 17.214 20.6169 17.206 20.6088C17.198 20.6008 17.186 20.5888 17.178 20.5808C16.9019 20.3007 16.6618 20.0286 16.4497 19.7605C16.0456 19.2564 15.6414 18.6561 15.2453 17.9359C14.633 16.8275 14.3529 16.1632 14.2409 15.7671L14.2289 15.7591C14.1929 15.647 14.1769 15.535 14.1769 15.423C14.1769 15.3749 14.1769 15.3389 14.1849 15.3069C14.2169 15.0468 14.3449 14.7867 14.565 14.5186C14.565 14.5146 14.569 14.5146 14.569 14.5106C14.8651 14.1825 15.1852 13.9264 15.5254 13.7343C15.5254 13.7343 15.5294 13.7343 15.5334 13.7343C15.8935 13.5463 16.2336 13.6103 16.4697 13.8864C16.4697 13.8864 16.9539 14.4666 17.162 14.7507C17.358 15.0188 17.6221 15.443 17.7542 15.679C17.9903 16.1032 17.8422 16.5394 17.6101 16.7194L17.142 17.0916C16.9059 17.2836 16.9379 17.6398 16.9379 17.6398C16.9379 17.6398 17.6301 20.2727 20.2311 20.933Z" fill="#4F4F4F"/>
</svg>
