<svg width="38" height="38" viewBox="0 0 38 38" fill="none" xmlns="http://www.w3.org/2000/svg">

<path d="M26.2147 12.3932C24.3768 10.5013 21.8363 9.47424 19.2417 9.47424C13.7282 9.47424 9.29575 13.9607 9.34981 19.4202C9.34981 21.1499 9.83629 22.8256 10.6471 24.3391L9.2417 29.4742L14.4849 28.1229C15.9444 28.9337 17.566 29.3121 19.1876 29.3121C24.6471 29.3121 29.0795 24.8256 29.0795 19.3661C29.0795 16.7175 28.0525 14.231 26.2147 12.3932ZM19.2417 27.6364C17.7822 27.6364 16.3228 27.258 15.0795 26.5013L14.7552 26.3391L11.6201 27.1499L12.4309 24.0688L12.2147 23.7445C9.83629 19.9067 10.9714 14.8256 14.8633 12.4472C18.7552 10.0688 23.7822 11.204 26.1606 15.0959C28.539 18.9878 27.4039 24.0148 23.512 26.3932C22.2687 27.204 20.7552 27.6364 19.2417 27.6364ZM23.9985 21.6364L23.4039 21.3661C23.4039 21.3661 22.539 20.9878 21.9985 20.7175C21.9444 20.7175 21.8904 20.6634 21.8363 20.6634C21.6741 20.6634 21.566 20.7175 21.4579 20.7715C21.4579 20.7715 21.4039 20.8256 20.6471 21.6905C20.5931 21.7986 20.4849 21.8526 20.3768 21.8526H20.3228C20.2687 21.8526 20.1606 21.7986 20.1066 21.7445L19.8363 21.6364C19.2417 21.3661 18.7012 21.0418 18.2687 20.6094C18.1606 20.5013 17.9985 20.3932 17.8904 20.2851C17.512 19.9067 17.1336 19.4742 16.8633 18.9878L16.8093 18.8796C16.7552 18.8256 16.7552 18.7715 16.7012 18.6634C16.7012 18.5553 16.7012 18.4472 16.7552 18.3932C16.7552 18.3932 16.9714 18.1229 17.1336 17.9607C17.2417 17.8526 17.2958 17.6905 17.4039 17.5824C17.512 17.4202 17.566 17.204 17.512 17.0418C17.4579 16.7715 16.8093 15.3121 16.6471 14.9878C16.539 14.8256 16.4309 14.7715 16.2687 14.7175H16.1066C15.9985 14.7175 15.8363 14.7175 15.6741 14.7175C15.566 14.7175 15.4579 14.7715 15.3498 14.7715L15.2958 14.8256C15.1876 14.8796 15.0795 14.9878 14.9714 15.0418C14.8633 15.1499 14.8093 15.258 14.7012 15.3661C14.3228 15.8526 14.1066 16.4472 14.1066 17.0418C14.1066 17.4742 14.2147 17.9067 14.3768 18.2851L14.4309 18.4472C14.9174 19.4742 15.566 20.3932 16.4309 21.204L16.6471 21.4202C16.8093 21.5824 16.9714 21.6905 17.0795 21.8526C18.2147 22.8256 19.512 23.5283 20.9714 23.9067C21.1336 23.9607 21.3498 23.9607 21.512 24.0148C21.6741 24.0148 21.8904 24.0148 22.0525 24.0148C22.3228 24.0148 22.6471 23.9067 22.8633 23.7986C23.0255 23.6905 23.1336 23.6905 23.2417 23.5824L23.3498 23.4742C23.4579 23.3661 23.566 23.3121 23.6741 23.204C23.7822 23.0959 23.8904 22.9878 23.9444 22.8796C24.0525 22.6634 24.1066 22.3932 24.1606 22.1229C24.1606 22.0148 24.1606 21.8526 24.1606 21.7445C24.1606 21.7445 24.1066 21.6905 23.9985 21.6364Z" fill="#4F4F4F"/>
</svg>
