<svg width="38" height="38" viewBox="0 0 38 38" fill="none" xmlns="http://www.w3.org/2000/svg">

<path d="M19.0237 27.661C19.4285 27.661 19.8332 27.6301 20.2305 27.5711L20.2354 27.5739L20.2426 27.5726C20.9567 27.9334 21.7486 28.1242 22.5558 28.1242C23.9254 28.1242 25.2163 27.5903 26.1852 26.6208C27.1543 25.6524 27.6886 24.3608 27.6886 22.9912C27.6886 22.1953 27.5023 21.4122 27.1503 20.7051L27.1515 20.6985L27.1496 20.695C27.2137 20.2809 27.2472 19.8593 27.2472 19.437C27.2472 18.3286 27.0299 17.2506 26.6002 16.2359C26.186 15.2566 25.5928 14.3765 24.8377 13.622C24.0836 12.8675 23.2032 12.2745 22.2247 11.8604L22.2247 11.8604C21.2103 11.4312 20.1323 11.2139 19.0237 11.2139C18.5782 11.2139 18.1316 11.2495 17.6928 11.3209L17.6855 11.317L17.6777 11.3186C16.9954 10.9956 16.2443 10.8242 15.4835 10.8242C14.1136 10.8242 12.8222 11.3591 11.8535 12.3281C10.8851 13.2968 10.35 14.588 10.35 15.958C10.35 16.7518 10.5355 17.5327 10.8855 18.2375L10.8838 18.2472L10.8867 18.2523C10.8299 18.6426 10.8001 19.0395 10.8001 19.437C10.8001 20.5458 11.0174 21.6235 11.4471 22.6384C11.8609 23.6183 12.4544 24.4977 13.2083 25.2518L13.2085 25.2521C13.9629 26.0059 14.8422 26.6 15.8226 27.0135C16.837 27.4434 17.9153 27.661 19.0237 27.661ZM11.5497 18.2175C11.5484 18.2256 11.5471 18.2337 11.5458 18.2418C11.5398 18.2795 11.534 18.3172 11.5286 18.355L11.0418 18.53L11.0417 18.5298L10.9971 18.4495L10.997 18.4493L11.5497 18.2175ZM18.5345 18.7973L18.5345 18.7973L18.538 18.798L20.3088 19.1911C20.309 19.1912 20.3091 19.1912 20.3092 19.1912C20.3093 19.1912 20.3093 19.1912 20.3093 19.1912C21.1718 19.3835 21.6304 19.7114 21.8806 20.0335C22.1328 20.3582 22.2325 20.7534 22.2325 21.1888C22.2325 21.8356 21.9915 22.3648 21.5196 22.7463C21.033 23.1396 20.2372 23.4253 19.054 23.4253C16.5034 23.4253 15.8097 22.2081 15.8097 21.7611C15.8097 21.6731 15.839 21.6293 15.8629 21.6062C15.8889 21.5812 15.9453 21.5462 16.0525 21.5462C16.1506 21.5462 16.1957 21.5688 16.2637 21.6317C16.3096 21.6742 16.361 21.7328 16.4316 21.8222C16.451 21.8468 16.4757 21.8788 16.5032 21.9143C16.5563 21.9831 16.6199 22.0654 16.6762 22.1343C16.8711 22.3728 17.1356 22.653 17.536 22.8654C17.938 23.0787 18.4305 23.1995 19.054 23.1995C20.3532 23.1995 21.4111 22.4524 21.4111 21.3412C21.4111 21.0493 21.3374 20.7006 21.0878 20.388C20.8398 20.0774 20.4723 19.8705 20.0123 19.7569C20.0119 19.7568 20.0116 19.7567 20.0112 19.7566L17.6205 19.1599C17.6204 19.1598 17.6203 19.1598 17.6201 19.1598C16.7526 18.9421 16.3357 18.6237 16.1235 18.3372C15.91 18.049 15.8354 17.7016 15.8354 17.2857C15.8354 16.5138 16.1805 16.0121 16.715 15.6739C17.2812 15.3156 18.0758 15.1387 18.898 15.1387C19.6204 15.1387 20.4146 15.3416 21.0109 15.6688C21.6438 16.0159 21.8568 16.3808 21.8568 16.624C21.8568 16.6585 21.8499 16.6764 21.8455 16.6853C21.8406 16.6951 21.8314 16.7087 21.8114 16.7246C21.7676 16.7594 21.675 16.8008 21.537 16.8008C21.4721 16.8008 21.4423 16.7892 21.3837 16.7401C21.3432 16.7061 21.2967 16.659 21.2289 16.5841C21.2128 16.5663 21.1942 16.5455 21.1739 16.5227C21.1202 16.4626 21.0545 16.389 20.99 16.3216C20.7959 16.1184 20.5371 15.8869 20.1592 15.7128C19.7826 15.5393 19.327 15.4406 18.7558 15.4406C18.176 15.4406 17.6437 15.5708 17.2387 15.8693C16.814 16.1824 16.5795 16.6467 16.5795 17.1719C16.5795 17.8259 17.007 18.2132 17.3941 18.4211C17.7617 18.6184 18.2099 18.7233 18.5345 18.7973Z" stroke="#4F4F4F" stroke-width="1.3"/>
</svg>
