<svg width="38" height="38" viewBox="0 0 38 38" fill="none" xmlns="http://www.w3.org/2000/svg">

<mask id="path-2-outside-1_1467_10100" maskUnits="userSpaceOnUse" x="6.06055" y="9.47424" width="22" height="20" fill="black">
<rect fill="white" x="6.06055" y="9.47424" width="22" height="20"/>
<path fill-rule="evenodd" clip-rule="evenodd" d="M22.1335 27.3428C23.2442 27.8288 23.6607 26.8106 23.6607 26.8106L26.5993 12.0479C26.5762 11.0529 25.2341 11.6545 25.2341 11.6545L8.7822 18.1103C8.7822 18.1103 7.99547 18.388 8.06488 18.8739C8.1343 19.3598 8.75906 19.5912 8.75906 19.5912L12.901 20.9796C12.901 20.9796 14.1505 25.0752 14.405 25.8619C14.6364 26.6255 14.8447 26.6487 14.8447 26.6487C15.076 26.7412 15.2843 26.5792 15.2843 26.5792L17.9684 24.1496L22.1335 27.3428ZM22.8508 14.6626C22.8508 14.6626 23.4292 14.3155 23.4061 14.6626C23.4061 14.6626 23.4987 14.7088 23.1979 15.0328C22.9202 15.3105 16.3718 21.1878 15.4925 21.9745C15.4231 22.0208 15.3768 22.0902 15.3768 22.1828L15.1223 24.3579C15.076 24.5892 14.7752 24.6124 14.7058 24.4041L13.6182 20.8407C13.572 20.7019 13.6182 20.5399 13.7571 20.4473L22.8508 14.6626Z"/>
</mask>
<path d="M23.6607 26.8106L24.8639 27.3029L24.9112 27.1871L24.9356 27.0644L23.6607 26.8106ZM22.1335 27.3428L21.3425 28.3745L21.4678 28.4706L21.6124 28.5338L22.1335 27.3428ZM26.5993 12.0479L27.8743 12.3017L27.9023 12.161L27.899 12.0176L26.5993 12.0479ZM25.2341 11.6545L25.709 12.8647L25.7377 12.8534L25.7659 12.8408L25.2341 11.6545ZM8.7822 18.1103L9.21486 19.3362L9.2361 19.3287L9.25707 19.3205L8.7822 18.1103ZM8.06488 18.8739L6.77795 19.0578V19.0578L8.06488 18.8739ZM8.75906 19.5912L8.30755 20.8103L8.32662 20.8174L8.3459 20.8238L8.75906 19.5912ZM12.901 20.9796L14.1444 20.6002L13.949 19.9598L13.3141 19.747L12.901 20.9796ZM14.405 25.8619L15.6491 25.4849L15.6456 25.4733L15.6419 25.4618L14.405 25.8619ZM14.8447 26.6487L15.3275 25.4416L15.1636 25.3761L14.9882 25.3566L14.8447 26.6487ZM15.2843 26.5792L16.0824 27.6054L16.1207 27.5756L16.1567 27.543L15.2843 26.5792ZM17.9684 24.1496L18.7594 23.1179L17.8994 22.4586L17.096 23.1858L17.9684 24.1496ZM23.4061 14.6626L22.109 14.5761L22.0515 15.4387L22.8247 15.8253L23.4061 14.6626ZM22.8508 14.6626L22.1819 13.5478L22.1673 13.5566L22.153 13.5657L22.8508 14.6626ZM23.1979 15.0328L24.1171 15.952L24.1341 15.935L24.1505 15.9174L23.1979 15.0328ZM15.4925 21.9745L16.2136 23.0562L16.2905 23.0049L16.3593 22.9433L15.4925 21.9745ZM15.3768 22.1828L16.668 22.3339L16.6768 22.2586V22.1828H15.3768ZM15.1223 24.3579L16.397 24.6128L16.4074 24.5612L16.4135 24.509L15.1223 24.3579ZM14.7058 24.4041L13.4624 24.7836L13.4672 24.7995L13.4725 24.8152L14.7058 24.4041ZM13.6182 20.8407L14.8616 20.4612L14.8568 20.4454L14.8515 20.4296L13.6182 20.8407ZM13.7571 20.4473L13.0593 19.3505L13.0476 19.3579L13.036 19.3657L13.7571 20.4473ZM23.6607 26.8106C22.4574 26.3184 22.4577 26.3178 22.458 26.3171C22.4581 26.3169 22.4583 26.3163 22.4585 26.3159C22.4588 26.315 22.4592 26.3142 22.4595 26.3134C22.4602 26.3118 22.4609 26.3102 22.4615 26.3086C22.4628 26.3056 22.464 26.3027 22.4652 26.3C22.4675 26.2946 22.4696 26.2899 22.4714 26.2859C22.4751 26.2778 22.4778 26.272 22.4798 26.2682C22.4835 26.2609 22.4848 26.2589 22.4843 26.2598C22.4799 26.2666 22.4827 26.2588 22.5029 26.2427C22.5303 26.2208 22.5868 26.1875 22.6618 26.177C22.7389 26.1663 22.7466 26.1921 22.6545 26.1518L21.6124 28.5338C22.0757 28.7365 22.552 28.8173 23.0195 28.7523C23.485 28.6877 23.8539 28.4909 24.1242 28.2753C24.3874 28.0653 24.5637 27.8334 24.6722 27.6644C24.728 27.5775 24.7706 27.4998 24.8014 27.4387C24.8169 27.408 24.8297 27.3808 24.84 27.358C24.8452 27.3466 24.8497 27.3363 24.8537 27.3271C24.8557 27.3225 24.8575 27.3181 24.8592 27.3141C24.8601 27.3121 24.8609 27.3101 24.8616 27.3083C24.862 27.3073 24.8624 27.3064 24.8628 27.3055C24.863 27.3051 24.8632 27.3044 24.8633 27.3042C24.8636 27.3035 24.8639 27.3029 23.6607 26.8106ZM25.3243 11.7941L22.3857 26.5568L24.9356 27.0644L27.8743 12.3017L25.3243 11.7941ZM25.2341 11.6545C25.7659 12.8408 25.7655 12.8409 25.7652 12.8411C25.7651 12.8411 25.7647 12.8413 25.7645 12.8414C25.7641 12.8416 25.7636 12.8418 25.7632 12.842C25.7624 12.8423 25.7617 12.8426 25.761 12.8429C25.7596 12.8435 25.7585 12.844 25.7577 12.8444C25.7561 12.8451 25.7556 12.8453 25.756 12.8451C25.7569 12.8448 25.7615 12.8428 25.7693 12.8397C25.7853 12.8334 25.8118 12.8235 25.8446 12.8128C25.9213 12.788 25.9812 12.7763 26.0078 12.7742C26.018 12.7734 25.9932 12.7768 25.9429 12.7684C25.8918 12.7598 25.7884 12.7346 25.67 12.6581C25.5421 12.5753 25.4356 12.457 25.3685 12.321C25.3059 12.1943 25.3002 12.099 25.2997 12.0781L27.899 12.0176C27.8856 11.4436 27.6528 10.8442 27.0825 10.4752C26.6026 10.1647 26.0912 10.1601 25.8083 10.1819C25.4965 10.2059 25.2194 10.2824 25.0437 10.3393C24.9504 10.3695 24.8719 10.3987 24.8144 10.4214C24.7855 10.4329 24.7612 10.4429 24.7424 10.4508C24.733 10.4548 24.7249 10.4583 24.7182 10.4612C24.7149 10.4627 24.7119 10.464 24.7092 10.4652C24.7079 10.4658 24.7067 10.4663 24.7055 10.4668C24.7049 10.4671 24.7044 10.4673 24.7039 10.4676C24.7036 10.4677 24.7032 10.4678 24.7031 10.4679C24.7027 10.4681 24.7023 10.4682 25.2341 11.6545ZM9.25707 19.3205L25.709 12.8647L24.7592 10.4443L8.30732 16.9002L9.25707 19.3205ZM9.35182 18.6901C9.39045 18.9605 9.29585 19.1727 9.2236 19.2792C9.16406 19.367 9.11548 19.394 9.13748 19.3787C9.15121 19.3692 9.17669 19.3548 9.20625 19.3411C9.21884 19.3353 9.22784 19.3316 9.2309 19.3304C9.23231 19.3298 9.23193 19.33 9.22945 19.3309C9.22819 19.3314 9.22638 19.3321 9.22398 19.3329C9.22277 19.3334 9.22141 19.3339 9.2199 19.3344C9.21914 19.3347 9.21834 19.335 9.2175 19.3353C9.21708 19.3354 9.21665 19.3356 9.21621 19.3357C9.21599 19.3358 9.21566 19.3359 9.21555 19.336C9.21521 19.3361 9.21486 19.3362 8.7822 18.1103C8.34953 16.8844 8.34918 16.8846 8.34883 16.8847C8.34871 16.8847 8.34835 16.8848 8.34811 16.8849C8.34762 16.8851 8.34712 16.8853 8.34661 16.8855C8.34558 16.8858 8.34449 16.8862 8.34336 16.8866C8.34109 16.8874 8.3386 16.8883 8.33591 16.8893C8.33053 16.8913 8.32431 16.8936 8.31731 16.8962C8.30334 16.9014 8.28613 16.908 8.26616 16.916C8.22646 16.9319 8.17455 16.9537 8.11446 16.9815C7.99867 17.035 7.83181 17.1204 7.65754 17.241C7.41748 17.4072 6.6287 18.013 6.77795 19.0578L9.35182 18.6901ZM8.75906 19.5912C9.21057 18.3722 9.21095 18.3723 9.21133 18.3724C9.21146 18.3725 9.21184 18.3726 9.21209 18.3727C9.21258 18.3729 9.21308 18.3731 9.21356 18.3733C9.21452 18.3736 9.21546 18.374 9.21636 18.3743C9.21816 18.375 9.21985 18.3756 9.22141 18.3762C9.22454 18.3774 9.22721 18.3785 9.22944 18.3793C9.2339 18.3811 9.23671 18.3823 9.2381 18.3829C9.24071 18.384 9.23855 18.3831 9.23323 18.3805C9.21998 18.374 9.20592 18.3658 9.19711 18.3594C9.13995 18.3183 9.31208 18.4119 9.35182 18.6901L6.77795 19.0578C6.88711 19.8219 7.40632 20.2741 7.67889 20.4701C7.83496 20.5824 7.98142 20.6624 8.08748 20.7144C8.14182 20.7411 8.18901 20.7621 8.22606 20.7778C8.24467 20.7857 8.26097 20.7923 8.27461 20.7977C8.28143 20.8004 8.28762 20.8028 8.29311 20.8049C8.29586 20.8059 8.29845 20.8069 8.30085 20.8078C8.30206 20.8082 8.30322 20.8087 8.30433 20.8091C8.30489 20.8093 8.30544 20.8095 8.30597 20.8097C8.30624 20.8098 8.30664 20.81 8.30677 20.81C8.30716 20.8102 8.30755 20.8103 8.75906 19.5912ZM13.3141 19.747L9.17222 18.3586L8.3459 20.8238L12.4878 22.2122L13.3141 19.747ZM15.6419 25.4618C15.5185 25.0805 15.1463 23.8724 14.8004 22.7445C14.6285 22.1839 14.4644 21.6478 14.3434 21.2518C14.2829 21.0538 14.2331 20.8909 14.1985 20.7775C14.1812 20.7208 14.1676 20.6764 14.1584 20.6463C14.1538 20.6312 14.1503 20.6197 14.148 20.6119C14.1468 20.6081 14.1459 20.6051 14.1453 20.6032C14.145 20.6022 14.1448 20.6014 14.1446 20.601C14.1445 20.6007 14.1445 20.6005 14.1444 20.6004C14.1444 20.6003 14.1444 20.6003 14.1444 20.6003C14.1444 20.6002 14.1444 20.6002 12.901 20.9796C11.6575 21.3589 11.6575 21.3589 11.6576 21.359C11.6576 21.359 11.6576 21.3591 11.6576 21.3591C11.6576 21.3592 11.6577 21.3594 11.6578 21.3597C11.6579 21.3602 11.6582 21.3609 11.6585 21.3619C11.6591 21.3639 11.66 21.3669 11.6612 21.3708C11.6635 21.3786 11.6671 21.3901 11.6717 21.4052C11.6809 21.4355 11.6945 21.4799 11.7118 21.5367C11.7465 21.6504 11.7964 21.8135 11.857 22.0118C11.9782 22.4083 12.1424 22.9453 12.3147 23.5069C12.6571 24.6235 13.037 25.8567 13.1681 26.2621L15.6419 25.4618ZM14.8447 26.6487C14.9882 25.3566 14.9904 25.3569 14.9926 25.3571C14.9934 25.3572 14.9956 25.3575 14.997 25.3576C15 25.358 15.0029 25.3583 15.0059 25.3587C15.0117 25.3594 15.0176 25.3602 15.0235 25.361C15.0352 25.3626 15.0469 25.3644 15.0585 25.3664C15.0818 25.3703 15.1048 25.3748 15.1276 25.3799C15.1733 25.3902 15.2174 25.4028 15.2599 25.4175C15.3453 25.447 15.4204 25.4836 15.485 25.523C15.6138 25.6015 15.6906 25.6844 15.7267 25.7295C15.7893 25.8078 15.74 25.7847 15.6491 25.4849L13.1609 26.2389C13.3014 26.7027 13.4719 27.0731 13.6965 27.3537C13.8136 27.5001 13.9569 27.6365 14.132 27.7432C14.2197 27.7967 14.3129 27.8411 14.4106 27.8749C14.4592 27.8917 14.5081 27.9055 14.5569 27.9165C14.5813 27.922 14.6055 27.9267 14.6296 27.9308C14.6416 27.9328 14.6536 27.9346 14.6655 27.9363C14.6715 27.9371 14.6774 27.9379 14.6834 27.9386C14.6863 27.939 14.6893 27.9394 14.6922 27.9397C14.6937 27.9399 14.6959 27.9401 14.6967 27.9402C14.6989 27.9405 14.7011 27.9407 14.8447 26.6487ZM15.2843 26.5792C14.4862 25.5531 14.4866 25.5528 14.487 25.5525C14.4871 25.5524 14.4875 25.552 14.4878 25.5518C14.4883 25.5514 14.4889 25.551 14.4894 25.5506C14.4905 25.5497 14.4916 25.5489 14.4927 25.5481C14.4948 25.5464 14.4969 25.5448 14.499 25.5432C14.5032 25.54 14.5074 25.5369 14.5115 25.5339C14.5197 25.5279 14.5278 25.5221 14.5357 25.5166C14.5515 25.5057 14.5677 25.4952 14.5844 25.4853C14.6161 25.4665 14.659 25.444 14.714 25.4244C14.8178 25.3873 15.0533 25.332 15.3275 25.4416L14.3618 27.8557C14.8674 28.0579 15.3227 27.9679 15.5885 27.8729C15.7244 27.8244 15.8339 27.7672 15.9118 27.7209C15.9517 27.6972 15.986 27.6749 16.014 27.6554C16.0282 27.6457 16.0409 27.6365 16.0523 27.6282C16.058 27.624 16.0633 27.62 16.0684 27.6162C16.0709 27.6143 16.0733 27.6124 16.0756 27.6106C16.0768 27.6097 16.078 27.6089 16.0791 27.608C16.0797 27.6075 16.0802 27.6071 16.0808 27.6067C16.081 27.6065 16.0815 27.6061 16.0816 27.606C16.082 27.6057 16.0824 27.6054 15.2843 26.5792ZM17.096 23.1858L14.4119 25.6154L16.1567 27.543L18.8408 25.1134L17.096 23.1858ZM22.9244 26.3112L18.7594 23.1179L17.1775 25.1813L21.3425 28.3745L22.9244 26.3112ZM24.7032 14.749C24.7167 14.5465 24.6986 14.2336 24.5167 13.9163C24.3185 13.5707 24.0125 13.3696 23.7243 13.2777C23.2659 13.1314 22.8586 13.2581 22.7566 13.2893C22.5859 13.3416 22.4405 13.4102 22.3563 13.4526C22.3098 13.476 22.2705 13.4972 22.2415 13.5135C22.2268 13.5217 22.2143 13.5288 22.2044 13.5346C22.1994 13.5375 22.195 13.5401 22.1912 13.5423C22.1894 13.5434 22.1877 13.5444 22.1861 13.5453C22.1853 13.5458 22.1846 13.5462 22.1839 13.5466C22.1835 13.5468 22.1832 13.547 22.1829 13.5472C22.1827 13.5473 22.1825 13.5475 22.1824 13.5475C22.1822 13.5477 22.1819 13.5478 22.8508 14.6626C23.5196 15.7773 23.5194 15.7774 23.5192 15.7776C23.5191 15.7776 23.5189 15.7777 23.5187 15.7778C23.5184 15.778 23.5181 15.7782 23.5179 15.7783C23.5173 15.7787 23.5168 15.779 23.5163 15.7793C23.5153 15.7799 23.5144 15.7804 23.5136 15.7809C23.512 15.7818 23.5109 15.7825 23.5101 15.7829C23.5086 15.7838 23.5086 15.7838 23.5097 15.7832C23.5122 15.7818 23.518 15.7786 23.5253 15.7749C23.5488 15.7631 23.5466 15.7666 23.5176 15.7755C23.5023 15.7802 23.4513 15.7952 23.3743 15.8031C23.3066 15.8101 23.1404 15.8205 22.9338 15.7546C22.824 15.7195 22.6973 15.661 22.5726 15.5655C22.4457 15.4682 22.3398 15.3468 22.2611 15.2095C22.1064 14.9397 22.1013 14.6919 22.109 14.5761L24.7032 14.749ZM24.1505 15.9174C24.324 15.7305 24.5643 15.445 24.6674 15.0741C24.7277 14.8569 24.7638 14.5244 24.6131 14.1683C24.5396 13.9946 24.4352 13.8498 24.3179 13.7352C24.2605 13.6792 24.2024 13.6326 24.1465 13.5939C24.1186 13.5746 24.0912 13.5573 24.0647 13.5417C24.0514 13.5339 24.0383 13.5265 24.0254 13.5196C24.019 13.5161 24.0126 13.5127 24.0063 13.5094C24.0031 13.5077 24 13.5061 23.9968 13.5045C23.9953 13.5037 23.9929 13.5025 23.9921 13.5021C23.9898 13.501 23.9875 13.4998 23.4061 14.6626C22.8247 15.8253 22.8224 15.8241 22.8201 15.823C22.8193 15.8226 22.8169 15.8214 22.8154 15.8206C22.8123 15.819 22.8091 15.8174 22.806 15.8157C22.7997 15.8125 22.7933 15.8091 22.7869 15.8056C22.7741 15.7987 22.7612 15.7914 22.7481 15.7837C22.7218 15.7683 22.6949 15.7513 22.6676 15.7324C22.613 15.6946 22.5565 15.6493 22.5011 15.5952C22.3877 15.4844 22.2881 15.3457 22.2186 15.1814C22.0759 14.8441 22.1163 14.5434 22.1622 14.3783C22.2058 14.2212 22.2688 14.1272 22.2792 14.1118C22.2943 14.0894 22.2904 14.0996 22.2452 14.1482L24.1505 15.9174ZM16.3593 22.9433C17.2092 22.1829 23.8055 16.2636 24.1171 15.952L22.2786 14.1135C22.2839 14.1083 22.2637 14.1279 22.1939 14.1922C22.1334 14.248 22.0507 14.3236 21.9478 14.4173C21.7424 14.6044 21.4618 14.8585 21.1289 15.1593C20.4633 15.7607 19.5921 16.5452 18.7015 17.3462C16.9201 18.9483 15.0641 20.6134 14.6257 21.0057L16.3593 22.9433ZM16.6768 22.1828C16.6768 22.3625 16.6294 22.5486 16.5315 22.7163C16.4371 22.8782 16.317 22.9873 16.2136 23.0562L14.7714 20.8929C14.4024 21.1389 14.0768 21.5859 14.0768 22.1828H16.6768ZM16.4135 24.509L16.668 22.3339L14.0856 22.0317L13.8311 24.2068L16.4135 24.509ZM13.4725 24.8152C13.7198 25.557 14.4233 25.9003 15.0479 25.8398C15.6776 25.7789 16.2557 25.3196 16.397 24.6128L13.8475 24.1029C13.9426 23.6275 14.3472 23.2955 14.7975 23.2519C15.2428 23.2088 15.7612 23.4595 15.9391 23.993L13.4725 24.8152ZM12.3749 21.2202L13.4624 24.7836L15.9492 24.0247L14.8616 20.4612L12.3749 21.2202ZM13.036 19.3657C12.3935 19.794 12.1594 20.5751 12.385 21.2518L14.8515 20.4296C14.9846 20.8287 14.843 21.2858 14.4782 21.529L13.036 19.3657ZM22.153 13.5657L13.0593 19.3505L14.4548 21.5442L23.5485 15.7594L22.153 13.5657Z" fill="#4F4F4F" mask="url(#path-2-outside-1_1467_10100)"/>
</svg>
