<svg width="30" height="30" viewBox="0 0 30 30" fill="none" xmlns="http://www.w3.org/2000/svg">
<g id="support-svgrepo-com 1" clip-path="url(#clip0_1467_11853)">
<g id="Group">
<path id="Vector" d="M27.2655 9.42751C25.8112 3.92062 20.7721 0 15.0003 0C9.26415 0 4.23103 3.91915 2.75064 9.42443C1.30349 9.69287 0.203857 10.9649 0.203857 12.4888V16.0005C0.203857 17.3673 1.08852 18.5314 2.31521 18.9504V20.4192C2.31521 24.8287 5.90306 28.4162 10.3131 28.4162H11.2972C11.6903 29.3458 12.6114 29.9999 13.6825 29.9999H16.3163C17.7436 29.9999 18.9049 28.8387 18.9049 27.4115C18.9049 25.984 17.7436 24.8227 16.3163 24.8227H13.6825C12.6117 24.8227 11.6907 25.4764 11.2975 26.4059H10.3131C7.01154 26.4059 4.32551 23.7202 4.32551 20.4192V18.1115C4.32551 17.5564 3.87547 17.1063 3.32036 17.1063C2.71044 17.1063 2.21416 16.6102 2.21416 16.0004V12.4888C2.21416 11.8789 2.71044 11.3826 3.31567 11.3826L3.55275 11.3837C3.55436 11.3837 3.55597 11.3837 3.55758 11.3837C4.03469 11.3837 4.44653 11.0479 4.54222 10.5801C5.5585 5.61437 9.95677 2.0103 15.0003 2.0103C20.0765 2.0103 24.4789 5.61182 25.4684 10.5739C25.5621 11.0439 25.9747 11.3825 26.4541 11.3825H26.6797C27.2896 11.3825 27.7859 11.8787 27.7859 12.4887V16.0004C27.7859 16.6102 27.2896 17.1063 26.6797 17.1063C26.1246 17.1063 25.6745 17.5564 25.6745 18.1115C25.6745 18.6666 26.1246 19.1166 26.6797 19.1166C28.3981 19.1166 29.7962 17.7187 29.7962 16.0004V12.4888C29.796 10.9705 28.7047 9.70239 27.2655 9.42751ZM13.6827 26.833H16.3164C16.6353 26.833 16.8947 27.0924 16.8947 27.4115C16.8947 27.7302 16.6353 27.9896 16.3164 27.9896H13.6827C13.364 27.9896 13.1046 27.7302 13.1046 27.4115C13.1045 27.0924 13.3638 26.833 13.6827 26.833Z" fill="#1E386B"/>
<path id="Vector_2" d="M14.9997 4.83022C9.80869 4.83022 5.58545 9.05305 5.58545 14.2435C5.58545 19.4348 9.80869 23.6583 14.9997 23.6583C20.1907 23.6583 24.4138 19.4348 24.4138 14.2435C24.4138 9.05305 20.1907 4.83022 14.9997 4.83022ZM14.9997 21.648C10.9172 21.648 7.59575 18.3263 7.59575 14.2435C7.59575 10.1615 10.9172 6.84052 14.9997 6.84052C19.0822 6.84052 22.4035 10.1615 22.4035 14.2435C22.4035 18.3264 19.0822 21.648 14.9997 21.648Z" fill="#1E386B"/>
</g>
</g>
<defs>
<clipPath id="clip0_1467_11853">
<rect width="30" height="30" fill="white"/>
</clipPath>
</defs>
</svg>
