<svg width="200" height="200" viewBox="0 0 200 200" fill="none" xmlns="http://www.w3.org/2000/svg">
<rect width="200" height="200" rx="100" fill="black"/>
<path fill-rule="evenodd" clip-rule="evenodd" d="M84.5399 75.617C84.2302 75.5044 83.9426 75.7947 84.015 76.1161C85.0505 80.7146 83.7941 84.5711 82.5674 88.3366C81.6912 91.0261 80.8301 93.6693 80.8301 96.5032C80.8301 106.149 89.9963 112.706 100.757 112.706C111.059 112.706 118.768 103.338 119.151 92.8148C119.493 83.419 115.028 76.3291 111.627 72.4493C111.369 72.156 110.892 72.344 110.876 72.7337C110.737 76.0526 109.958 77.8596 109.133 78.9742C109.006 79.1467 108.742 79.0759 108.694 78.8667C106.215 68.0217 95.0524 62.8574 89.1613 62.5815C88.4815 62.5497 88.1664 63.3259 88.5505 63.8878C92.0285 68.9765 92.6343 76.5389 90.8815 81.4445C90.7982 81.6777 90.4609 81.6575 90.3751 81.4252C89.4473 78.9139 87.0558 76.532 84.5399 75.617ZM99.2817 93.6672C99.3166 93.8928 99.5988 93.9932 99.7381 93.8123C101.415 91.6353 101.333 88.3274 99.4366 84.9869C99.3923 84.9088 99.48 84.8208 99.5562 84.8683C103.18 87.1245 107.367 91.2915 107.361 98.6018C107.356 104.737 103.187 106.817 99.34 106.813C96.4549 106.811 91.8896 104.596 91.8896 99.4347C91.8896 96.8541 92.9956 95.5639 94.1015 94.2736C95.1883 93.0056 96.2751 91.7377 96.3124 89.2454C96.3133 89.1837 96.376 89.1393 96.4313 89.1667C97.6039 89.7495 98.9784 91.7077 99.2817 93.6672Z" fill="white"/>
<path d="M31.1759 135.611C28.1107 135.611 26.0919 134.166 25.9345 131.768L25.9252 131.629H28.2126L28.2311 131.74C28.407 132.888 29.5831 133.601 31.2593 133.601C32.9447 133.601 34.0004 132.851 34.0004 131.703V131.694C34.0004 130.693 33.3058 130.156 31.5834 129.795L30.148 129.499C27.518 128.952 26.2216 127.73 26.2216 125.739V125.73C26.2308 123.378 28.2959 121.785 31.1759 121.785C34.093 121.785 36.0006 123.322 36.1396 125.609L36.1488 125.767H33.8615L33.8429 125.656C33.6855 124.489 32.6576 123.794 31.1574 123.794C29.5924 123.804 28.62 124.535 28.62 125.6V125.609C28.62 126.554 29.3516 127.11 30.9629 127.443L32.4076 127.739C35.1857 128.314 36.3988 129.443 36.3988 131.527V131.536C36.3988 134.027 34.4356 135.611 31.1759 135.611ZM44.0017 135.611C40.1586 135.611 37.7324 132.962 37.7324 128.693V128.684C37.7324 124.415 40.1679 121.785 44.0017 121.785C47.0762 121.785 49.3358 123.702 49.6877 126.424L49.6969 126.517H47.354L47.3077 126.341C46.9188 124.813 45.7427 123.859 44.0017 123.859C41.6681 123.859 40.1771 125.721 40.1771 128.684V128.693C40.1771 131.666 41.6773 133.536 44.0017 133.536C45.7057 133.536 46.9003 132.62 47.3355 130.971L47.3633 130.879H49.7062L49.6877 130.971C49.345 133.712 47.0762 135.611 44.0017 135.611ZM51.5213 135.379V122.016H53.9105V127.573H60.4113V122.016H62.7913V135.379H60.4113V129.582H53.9105V135.379H51.5213ZM69.2088 120.664C68.5513 120.664 68.0327 120.155 68.0327 119.516C68.0327 118.886 68.5513 118.377 69.2088 118.377C69.8663 118.377 70.3756 118.886 70.3756 119.516C70.3756 120.155 69.8663 120.664 69.2088 120.664ZM72.876 120.664C72.2277 120.664 71.7092 120.155 71.7092 119.516C71.7092 118.886 72.2277 118.377 72.876 118.377C73.5427 118.377 74.0428 118.886 74.0428 119.516C74.0428 120.155 73.5427 120.664 72.876 120.664ZM71.0424 135.611C67.1345 135.611 64.699 132.953 64.699 128.702V128.684C64.699 124.443 67.153 121.785 71.0424 121.785C74.9411 121.785 77.3766 124.443 77.3766 128.684V128.702C77.3766 132.953 74.9503 135.611 71.0424 135.611ZM71.0424 133.536C73.4594 133.536 74.9503 131.647 74.9503 128.702V128.684C74.9503 125.721 73.4316 123.859 71.0424 123.859C68.6625 123.859 67.1345 125.711 67.1345 128.684V128.702C67.1345 131.675 68.6532 133.536 71.0424 133.536ZM79.2842 135.379V122.016H81.4327L87.9428 131.379H87.9984V122.016H90.3691V135.379H88.2392L81.7105 125.98H81.6642V135.379H79.2842ZM92.7305 135.379V122.016H101.38V124.026H95.1197V127.628H101.037V129.564H95.1197V133.37H101.38V135.379H92.7305ZM108.149 135.611C105.084 135.611 103.065 134.166 102.908 131.768L102.899 131.629H105.186L105.204 131.74C105.38 132.888 106.556 133.601 108.233 133.601C109.918 133.601 110.974 132.851 110.974 131.703V131.694C110.974 130.693 110.279 130.156 108.557 129.795L107.121 129.499C104.491 128.952 103.195 127.73 103.195 125.739V125.73C103.204 123.378 105.269 121.785 108.149 121.785C111.066 121.785 112.974 123.322 113.113 125.609L113.122 125.767H110.835L110.816 125.656C110.659 124.489 109.631 123.794 108.131 123.794C106.566 123.804 105.593 124.535 105.593 125.6V125.609C105.593 126.554 106.325 127.11 107.936 127.443L109.381 127.739C112.159 128.314 113.372 129.443 113.372 131.527V131.536C113.372 134.027 111.409 135.611 108.149 135.611ZM118.956 135.379V122.016H127.476V124.026H121.345V127.98H126.948V129.925H121.345V135.379H118.956ZM129.217 135.379V122.016H137.866V124.026H131.606V127.628H137.524V129.564H131.606V133.37H137.866V135.379H129.217ZM145.441 135.611C142.052 135.611 139.941 133.62 139.941 130.666V122.016H142.33V130.471C142.33 132.323 143.46 133.536 145.441 133.536C147.423 133.536 148.544 132.323 148.544 130.471V122.016H150.924V130.666C150.924 133.62 148.84 135.611 145.441 135.611ZM153.294 135.379V122.016H161.944V124.026H155.683V127.628H161.601V129.564H155.683V133.37H161.944V135.379H153.294ZM164.018 135.379V122.016H169.352C172.204 122.016 173.945 123.6 173.945 126.184V126.202C173.945 127.999 172.982 129.453 171.426 130.017L174.343 135.379H171.621L168.991 130.379H166.407V135.379H164.018ZM166.407 128.489H169.102C170.611 128.489 171.5 127.656 171.5 126.221V126.202C171.5 124.804 170.556 123.952 169.056 123.952H166.407V128.489Z" fill="white"/>
</svg>
