<svg width="330" height="302" viewBox="0 0 330 302" fill="none" xmlns="http://www.w3.org/2000/svg">
<path fill-rule="evenodd" clip-rule="evenodd" d="M141.219 16.1247C176.762 11.6654 214.473 10.595 243.413 31.7053C276.486 55.8298 303.533 92.9718 302.678 133.899C301.832 174.348 268.964 204.474 239.228 231.908C211.095 257.865 179.433 285.079 141.219 282.863C104.247 280.72 79.3208 248.147 53.9514 221.167C29.7393 195.418 -0.515798 169.205 1.1486 133.899C2.77922 99.3104 35.3055 76.7741 61.809 54.4893C85.1998 34.8217 110.896 19.9289 141.219 16.1247Z" fill="#F5F5F5"/>
<g opacity="0.73">
<path d="M67.0633 111.933C66.704 111.933 66.3373 111.881 65.978 111.786L59.818 110.099C57.6473 109.505 56.3713 107.261 56.9653 105.091L59.026 97.5668C55.2567 95.6234 51.9273 93.0421 49.104 89.8741L42.328 93.7388C41.382 94.2814 40.282 94.4134 39.2333 94.1274C38.1847 93.8414 37.3047 93.1594 36.7693 92.2134L33.6087 86.6621C32.494 84.7114 33.176 82.2181 35.1267 81.1034L41.9027 77.2388C40.612 73.1981 40.084 69.0181 40.3333 64.7868L32.8093 62.7261C30.6387 62.1321 29.3627 59.8881 29.9567 57.7174L31.6433 51.5574C32.2373 49.3868 34.4813 48.1108 36.652 48.7048L44.176 50.7654C46.1193 46.9961 48.7007 43.6668 51.8687 40.8434L48.004 34.0674C47.4613 33.1214 47.3293 32.0214 47.6153 30.9728C47.9013 29.9241 48.5833 29.0441 49.5293 28.5088L55.0733 25.3481C57.024 24.2334 59.5173 24.9154 60.632 26.8661L64.4967 33.6421C68.5373 32.3514 72.7173 31.8234 76.9487 32.0728L79.0093 24.5488C79.6033 22.3781 81.8473 21.1021 84.018 21.6961L90.178 23.3828C92.3487 23.9768 93.6247 26.2208 93.0307 28.3914L90.97 35.9154C94.7393 37.8588 98.0687 40.4401 100.892 43.6081L107.668 39.7434C108.614 39.2008 109.714 39.0688 110.763 39.3548C111.811 39.6408 112.691 40.3228 113.227 41.2688L116.387 46.8128C116.93 47.7588 117.062 48.8588 116.776 49.9074C116.49 50.9561 115.808 51.8361 114.862 52.3714L108.086 56.2361C109.377 60.2768 109.905 64.4568 109.655 68.6881L117.179 70.7488C118.228 71.0348 119.108 71.7168 119.643 72.6628C120.186 73.6088 120.318 74.7088 120.032 75.7574L118.345 81.9174C117.751 84.0881 115.507 85.3641 113.337 84.7701L105.813 82.7094C103.869 86.4788 101.288 89.8081 98.12 92.6314L101.985 99.4074C102.527 100.353 102.659 101.453 102.373 102.502C102.087 103.551 101.405 104.431 100.459 104.966L94.9153 108.127C93.9693 108.669 92.8693 108.801 91.8207 108.515C90.772 108.229 89.892 107.547 89.3567 106.601L85.492 99.8254C81.4513 101.116 77.2713 101.644 73.04 101.395L70.9793 108.919C70.6933 109.967 70.0113 110.847 69.0653 111.383C68.442 111.735 67.7527 111.918 67.056 111.918L67.0633 111.933ZM49.5953 87.0654L50.1893 87.7621C53.13 91.2454 56.7013 94.0101 60.808 95.9974L61.6293 96.3934L59.092 105.67C58.96 106.154 59.026 106.66 59.2753 107.093C59.5247 107.525 59.928 107.841 60.412 107.973L66.572 109.659C67.056 109.791 67.562 109.725 67.9947 109.476C68.4273 109.227 68.7427 108.823 68.8747 108.339L71.412 99.0628L72.3213 99.1361C76.868 99.5174 81.3487 98.9528 85.6533 97.4568L86.5187 97.1561L91.2853 105.509C91.5347 105.941 91.938 106.257 92.422 106.389C92.906 106.521 93.412 106.455 93.8447 106.205L99.3887 103.045C99.8213 102.795 100.137 102.392 100.269 101.908C100.401 101.424 100.335 100.918 100.085 100.485L95.3187 92.1328L96.0153 91.5388C99.4913 88.5981 102.263 85.0268 104.251 80.9201L104.647 80.0988L113.923 82.6361C114.921 82.9074 115.955 82.3208 116.226 81.3234L117.913 75.1634C118.045 74.6794 117.979 74.1734 117.729 73.7408C117.48 73.3081 117.077 72.9928 116.593 72.8608L107.316 70.3234L107.389 69.4141C107.771 64.8748 107.206 60.3868 105.71 56.0821L105.409 55.2168L113.762 50.4501C114.195 50.2008 114.51 49.7974 114.642 49.3134C114.774 48.8294 114.708 48.3234 114.459 47.8908L111.298 42.3468C111.049 41.9141 110.645 41.5988 110.161 41.4668C109.677 41.3348 109.171 41.4008 108.739 41.6501L100.386 46.4168L99.792 45.7201C96.8513 42.2368 93.28 39.4721 89.1733 37.4848L88.352 37.0888L90.8893 27.8121C91.0213 27.3281 90.9553 26.8221 90.706 26.3894C90.4567 25.9568 90.0533 25.6414 89.5693 25.5094L83.4093 23.8228C82.412 23.5514 81.378 24.1381 81.1067 25.1354L78.5693 34.4121L77.66 34.3388C73.1133 33.9574 68.6327 34.5221 64.328 36.0181L63.4627 36.3188L58.696 27.9661C58.4467 27.5334 58.0433 27.2181 57.5593 27.0861C57.0753 26.9541 56.5693 27.0201 56.1367 27.2694L50.5927 30.4301C50.16 30.6794 49.8447 31.0828 49.7127 31.5668C49.5807 32.0508 49.6467 32.5568 49.896 32.9894L54.6627 41.3421L53.966 41.9361C50.4827 44.8768 47.718 48.4481 45.7307 52.5548L45.3347 53.3761L36.058 50.8388C35.574 50.7068 35.068 50.7728 34.6353 51.0221C34.2027 51.2714 33.8873 51.6748 33.7553 52.1588L32.0687 58.3188C31.9367 58.8028 32.0027 59.3088 32.252 59.7414C32.5013 60.1741 32.9047 60.4894 33.3887 60.6214L42.6653 63.1588L42.592 64.0681C42.2107 68.6074 42.7753 73.0954 44.2713 77.4001L44.572 78.2654L36.2193 83.0321C35.7867 83.2814 35.4713 83.6848 35.3393 84.1688C35.2073 84.6528 35.2733 85.1588 35.5227 85.5914L38.6833 91.1428C38.9327 91.5754 39.336 91.8908 39.82 92.0228C40.304 92.1548 40.81 92.0888 41.2427 91.8394L49.5953 87.0728V87.0654ZM75.0273 85.1221C73.3993 85.1221 71.764 84.9021 70.1507 84.4621C65.4207 83.1641 61.468 80.1061 59.0407 75.8454C56.606 71.5848 55.9827 66.6274 57.2807 61.8974C58.5787 57.1601 61.6367 53.2148 65.8973 50.7874C70.158 48.3528 75.1153 47.7294 79.8453 49.0274C84.5753 50.3254 88.528 53.3834 90.9553 57.6441C93.39 61.9048 94.0133 66.8621 92.7153 71.5921C91.4173 76.3221 88.3593 80.2748 84.0987 82.7021C81.29 84.3081 78.1733 85.1221 75.0273 85.1221ZM74.976 50.5601C72.204 50.5601 69.4613 51.2788 66.99 52.6941C63.2353 54.8354 60.544 58.3114 59.4 62.4768C58.2633 66.6421 58.8133 71.0054 60.9547 74.7601C63.096 78.5148 66.572 81.2061 70.7373 82.3501C74.9027 83.4868 79.266 82.9368 83.0207 80.7954C86.7753 78.6541 89.4667 75.1781 90.6107 71.0128C91.7547 66.8474 91.1973 62.4841 89.0633 58.7294C86.922 54.9748 83.446 52.2834 79.2807 51.1394C77.858 50.7508 76.4207 50.5601 74.9833 50.5601H74.976Z" fill="white"/>
</g>
<g opacity="0.69">
<path d="M245.388 92.0886L203.896 92.844C202.701 92.866 201.711 92.1106 201.689 91.1573L201.19 63.606C201.175 62.6526 202.136 61.8606 203.331 61.8386L244.823 61.0833C246.026 61.0613 247.009 61.8166 247.031 62.77L247.529 90.3213C247.544 91.2746 246.583 92.0666 245.388 92.0886ZM203.346 62.352C202.429 62.3666 201.696 62.924 201.711 63.5986L202.209 91.15C202.224 91.8173 202.979 92.3526 203.889 92.3306L245.381 91.5753C246.297 91.5606 247.031 91.0033 247.016 90.3286L246.517 62.7773C246.503 62.11 245.747 61.5746 244.838 61.5893L203.346 62.3446V62.352Z" fill="white"/>
<path d="M246.566 66.6702L201.517 67.488L201.527 68.0012L246.575 67.1834L246.566 66.6702Z" fill="white"/>
<path d="M204.769 66.0918C204.233 66.0991 203.793 65.6738 203.779 65.1385C203.771 64.6031 204.197 64.1631 204.732 64.1485C205.267 64.1411 205.707 64.5665 205.722 65.1018C205.729 65.6371 205.304 66.0771 204.769 66.0918ZM204.739 64.6691C204.49 64.6691 204.285 64.8818 204.292 65.1311C204.292 65.3805 204.505 65.5858 204.754 65.5785C205.003 65.5785 205.209 65.3658 205.201 65.1165C205.201 64.8671 204.989 64.6618 204.739 64.6691Z" fill="white"/>
<path d="M207.445 66.048C206.91 66.0553 206.47 65.63 206.455 65.0946C206.448 64.5593 206.873 64.1193 207.409 64.1046C207.944 64.0973 208.384 64.5226 208.399 65.058C208.406 65.5933 207.981 66.0333 207.445 66.048ZM207.416 64.6253C207.167 64.6253 206.961 64.838 206.969 65.0873C206.969 65.3366 207.181 65.542 207.431 65.5346C207.68 65.5346 207.885 65.322 207.878 65.0726C207.878 64.8233 207.665 64.618 207.416 64.6253Z" fill="white"/>
<path d="M210.063 65.9966C209.528 66.0039 209.088 65.5786 209.073 65.0433C209.066 64.5079 209.491 64.0679 210.027 64.0533C210.562 64.0459 211.002 64.4713 211.017 65.0066C211.024 65.5419 210.599 65.9819 210.063 65.9966ZM210.034 64.5739C209.785 64.5739 209.579 64.7866 209.587 65.0359C209.587 65.2853 209.799 65.4906 210.049 65.4833C210.298 65.4833 210.503 65.2706 210.496 65.0213C210.496 64.7719 210.283 64.5666 210.034 64.5739Z" fill="white"/>
</g>
<g opacity="0.69">
<path d="M106.135 256.751L64.6434 257.507C63.448 257.529 62.458 256.773 62.436 255.82L61.9374 228.269C61.9227 227.315 62.8834 226.523 64.0787 226.501L105.571 225.746C106.773 225.724 107.756 226.479 107.778 227.433L108.277 254.984C108.291 255.937 107.331 256.729 106.135 256.751ZM64.0934 227.015C63.1767 227.029 62.4434 227.587 62.458 228.261L62.9567 255.813C62.9714 256.48 63.7267 257.015 64.636 257.001L106.128 256.245C107.045 256.231 107.778 255.673 107.763 254.999L107.265 227.447C107.25 226.78 106.495 226.245 105.585 226.259L64.0934 227.015Z" fill="white"/>
<path d="M107.318 231.325L62.2697 232.143L62.279 232.656L107.328 231.839L107.318 231.325Z" fill="white"/>
<path d="M65.516 230.755C64.9806 230.762 64.5406 230.337 64.526 229.801C64.5186 229.266 64.944 228.826 65.4793 228.811C66.0146 228.804 66.4546 229.229 66.4693 229.765C66.4766 230.3 66.0513 230.74 65.516 230.755ZM65.4866 229.332C65.2373 229.332 65.032 229.545 65.0393 229.794C65.0393 230.043 65.252 230.249 65.5013 230.241C65.7506 230.234 65.956 230.029 65.9486 229.779C65.9486 229.53 65.736 229.325 65.4866 229.332Z" fill="white"/>
<path d="M68.1927 230.711C67.6573 230.718 67.2173 230.293 67.2027 229.757C67.1953 229.222 67.6207 228.782 68.156 228.767C68.6913 228.76 69.1313 229.185 69.146 229.721C69.1533 230.256 68.728 230.696 68.1927 230.711ZM68.1633 229.288C67.914 229.288 67.7087 229.501 67.716 229.75C67.7233 229.999 67.9287 230.205 68.178 230.197C68.4273 230.197 68.6327 229.985 68.6253 229.735C68.618 229.486 68.4127 229.281 68.1633 229.288Z" fill="white"/>
<path d="M70.818 230.659C70.2826 230.667 69.8426 230.241 69.828 229.706C69.8206 229.171 70.246 228.731 70.7813 228.716C71.3166 228.709 71.7566 229.134 71.7713 229.669C71.7786 230.205 71.3533 230.645 70.818 230.659ZM70.7886 229.237C70.5393 229.237 70.334 229.449 70.3413 229.699C70.3413 229.948 70.554 230.153 70.8033 230.146C71.0526 230.146 71.258 229.933 71.2506 229.684C71.2506 229.435 71.038 229.229 70.7886 229.237Z" fill="white"/>
</g>
<g opacity="0.55">
<path d="M278.535 178.805L274.245 175.366C275.667 172.704 276.481 169.829 276.701 166.933L282.172 166.331C283.206 166.214 283.947 165.29 283.837 164.256L283.397 160.245C283.287 159.211 282.355 158.47 281.321 158.58L275.851 159.181C275.007 156.402 273.592 153.769 271.619 151.481L275.059 147.191C275.711 146.377 275.579 145.197 274.765 144.544L271.612 142.021C270.798 141.369 269.617 141.501 268.965 142.315L265.525 146.605C262.863 145.182 259.989 144.368 257.092 144.148L256.491 138.685C256.381 137.651 255.449 136.91 254.415 137.02L250.404 137.46C249.37 137.577 248.629 138.501 248.739 139.535L249.341 145.006C246.561 145.849 243.929 147.265 241.641 149.237L237.351 145.798C236.537 145.145 235.356 145.277 234.703 146.091L232.181 149.245C231.528 150.059 231.66 151.239 232.474 151.892L236.764 155.331C235.341 157.993 234.527 160.868 234.307 163.765L228.844 164.366C227.81 164.483 227.069 165.407 227.179 166.441L227.619 170.453C227.737 171.487 228.661 172.227 229.695 172.117L235.165 171.516C236.009 174.295 237.424 176.928 239.397 179.216L235.957 183.506C235.305 184.32 235.437 185.501 236.251 186.153L239.404 188.676C240.218 189.329 241.399 189.197 242.051 188.383L245.491 184.093C248.153 185.515 251.027 186.329 253.924 186.549L254.525 192.013C254.643 193.047 255.567 193.787 256.601 193.677L260.612 193.237C261.646 193.12 262.387 192.196 262.277 191.162L261.675 185.699C264.455 184.855 267.087 183.44 269.375 181.467L273.665 184.907C274.479 185.559 275.66 185.427 276.313 184.613L278.835 181.46C279.488 180.646 279.356 179.465 278.542 178.813L278.535 178.805ZM248.673 173.863C243.965 170.093 243.21 163.222 246.987 158.514C250.756 153.806 257.627 153.051 262.335 156.827C267.043 160.597 267.799 167.468 264.029 172.176C260.26 176.884 253.389 177.639 248.681 173.87L248.673 173.863Z" fill="white"/>
<path d="M256.381 194.044C255.875 194.044 255.383 193.875 254.98 193.553C254.511 193.179 254.217 192.643 254.151 192.042L253.579 186.879C250.771 186.63 248.079 185.853 245.579 184.547L242.33 188.603C241.956 189.072 241.421 189.365 240.819 189.431C240.225 189.497 239.639 189.329 239.169 188.955L236.023 186.432C235.554 186.058 235.261 185.523 235.195 184.921C235.129 184.327 235.297 183.741 235.671 183.271L238.92 179.216C237.109 177.053 235.759 174.596 234.909 171.912L229.746 172.484C229.152 172.55 228.565 172.381 228.096 172C227.627 171.626 227.333 171.091 227.267 170.489L226.827 166.478C226.761 165.884 226.93 165.297 227.311 164.828C227.685 164.359 228.221 164.065 228.822 163.999L233.985 163.427C234.234 160.619 235.011 157.927 236.317 155.419L232.261 152.171C231.792 151.797 231.499 151.261 231.433 150.667C231.367 150.073 231.535 149.487 231.917 149.017L234.439 145.864C234.813 145.395 235.349 145.101 235.95 145.035C236.544 144.969 237.131 145.138 237.6 145.519L241.655 148.768C243.819 146.957 246.275 145.607 248.959 144.749L248.387 139.587C248.248 138.355 249.143 137.24 250.375 137.108L254.386 136.668C255.618 136.536 256.733 137.423 256.865 138.655L257.437 143.825C260.245 144.075 262.937 144.852 265.437 146.157L268.686 142.102C269.463 141.134 270.879 140.98 271.847 141.757L274.993 144.28C275.462 144.654 275.755 145.189 275.821 145.791C275.887 146.385 275.719 146.971 275.337 147.441L272.089 151.496C273.9 153.659 275.249 156.116 276.107 158.8L281.27 158.228C281.864 158.162 282.451 158.331 282.92 158.712C283.389 159.086 283.683 159.621 283.749 160.223L284.189 164.234C284.255 164.828 284.086 165.415 283.705 165.884C283.331 166.353 282.795 166.647 282.194 166.713L277.031 167.285C276.782 170.093 276.005 172.785 274.699 175.293L278.755 178.541C279.224 178.915 279.517 179.451 279.583 180.052C279.649 180.646 279.481 181.233 279.099 181.702L276.577 184.848C275.799 185.816 274.384 185.97 273.416 185.2L269.361 181.951C267.197 183.763 264.748 185.112 262.057 185.97L262.629 191.133C262.695 191.727 262.526 192.313 262.145 192.783C261.771 193.252 261.235 193.545 260.634 193.611L256.623 194.051C256.542 194.059 256.454 194.066 256.373 194.066L256.381 194.044ZM245.388 183.616L245.659 183.763C248.241 185.149 251.027 185.955 253.946 186.175L254.247 186.197L254.885 191.969C254.929 192.372 255.127 192.731 255.442 192.981C255.757 193.237 256.153 193.355 256.557 193.303L260.568 192.863C260.971 192.819 261.331 192.621 261.58 192.306C261.837 191.991 261.947 191.595 261.903 191.191L261.265 185.42L261.558 185.332C264.359 184.481 266.904 183.088 269.119 181.174L269.346 180.976L273.878 184.606C274.531 185.127 275.484 185.024 276.005 184.371L278.527 181.225C278.784 180.91 278.894 180.514 278.85 180.111C278.806 179.707 278.608 179.348 278.293 179.099L273.761 175.469L273.907 175.197C275.293 172.616 276.1 169.829 276.32 166.911L276.342 166.61L282.113 165.972C282.517 165.928 282.876 165.73 283.125 165.415C283.382 165.099 283.492 164.703 283.448 164.3L283.008 160.289C282.964 159.885 282.766 159.526 282.451 159.277C282.135 159.027 281.739 158.903 281.336 158.954L275.565 159.592L275.477 159.299C274.633 156.497 273.233 153.953 271.319 151.738L271.121 151.511L274.751 146.979C275 146.663 275.117 146.267 275.073 145.864C275.029 145.461 274.831 145.101 274.516 144.852L271.37 142.329C270.717 141.809 269.764 141.911 269.243 142.564L265.613 147.096L265.342 146.949C262.761 145.563 259.974 144.757 257.055 144.537L256.755 144.515L256.117 138.743C256.029 137.915 255.273 137.313 254.445 137.401L250.433 137.841C250.03 137.885 249.671 138.083 249.421 138.399C249.165 138.714 249.055 139.11 249.099 139.513L249.737 145.285L249.443 145.373C246.642 146.216 244.097 147.617 241.883 149.531L241.655 149.729L237.123 146.099C236.808 145.842 236.412 145.732 236.009 145.776C235.605 145.82 235.246 146.018 234.997 146.333L232.474 149.487C232.225 149.802 232.107 150.198 232.151 150.601C232.195 151.005 232.393 151.364 232.709 151.613L237.241 155.243L237.094 155.515C235.708 158.096 234.901 160.883 234.681 163.801L234.659 164.102L228.888 164.74C228.485 164.784 228.125 164.982 227.876 165.297C227.619 165.613 227.509 166.009 227.553 166.412L227.993 170.423C228.037 170.827 228.235 171.186 228.551 171.435C228.866 171.685 229.262 171.802 229.665 171.758L235.437 171.12L235.525 171.413C236.368 174.215 237.769 176.759 239.683 178.974L239.881 179.201L236.251 183.733C235.994 184.049 235.884 184.445 235.928 184.848C235.972 185.251 236.17 185.611 236.485 185.86L239.631 188.383C239.947 188.632 240.343 188.749 240.746 188.705C241.149 188.661 241.509 188.463 241.758 188.148L245.388 183.616ZM255.493 176.627C253.015 176.627 250.521 175.821 248.446 174.156C246.092 172.271 244.618 169.58 244.288 166.588C243.958 163.589 244.816 160.648 246.701 158.294C248.585 155.94 251.277 154.466 254.269 154.136C257.268 153.806 260.209 154.664 262.563 156.549C267.417 160.443 268.202 167.556 264.308 172.411C262.079 175.19 258.801 176.635 255.493 176.635V176.627ZM255.523 154.796C255.134 154.796 254.738 154.818 254.349 154.862C251.548 155.17 249.033 156.549 247.273 158.749C243.635 163.288 244.369 169.939 248.908 173.584C253.447 177.221 260.099 176.488 263.743 171.949C267.381 167.409 266.647 160.758 262.108 157.113C260.216 155.595 257.921 154.796 255.53 154.796H255.523Z" fill="white"/>
</g>
<g opacity="0.38">
<path d="M305.895 211.402H264.374C263.655 211.402 263.076 210.705 263.076 209.855V194.572C263.076 193.714 263.663 193.025 264.374 193.025H305.895C306.614 193.025 307.193 193.721 307.193 194.572V209.855C307.193 210.705 306.607 211.402 305.895 211.402ZM264.374 193.758C264.066 193.758 263.809 194.132 263.809 194.572V209.855C263.809 210.295 264.066 210.669 264.374 210.669H305.895C306.203 210.669 306.46 210.295 306.46 209.855V194.572C306.46 194.132 306.203 193.758 305.895 193.758H264.374Z" fill="white"/>
<path d="M299.735 198.935H271.627V199.669H299.735V198.935Z" fill="white"/>
<path d="M299.728 200.036H271.619C271.216 200.036 270.886 199.706 270.886 199.302C270.886 198.899 271.216 198.569 271.619 198.569H299.728C300.131 198.569 300.461 198.899 300.461 199.302C300.461 199.706 300.131 200.036 299.728 200.036Z" fill="white"/>
<path d="M284.189 202.272H271.627V203.006H284.189V202.272Z" fill="white"/>
<path d="M284.181 203.372H271.619C271.216 203.372 270.886 203.042 270.886 202.639C270.886 202.236 271.216 201.906 271.619 201.906H284.181C284.585 201.906 284.915 202.236 284.915 202.639C284.915 203.042 284.585 203.372 284.181 203.372Z" fill="white"/>
<path d="M299.735 202.272H287.173V203.006H299.735V202.272Z" fill="white"/>
<path d="M299.728 203.372H287.166C286.763 203.372 286.433 203.042 286.433 202.639C286.433 202.236 286.763 201.906 287.166 201.906H299.728C300.131 201.906 300.461 202.236 300.461 202.639C300.461 203.042 300.131 203.372 299.728 203.372Z" fill="white"/>
<path d="M299.735 205.755H271.627V206.489H299.735V205.755Z" fill="white"/>
<path d="M299.728 206.855H271.619C271.216 206.855 270.886 206.525 270.886 206.122C270.886 205.719 271.216 205.389 271.619 205.389H299.728C300.131 205.389 300.461 205.719 300.461 206.122C300.461 206.525 300.131 206.855 299.728 206.855Z" fill="white"/>
</g>
<g opacity="0.55">
<path d="M190.285 279.323C189.706 279.323 189.156 279.125 188.694 278.759C188.159 278.333 187.829 277.725 187.755 277.05L187.242 272.364C184.69 272.1 182.241 271.389 179.945 270.245L176.997 273.926C176.117 275.026 174.504 275.202 173.411 274.322L170.368 271.88C169.84 271.455 169.503 270.846 169.429 270.171C169.356 269.497 169.547 268.829 169.972 268.294L172.92 264.613C171.299 262.625 170.075 260.389 169.261 257.954L164.575 258.467C163.174 258.614 161.913 257.609 161.759 256.209L161.333 252.329C161.179 250.929 162.191 249.667 163.592 249.513L168.278 249C168.542 246.448 169.253 243.999 170.397 241.703L166.716 238.755C165.616 237.875 165.44 236.269 166.32 235.169L168.762 232.126C169.187 231.591 169.796 231.261 170.471 231.187C171.145 231.114 171.813 231.305 172.348 231.73L176.029 234.678C178.017 233.057 180.253 231.833 182.688 231.019L182.175 226.333C182.101 225.658 182.292 224.991 182.717 224.455C183.143 223.92 183.751 223.59 184.426 223.517L188.305 223.091C188.98 223.018 189.647 223.209 190.183 223.634C190.718 224.059 191.048 224.668 191.121 225.343L191.635 230.029C194.187 230.293 196.636 231.004 198.931 232.148L201.879 228.467C202.759 227.367 204.365 227.191 205.465 228.071L208.509 230.513C209.037 230.938 209.374 231.547 209.447 232.221C209.521 232.896 209.33 233.563 208.905 234.099L205.957 237.78C207.577 239.767 208.802 242.004 209.616 244.439L214.302 243.925C215.695 243.771 216.964 244.783 217.118 246.184L217.543 250.063C217.697 251.464 216.685 252.725 215.285 252.879L210.599 253.393C210.335 255.945 209.623 258.394 208.479 260.682L212.161 263.63C212.696 264.055 213.026 264.664 213.099 265.339C213.173 266.013 212.982 266.681 212.557 267.216L210.115 270.259C209.689 270.795 209.081 271.125 208.406 271.198C207.731 271.279 207.064 271.081 206.529 270.655L202.847 267.707C200.86 269.328 198.623 270.553 196.189 271.367L196.702 276.053C196.856 277.453 195.844 278.715 194.443 278.869L190.564 279.294C190.469 279.301 190.373 279.309 190.278 279.309L190.285 279.323ZM179.557 268.382L180.092 268.668C182.541 269.981 185.181 270.751 187.953 270.956L188.562 271L189.207 276.889C189.237 277.175 189.383 277.439 189.603 277.615C189.831 277.798 190.117 277.879 190.403 277.849L194.282 277.424C194.568 277.395 194.832 277.248 195.008 277.021C195.191 276.793 195.272 276.515 195.243 276.221L194.597 270.333L195.184 270.157C197.839 269.357 200.259 268.03 202.356 266.211L202.818 265.815L207.445 269.519C207.673 269.702 207.951 269.783 208.245 269.753C208.531 269.724 208.795 269.577 208.971 269.35L211.413 266.307C211.596 266.079 211.677 265.793 211.647 265.507C211.618 265.221 211.471 264.957 211.251 264.781L206.624 261.071L206.91 260.535C208.223 258.086 208.993 255.446 209.198 252.674L209.242 252.065L215.131 251.42C215.725 251.354 216.157 250.819 216.091 250.225L215.666 246.345C215.6 245.751 215.057 245.326 214.471 245.385L208.582 246.03L208.406 245.443C207.607 242.789 206.279 240.369 204.461 238.271L204.065 237.809L207.775 233.182C207.959 232.955 208.039 232.676 208.01 232.383C207.981 232.097 207.834 231.833 207.614 231.657L204.571 229.215C204.109 228.841 203.419 228.914 203.045 229.383L199.342 234.011L198.807 233.725C196.357 232.412 193.717 231.642 190.945 231.437L190.337 231.393L189.691 225.504C189.662 225.218 189.515 224.954 189.295 224.778C189.068 224.595 188.782 224.514 188.496 224.543L184.617 224.969C184.331 224.998 184.067 225.145 183.891 225.365C183.707 225.592 183.627 225.871 183.656 226.164L184.301 232.053L183.715 232.229C181.06 233.028 178.647 234.355 176.543 236.174L176.081 236.57L171.453 232.867C171.226 232.683 170.947 232.603 170.654 232.632C170.368 232.661 170.104 232.808 169.928 233.028L167.486 236.071C167.303 236.299 167.222 236.585 167.251 236.871C167.281 237.157 167.427 237.421 167.647 237.597L172.275 241.307L171.989 241.843C170.676 244.292 169.906 246.932 169.701 249.704L169.657 250.313L163.768 250.958C163.174 251.024 162.741 251.559 162.807 252.153L163.233 256.033C163.299 256.627 163.834 257.052 164.428 256.993L170.317 256.348L170.493 256.935C171.292 259.589 172.619 262.009 174.438 264.107L174.834 264.569L171.123 269.196C170.94 269.423 170.859 269.702 170.889 269.995C170.918 270.281 171.065 270.545 171.285 270.721L174.328 273.163C174.79 273.537 175.479 273.464 175.853 272.995L179.564 268.367L179.557 268.382ZM189.427 262.486C186.949 262.486 184.455 261.679 182.38 260.007C180.026 258.123 178.552 255.431 178.222 252.432C177.892 249.433 178.75 246.492 180.635 244.138C182.519 241.784 185.211 240.31 188.21 239.98C191.209 239.65 194.157 240.508 196.504 242.393C198.851 244.277 200.332 246.969 200.662 249.968C200.992 252.967 200.134 255.908 198.249 258.262C196.02 261.041 192.742 262.486 189.427 262.486ZM189.457 241.381C189.09 241.381 188.731 241.403 188.364 241.439C185.753 241.725 183.414 243.009 181.779 245.062C180.136 247.108 179.395 249.675 179.681 252.278C179.967 254.889 181.251 257.228 183.304 258.863C187.528 262.251 193.725 261.569 197.113 257.345C198.755 255.299 199.496 252.733 199.21 250.129C198.924 247.519 197.641 245.179 195.587 243.544C193.827 242.136 191.686 241.381 189.464 241.381H189.457Z" fill="white"/>
</g>
<g opacity="0.61">
<path opacity="0.74" d="M92.6801 100.325L25.5924 101.145C24.2033 101.162 23.091 102.301 23.108 103.691L24.4723 215.354C24.4893 216.743 25.6291 217.856 27.0182 217.839L94.1058 217.019C95.4949 217.002 96.6072 215.862 96.5902 214.473L95.2259 102.809C95.209 101.42 94.0691 100.308 92.6801 100.325Z" fill="#1E386B"/>
<path d="M95.4653 102.774L95.546 109.41L23.4227 110.283L23.342 103.522C23.3273 102.187 24.3907 101.102 25.7253 101.08L92.8987 100.266C94.2993 100.251 95.4433 101.373 95.4653 102.766V102.774Z" fill="#03486E"/>
<path d="M28.3067 106.983C27.4853 106.983 26.818 106.33 26.8107 105.509C26.8107 104.687 27.4633 104.02 28.2847 104.013C29.106 104.013 29.7733 104.665 29.7807 105.487C29.7807 106.308 29.128 106.975 28.3067 106.983ZM28.292 104.607C27.8007 104.607 27.4047 105.01 27.4047 105.501C27.4047 105.993 27.808 106.389 28.2993 106.389C28.7907 106.389 29.1867 105.985 29.1867 105.494C29.1867 105.003 28.7833 104.607 28.292 104.607Z" fill="white"/>
<path d="M33.2713 106.946C32.45 106.946 31.7827 106.294 31.7753 105.472C31.7753 104.651 32.428 103.984 33.2493 103.976C34.0707 103.976 34.738 104.629 34.7453 105.45C34.7453 106.272 34.0927 106.939 33.2713 106.946ZM33.2567 104.57C32.7653 104.57 32.3693 104.974 32.3693 105.465C32.3693 105.956 32.7727 106.352 33.264 106.352C33.7553 106.352 34.1513 105.949 34.1513 105.458C34.1513 104.966 33.748 104.57 33.2567 104.57Z" fill="white"/>
<path d="M38.0893 106.91C37.268 106.91 36.6007 106.257 36.5933 105.436C36.5933 104.614 37.246 103.947 38.0673 103.94C38.8887 103.94 39.556 104.592 39.5633 105.414C39.5633 106.235 38.9107 106.902 38.0893 106.91ZM38.0747 104.534C37.5833 104.534 37.1873 104.937 37.1873 105.428C37.1873 105.92 37.5907 106.316 38.082 106.316C38.5733 106.316 38.9693 105.912 38.9693 105.421C38.9693 104.93 38.566 104.534 38.0747 104.534Z" fill="white"/>
<path d="M62.9346 120.586L29.6046 120.835C29.2746 120.835 29.0106 120.571 29.0033 120.249C29.0033 119.919 29.2673 119.655 29.59 119.647L62.92 119.398C63.25 119.398 63.514 119.662 63.5213 119.985C63.5213 120.315 63.2573 120.579 62.9346 120.586Z" fill="white"/>
<path d="M74.0373 120.506L67.122 120.557C66.792 120.557 66.528 120.293 66.5206 119.97C66.5206 119.64 66.7846 119.376 67.1073 119.369L74.0226 119.318C74.3526 119.318 74.6166 119.582 74.624 119.904C74.624 120.234 74.36 120.498 74.0373 120.506Z" fill="#03486E"/>
<path d="M63.14 148.255L29.81 148.504C29.48 148.504 29.216 148.24 29.2087 147.917C29.2087 147.587 29.4727 147.323 29.7953 147.316L63.1253 147.067C63.4553 147.067 63.7193 147.331 63.7267 147.653C63.7267 147.983 63.4627 148.247 63.14 148.255Z" fill="white"/>
<path d="M74.25 148.174L67.3347 148.226C67.0047 148.226 66.7407 147.962 66.7333 147.639C66.7333 147.309 66.9973 147.045 67.32 147.038L74.2353 146.986C74.5653 146.986 74.8293 147.25 74.8367 147.573C74.8367 147.903 74.5727 148.167 74.25 148.174Z" fill="#599AF2"/>
<path d="M63.03 133.793L29.7 134.043C29.37 134.043 29.106 133.779 29.0986 133.456C29.0986 133.126 29.3626 132.862 29.6853 132.855L63.0153 132.605C63.3453 132.605 63.6093 132.869 63.6166 133.192C63.6166 133.522 63.3526 133.786 63.03 133.793Z" fill="#599AF2"/>
<path d="M74.14 133.706L67.2246 133.757C66.8946 133.757 66.6306 133.493 66.6233 133.17C66.6233 132.84 66.8873 132.576 67.21 132.569L74.1253 132.518C74.4553 132.518 74.7193 132.782 74.7266 133.104C74.7266 133.434 74.4626 133.698 74.14 133.706Z" fill="white"/>
<path d="M85.5287 133.625L78.6134 133.676C78.2834 133.676 78.0194 133.412 78.012 133.089C78.012 132.759 78.276 132.495 78.5987 132.488L85.514 132.437C85.844 132.437 86.108 132.701 86.1154 133.023C86.1154 133.353 85.8514 133.617 85.5287 133.625Z" fill="#03486E"/>
<path d="M51.8686 127.171L29.6486 127.34C29.3186 127.34 29.0546 127.076 29.0473 126.753C29.0473 126.423 29.3113 126.159 29.634 126.152L51.854 125.983C52.184 125.983 52.448 126.247 52.4553 126.57C52.4553 126.9 52.1913 127.164 51.8686 127.171Z" fill="#03486E"/>
<path d="M65.7066 127.061L55.9606 127.135C55.6306 127.135 55.3666 126.871 55.3593 126.548C55.3593 126.218 55.6233 125.954 55.946 125.947L65.692 125.873C66.022 125.873 66.286 126.137 66.2933 126.46C66.2933 126.79 66.0293 127.054 65.7066 127.061Z" fill="#F7A9B4"/>
<path d="M65.8093 140.98L43.5893 141.149C43.2593 141.149 42.9953 140.885 42.988 140.562C42.988 140.232 43.252 139.968 43.5746 139.961L65.7946 139.792C66.1246 139.792 66.3886 140.056 66.396 140.379C66.396 140.709 66.132 140.973 65.8093 140.98Z" fill="#03486E"/>
<path d="M39.5047 141.178L29.7587 141.251C29.4287 141.251 29.1647 140.987 29.1573 140.665C29.1573 140.335 29.4213 140.071 29.744 140.063L39.49 139.99C39.82 139.99 40.084 140.254 40.0913 140.577C40.0913 140.907 39.8273 141.171 39.5047 141.178Z" fill="#F7A9B4"/>
<path d="M63.2133 157.583L29.8833 157.832C29.5533 157.832 29.2893 157.568 29.282 157.246C29.282 156.916 29.546 156.652 29.8686 156.644L63.1987 156.395C63.5286 156.395 63.7926 156.659 63.8 156.982C63.8 157.312 63.536 157.576 63.2133 157.583Z" fill="#F7A9B4"/>
<path d="M74.3233 157.502L67.408 157.554C67.078 157.554 66.814 157.29 66.8066 156.967C66.8066 156.637 67.0706 156.373 67.3933 156.366L74.3086 156.314C74.6386 156.314 74.9026 156.578 74.91 156.901C74.91 157.231 74.646 157.495 74.3233 157.502Z" fill="#03486E"/>
<path d="M63.4187 185.252L30.0887 185.501C29.7587 185.501 29.4947 185.237 29.4874 184.914C29.4874 184.584 29.7514 184.32 30.074 184.313L63.404 184.064C63.734 184.064 63.998 184.328 64.0054 184.65C64.0054 184.98 63.7414 185.244 63.4187 185.252Z" fill="white"/>
<path d="M74.5287 185.171L67.6134 185.222C67.2834 185.222 67.0194 184.958 67.012 184.635C67.012 184.305 67.276 184.041 67.5987 184.034L74.514 183.983C74.844 183.983 75.108 184.247 75.1154 184.569C75.1154 184.899 74.8514 185.163 74.5287 185.171Z" fill="#599AF2"/>
<path d="M63.3087 170.79L29.9787 171.04C29.6487 171.04 29.3847 170.776 29.3773 170.453C29.3773 170.123 29.6413 169.859 29.964 169.852L63.294 169.602C63.624 169.602 63.888 169.866 63.8953 170.189C63.8953 170.519 63.6313 170.783 63.3087 170.79Z" fill="#599AF2"/>
<path d="M74.4186 170.709L67.5033 170.761C67.1733 170.761 66.9093 170.497 66.902 170.174C66.902 169.844 67.166 169.58 67.4886 169.573L74.404 169.521C74.734 169.521 74.998 169.785 75.0053 170.108C75.0053 170.438 74.7413 170.702 74.4186 170.709Z" fill="white"/>
<path d="M85.8073 170.621L78.892 170.673C78.562 170.673 78.298 170.409 78.2907 170.086C78.2833 169.763 78.5547 169.492 78.8773 169.485L85.7927 169.433C86.1227 169.433 86.3867 169.697 86.394 170.02C86.394 170.35 86.13 170.614 85.8073 170.621Z" fill="#03486E"/>
<path d="M52.1473 164.168L29.9273 164.337C29.5973 164.337 29.3333 164.073 29.326 163.75C29.326 163.42 29.59 163.156 29.9127 163.149L52.1327 162.98C52.4627 162.98 52.7267 163.244 52.734 163.567C52.734 163.897 52.47 164.161 52.1473 164.168Z" fill="#03486E"/>
<path d="M65.9853 164.058L56.2393 164.131C55.9093 164.131 55.6453 163.867 55.638 163.545C55.638 163.215 55.902 162.951 56.2247 162.943L65.9707 162.87C66.3007 162.87 66.5647 163.134 66.572 163.457C66.572 163.787 66.308 164.051 65.9853 164.058Z" fill="#F7A9B4"/>
<path d="M66.088 177.977L43.868 178.145C43.538 178.145 43.274 177.881 43.2667 177.559C43.2667 177.229 43.5307 176.965 43.8533 176.957L66.0733 176.789C66.4033 176.789 66.6673 177.053 66.6747 177.375C66.6747 177.705 66.4107 177.969 66.088 177.977Z" fill="#03486E"/>
<path d="M39.7834 178.175L30.0374 178.248C29.7074 178.248 29.4434 177.984 29.436 177.661C29.436 177.331 29.7 177.067 30.0227 177.06L39.7687 176.987C40.0987 176.987 40.3627 177.251 40.37 177.573C40.37 177.903 40.106 178.167 39.7834 178.175Z" fill="#F7A9B4"/>
<path d="M63.4847 193.809L30.1547 194.059C29.8247 194.059 29.5607 193.795 29.5533 193.472C29.5533 193.142 29.8173 192.878 30.14 192.871L63.47 192.621C63.8 192.621 64.064 192.885 64.0713 193.208C64.0713 193.538 63.8073 193.802 63.4847 193.809Z" fill="#F7A9B4"/>
<path d="M74.5947 193.729L67.6793 193.78C67.3493 193.78 67.0853 193.516 67.078 193.193C67.078 192.863 67.342 192.599 67.6647 192.592L74.58 192.541C74.91 192.541 75.174 192.805 75.1813 193.127C75.1813 193.457 74.9173 193.721 74.5947 193.729Z" fill="#03486E"/>
<path d="M74.7267 211.197L67.8114 211.248C67.4814 211.248 67.2174 210.984 67.21 210.661C67.21 210.331 67.474 210.067 67.7967 210.06L74.712 210.009C75.042 210.009 75.306 210.273 75.3134 210.595C75.3134 210.925 75.0494 211.189 74.7267 211.197Z" fill="white"/>
<path d="M86.1153 211.109L79.2 211.16C78.87 211.16 78.606 210.896 78.5986 210.574C78.5986 210.244 78.8626 209.98 79.1853 209.972L86.1006 209.921C86.4306 209.921 86.6946 210.185 86.702 210.508C86.702 210.838 86.438 211.102 86.1153 211.109Z" fill="#03486E"/>
<path d="M52.426 200.395L30.206 200.563C29.876 200.563 29.612 200.299 29.6047 199.977C29.6047 199.647 29.8687 199.383 30.1913 199.375L52.4113 199.207C52.7413 199.207 53.0053 199.471 53.0127 199.793C53.0127 200.123 52.7487 200.387 52.426 200.395Z" fill="#03486E"/>
<path d="M66.2566 200.285L56.5106 200.358C56.1806 200.358 55.9166 200.094 55.9093 199.772C55.9093 199.442 56.1733 199.178 56.496 199.17L66.242 199.097C66.572 199.097 66.836 199.361 66.8433 199.684C66.8433 200.014 66.5793 200.278 66.2566 200.285Z" fill="#F7A9B4"/>
</g>
<path d="M85.7413 45.8811V60.6431L85.7487 64.0751L85.7633 105.054L85.8 185.244L85.8147 226.222V229.654V239.628C85.8147 244.13 88.66 247.958 92.642 249.454C93.7934 249.887 95.0253 250.129 96.3233 250.129H103.811L186.259 250.092C188.467 250.092 190.505 249.41 192.192 248.252C194.949 246.36 196.761 243.184 196.761 239.584L196.673 45.8371C196.673 42.6105 195.213 39.7211 192.918 37.7998C191.092 36.2671 188.738 35.3358 186.164 35.3358L96.228 35.3725C90.4274 35.3725 85.7267 40.0805 85.7267 45.8811H85.7413Z" fill="#023C5C"/>
<path d="M86.5114 49.5552V63.8405L86.5187 67.1552L86.5334 106.806L86.57 184.393L86.5847 224.044V227.359V237.01C86.5847 241.366 89.386 245.069 93.3167 246.514C94.446 246.932 95.6707 247.166 96.9467 247.166H104.331L185.636 247.13C187.807 247.13 189.823 246.47 191.488 245.348C194.209 243.514 195.991 240.442 195.991 236.966L195.91 49.5185C195.91 46.3945 194.465 43.6005 192.207 41.7378C190.403 40.2565 188.085 39.3545 185.548 39.3545L96.8587 39.3912C91.1387 39.3912 86.504 43.9452 86.504 49.5625L86.5114 49.5552Z" fill="#03486E"/>
<path d="M190.894 64.8528L190.96 220.561C190.96 221.955 189.831 223.077 188.445 223.084L94.1307 223.128C92.7373 223.128 91.6153 221.999 91.608 220.613L91.542 64.9041C91.542 63.5108 92.6713 62.3815 94.0573 62.3815L188.371 62.3375C189.765 62.3375 190.887 63.4668 190.894 64.8528Z" fill="white"/>
<path d="M190.894 64.7867V74.8847L91.5494 74.9287V64.7134C91.5494 63.3787 92.62 62.3007 93.9547 62.3007L188.357 62.2567C189.757 62.2567 190.894 63.3934 190.894 64.7867Z" fill="#599AF2"/>
<path d="M178.633 67.1628C178.427 67.1628 178.266 67.0014 178.266 66.7961C178.266 66.5908 178.427 66.4294 178.633 66.4294H186.083C186.289 66.4294 186.45 66.5908 186.45 66.7961C186.45 67.0014 186.289 67.1628 186.083 67.1628H178.633Z" fill="white"/>
<path d="M178.633 69.0621C178.427 69.0621 178.266 68.9007 178.266 68.6954C178.266 68.4901 178.427 68.3287 178.633 68.3287H186.083C186.289 68.3287 186.45 68.4901 186.45 68.6954C186.45 68.9007 186.289 69.0621 186.083 69.0621H178.633Z" fill="white"/>
<path d="M178.633 70.9686C178.427 70.9686 178.266 70.8073 178.266 70.602C178.266 70.3966 178.427 70.2353 178.633 70.2353H186.083C186.289 70.2353 186.45 70.3966 186.45 70.602C186.45 70.8073 186.289 70.9686 186.083 70.9686H178.633Z" fill="white"/>
<path d="M100.43 72.1862C100.335 72.1862 100.239 72.1495 100.173 72.0762L97.4674 69.3702C97.2327 69.1355 97.2327 68.7542 97.4674 68.5269L100.071 65.9235C100.217 65.7769 100.445 65.7769 100.591 65.9235C100.738 66.0629 100.738 66.2975 100.591 66.4442L98.0834 68.9522L100.694 71.5629C100.841 71.7022 100.841 71.9369 100.694 72.0835C100.621 72.1569 100.525 72.1935 100.437 72.1935L100.43 72.1862Z" fill="white"/>
<path d="M141.306 53.0166C139.825 53.0166 138.615 51.814 138.615 50.3253C138.615 48.844 139.817 47.634 141.306 47.634C142.787 47.634 143.997 48.8366 143.997 50.3253C143.997 51.8066 142.795 53.0166 141.306 53.0166ZM141.306 48.778C140.448 48.778 139.759 49.4746 139.759 50.3326C139.759 51.1833 140.455 51.88 141.306 51.88C141.717 51.88 142.105 51.7186 142.399 51.4253C142.692 51.132 142.853 50.7433 142.853 50.3253C142.853 49.9073 142.692 49.526 142.399 49.2326C142.105 48.9393 141.717 48.778 141.306 48.778Z" fill="white"/>
<path d="M138.754 242.451C137.801 242.451 137.031 241.674 137.031 240.728V235.631C137.031 234.678 137.801 233.908 138.754 233.908H143.851C144.804 233.908 145.574 234.678 145.574 235.631V240.728C145.574 241.681 144.804 242.451 143.851 242.451H138.754ZM143.851 234.634H138.754C138.204 234.634 137.764 235.081 137.764 235.631V240.728C137.764 241.278 138.211 241.718 138.761 241.718H143.858C144.408 241.718 144.848 241.271 144.848 240.721V235.624C144.848 235.074 144.401 234.634 143.851 234.634Z" fill="white"/>
<path d="M108.049 235.463C107.844 235.463 107.683 235.301 107.683 235.096C107.683 234.891 107.844 234.729 108.049 234.729H112.955C113.161 234.729 113.322 234.891 113.322 235.096C113.322 235.301 113.161 235.463 112.955 235.463H108.049Z" fill="white"/>
<path d="M108.049 238.117C107.844 238.117 107.683 237.956 107.683 237.751C107.683 237.545 107.844 237.384 108.049 237.384H112.955C113.161 237.384 113.322 237.545 113.322 237.751C113.322 237.956 113.161 238.117 112.955 238.117H108.049Z" fill="white"/>
<path d="M108.049 240.801C107.844 240.801 107.683 240.64 107.683 240.435C107.683 240.229 107.844 240.068 108.049 240.068H112.955C113.161 240.068 113.322 240.229 113.322 240.435C113.322 240.64 113.161 240.801 112.955 240.801H108.049Z" fill="white"/>
<path d="M175.795 242.429C175.699 242.429 175.604 242.393 175.538 242.319L171.681 238.462L175.435 234.7C175.582 234.553 175.809 234.553 175.956 234.7C176.103 234.847 176.103 235.074 175.956 235.221L172.715 238.462L176.051 241.799C176.198 241.945 176.198 242.173 176.051 242.319C175.978 242.393 175.883 242.429 175.795 242.429Z" fill="white"/>
<path opacity="0.36" d="M190.909 75.0605H91.7107V107.547H190.909V75.0605Z" fill="#599AF2"/>
<path opacity="0.43" d="M136.481 81.631H100.863C100.292 81.631 99.8287 82.094 99.8287 82.665V88.649C99.8287 89.2201 100.292 89.683 100.863 89.683H136.481C137.052 89.683 137.515 89.2201 137.515 88.649V82.665C137.515 82.094 137.052 81.631 136.481 81.631Z" fill="white"/>
<path opacity="0.43" d="M156.046 94.1932H100.863C100.292 94.1932 99.8287 94.6561 99.8287 95.2272V97.1852C99.8287 97.7562 100.292 98.2192 100.863 98.2192H156.046C156.617 98.2192 157.08 97.7562 157.08 97.1852V95.2272C157.08 94.6561 156.617 94.1932 156.046 94.1932Z" fill="white"/>
<path opacity="0.43" d="M178.691 97.5372C176.66 97.5372 174.746 96.7452 173.309 95.3079C171.871 93.8705 171.079 91.9565 171.072 89.9252C171.072 87.8939 171.864 85.9799 173.301 84.5352C174.739 83.0979 176.653 82.3059 178.684 82.2985C180.715 82.2985 182.629 83.0905 184.067 84.5279C185.504 85.9652 186.296 87.8792 186.303 89.9105C186.303 91.9419 185.511 93.8559 184.074 95.3005C182.637 96.7379 180.723 97.5299 178.691 97.5372ZM178.691 83.7652C177.049 83.7652 175.501 84.4032 174.343 85.5692C173.184 86.7352 172.539 88.2752 172.546 89.9179C172.546 91.5605 173.184 93.1079 174.35 94.2665C175.509 95.4252 177.056 96.0632 178.699 96.0632C180.341 96.0632 181.889 95.4252 183.047 94.2592C184.206 93.0932 184.851 91.5532 184.844 89.9105C184.844 88.2679 184.206 86.7205 183.04 85.5619C181.881 84.4032 180.334 83.7652 178.691 83.7652Z" fill="white"/>
<path d="M120.237 119.339H103.833C101.986 119.339 100.489 120.836 100.489 122.683V139.088C100.489 140.935 101.986 142.432 103.833 142.432H120.237C122.084 142.432 123.581 140.935 123.581 139.088V122.683C123.581 120.836 122.084 119.339 120.237 119.339Z" fill="#023C5C"/>
<g opacity="0.36">
<path d="M117.018 130.999C117.018 133.749 114.789 135.986 112.039 135.986C109.289 135.986 107.052 133.757 107.052 131.007C107.052 128.257 109.281 126.02 112.031 126.02C114.781 126.02 117.018 128.249 117.018 130.999Z" fill="#599AF2"/>
</g>
<g opacity="0.26">
<path d="M141.416 122.933H128.436C127.974 122.933 127.6 123.307 127.6 123.769V126.24C127.6 126.702 127.974 127.076 128.436 127.076H141.416C141.878 127.076 142.252 126.702 142.252 126.24V123.769C142.252 123.307 141.878 122.933 141.416 122.933Z" fill="#03486E"/>
<path d="M127.607 133.441C127.204 133.441 126.874 133.111 126.874 132.708C126.874 132.305 127.204 131.975 127.607 131.975L152.614 131.96C153.017 131.96 153.347 132.29 153.347 132.693C153.347 133.097 153.017 133.427 152.614 133.427L127.607 133.441Z" fill="#03486E"/>
<path d="M127.607 138.67C127.204 138.67 126.874 138.34 126.874 137.937C126.874 137.533 127.204 137.203 127.607 137.203L168.388 137.189C168.791 137.189 169.121 137.519 169.121 137.922C169.121 138.325 168.791 138.655 168.388 138.655L127.607 138.67Z" fill="#03486E"/>
<path d="M158.187 133.427C157.784 133.427 157.454 133.097 157.454 132.693C157.454 132.29 157.784 131.96 158.187 131.96H183.194C183.597 131.953 183.927 132.275 183.927 132.679C183.927 133.082 183.597 133.412 183.194 133.412H158.187V133.427Z" fill="#03486E"/>
</g>
<path d="M120.274 186.52H103.869C102.022 186.52 100.525 188.017 100.525 189.864V206.269C100.525 208.116 102.022 209.613 103.869 209.613H120.274C122.121 209.613 123.618 208.116 123.618 206.269V189.864C123.618 188.017 122.121 186.52 120.274 186.52Z" fill="#599AF2"/>
<g opacity="0.57">
<path d="M117.047 198.173C117.047 200.923 114.818 203.159 112.068 203.159C109.318 203.159 107.081 200.93 107.081 198.18C107.081 195.43 109.311 193.193 112.061 193.193C114.811 193.193 117.047 195.423 117.047 198.173Z" fill="#03486E"/>
</g>
<g opacity="0.26">
<path d="M141.445 190.106H128.465C128.004 190.106 127.629 190.48 127.629 190.942V193.413C127.629 193.875 128.004 194.249 128.465 194.249H141.445C141.907 194.249 142.281 193.875 142.281 193.413V190.942C142.281 190.48 141.907 190.106 141.445 190.106Z" fill="#03486E"/>
<path d="M127.637 200.615C127.233 200.615 126.903 200.285 126.903 199.881C126.903 199.478 127.233 199.148 127.637 199.148H152.643V199.141C153.047 199.141 153.377 199.471 153.377 199.874C153.377 200.277 153.047 200.607 152.643 200.607H127.637V200.615Z" fill="#03486E"/>
<path d="M127.637 205.85C127.233 205.85 126.903 205.52 126.903 205.117C126.903 204.714 127.233 204.384 127.637 204.384L168.417 204.369C168.821 204.369 169.151 204.699 169.151 205.102C169.151 205.506 168.821 205.836 168.417 205.836L127.637 205.85Z" fill="#03486E"/>
<path d="M158.217 200.6C157.813 200.6 157.483 200.27 157.483 199.867C157.483 199.463 157.813 199.133 158.217 199.133H183.223C183.627 199.126 183.957 199.449 183.957 199.859C183.957 200.27 183.627 200.593 183.223 200.593H158.217V200.6Z" fill="#03486E"/>
</g>
<path d="M120.259 152.853H103.855C102.008 152.853 100.511 154.35 100.511 156.197V172.601C100.511 174.448 102.008 175.945 103.855 175.945H120.259C122.106 175.945 123.603 174.448 123.603 172.601V156.197C123.603 154.35 122.106 152.853 120.259 152.853Z" fill="#F7A9B4"/>
<path opacity="0.43" d="M117.033 164.505C117.033 167.255 114.803 169.492 112.053 169.492C109.303 169.492 107.067 167.263 107.067 164.513C107.067 161.763 109.296 159.526 112.046 159.526C114.796 159.526 117.033 161.755 117.033 164.505Z" fill="white"/>
<g opacity="0.26">
<path d="M141.431 156.438H128.451C127.989 156.438 127.615 156.813 127.615 157.274V159.746C127.615 160.207 127.989 160.582 128.451 160.582H141.431C141.892 160.582 142.267 160.207 142.267 159.746V157.274C142.267 156.813 141.892 156.438 141.431 156.438Z" fill="#03486E"/>
<path d="M127.622 166.947C127.219 166.947 126.889 166.617 126.889 166.214C126.889 165.81 127.219 165.48 127.622 165.48H139.187C139.59 165.48 139.92 165.81 139.92 166.214C139.92 166.617 139.59 166.947 139.187 166.947H127.622Z" fill="#03486E"/>
<path d="M127.622 172.183C127.219 172.183 126.889 171.853 126.889 171.45C126.889 171.046 127.219 170.716 127.622 170.716H151.36V170.709C151.763 170.709 152.093 171.039 152.093 171.442C152.093 171.846 151.763 172.176 151.36 172.176H127.622V172.183Z" fill="#03486E"/>
<path d="M144.027 166.94C143.623 166.94 143.293 166.61 143.293 166.206C143.293 165.803 143.623 165.473 144.027 165.473H167.127C167.53 165.466 167.86 165.788 167.86 166.199C167.86 166.61 167.53 166.932 167.127 166.932H144.027V166.94Z" fill="#03486E"/>
<path d="M171.424 166.932C171.021 166.932 170.691 166.602 170.691 166.199C170.691 165.796 171.021 165.466 171.424 165.466H182.989C183.392 165.466 183.722 165.788 183.722 166.192C183.722 166.595 183.392 166.925 182.989 166.925H171.424V166.932Z" fill="#03486E"/>
</g>
<path opacity="0.39" d="M263.704 173.788L216.796 174.361C215.407 174.378 214.295 175.518 214.312 176.907L215.277 255.91C215.294 257.299 216.434 258.411 217.823 258.394L264.731 257.821C266.12 257.804 267.232 256.665 267.215 255.275L266.25 176.272C266.233 174.883 265.093 173.771 263.704 173.788Z" fill="white"/>
<path opacity="0.39" d="M263.704 173.788L216.796 174.361C215.407 174.378 214.295 175.518 214.312 176.907L215.277 255.91C215.294 257.299 216.434 258.411 217.823 258.394L264.731 257.821C266.12 257.804 267.232 256.665 267.215 255.275L266.25 176.272C266.233 174.883 265.093 173.771 263.704 173.788Z" fill="#F7A9B4"/>
<path d="M266.413 176.261L266.464 180.331L214.529 180.961L214.478 176.767C214.463 175.432 215.527 174.347 216.861 174.325L263.853 173.753C265.254 173.738 266.398 174.86 266.42 176.253L266.413 176.261Z" fill="#F7A9B4"/>
<path d="M218.042 178.585C217.455 178.585 216.971 178.116 216.964 177.522C216.964 176.935 217.433 176.451 218.027 176.444C218.614 176.444 219.098 176.913 219.105 177.507C219.105 178.094 218.636 178.578 218.042 178.585ZM218.027 176.877C217.675 176.877 217.389 177.17 217.389 177.522C217.389 177.874 217.683 178.16 218.035 178.16C218.387 178.16 218.673 177.867 218.673 177.515C218.673 177.163 218.379 176.877 218.027 176.877Z" fill="white"/>
<path d="M221.613 178.556C221.027 178.556 220.543 178.087 220.535 177.493C220.528 176.899 221.005 176.422 221.599 176.415C222.185 176.415 222.669 176.884 222.677 177.478C222.677 178.065 222.207 178.549 221.613 178.556ZM221.599 176.847C221.247 176.847 220.961 177.141 220.961 177.493C220.961 177.845 221.254 178.131 221.606 178.131C221.958 178.131 222.244 177.837 222.244 177.485C222.244 177.133 221.951 176.847 221.599 176.847Z" fill="white"/>
<path d="M225.089 178.534C224.503 178.534 224.019 178.065 224.011 177.471C224.011 176.884 224.481 176.4 225.075 176.393C225.661 176.393 226.145 176.862 226.153 177.456C226.153 178.043 225.683 178.527 225.089 178.534ZM225.075 176.825C224.723 176.825 224.437 177.119 224.437 177.471C224.437 177.823 224.73 178.109 225.082 178.109C225.434 178.109 225.72 177.815 225.72 177.463C225.72 177.111 225.427 176.825 225.075 176.825Z" fill="white"/>
<path d="M242.975 188.383L218.973 188.566C218.739 188.566 218.541 188.375 218.541 188.141C218.541 187.906 218.731 187.708 218.966 187.708L242.968 187.525C243.203 187.525 243.401 187.715 243.401 187.95C243.401 188.185 243.21 188.383 242.975 188.383Z" fill="white"/>
<path d="M250.976 188.324L245.997 188.361C245.762 188.361 245.564 188.17 245.564 187.935C245.564 187.701 245.755 187.503 245.989 187.503L250.969 187.466C251.203 187.466 251.401 187.657 251.401 187.891C251.401 188.126 251.211 188.324 250.976 188.324Z" fill="white"/>
<path d="M243.129 208.307L219.127 208.491C218.893 208.491 218.695 208.3 218.695 208.065C218.695 207.831 218.885 207.633 219.12 207.633L243.122 207.449C243.357 207.449 243.555 207.64 243.555 207.875C243.555 208.109 243.364 208.307 243.129 208.307Z" fill="white"/>
<path d="M251.13 208.249L246.151 208.285C245.916 208.285 245.718 208.095 245.718 207.86C245.718 207.625 245.909 207.427 246.143 207.427L251.123 207.391C251.357 207.391 251.555 207.581 251.555 207.816C251.555 208.051 251.365 208.249 251.13 208.249Z" fill="white"/>
<path d="M243.049 197.894L219.047 198.077C218.812 198.077 218.614 197.887 218.614 197.652C218.614 197.417 218.805 197.219 219.039 197.219L243.041 197.036C243.276 197.036 243.474 197.227 243.474 197.461C243.474 197.696 243.283 197.894 243.049 197.894Z" fill="white"/>
<path d="M251.049 197.835L246.07 197.872C245.835 197.872 245.637 197.681 245.637 197.447C245.637 197.212 245.828 197.014 246.063 197.014L251.042 196.977C251.277 196.977 251.475 197.168 251.475 197.403C251.475 197.637 251.284 197.835 251.049 197.835Z" fill="white"/>
<path d="M259.255 197.769L254.276 197.806C254.041 197.806 253.843 197.615 253.843 197.381C253.843 197.146 254.034 196.948 254.269 196.948L259.248 196.911C259.483 196.911 259.681 197.102 259.681 197.337C259.681 197.572 259.49 197.769 259.255 197.769Z" fill="white"/>
<path d="M235.011 193.12L219.01 193.245C218.775 193.245 218.577 193.054 218.577 192.819C218.577 192.585 218.768 192.387 219.003 192.387L235.004 192.262C235.239 192.262 235.437 192.453 235.437 192.687C235.437 192.922 235.246 193.12 235.011 193.12Z" fill="white"/>
<path d="M244.977 193.047L237.959 193.098C237.725 193.098 237.527 192.907 237.527 192.673C237.527 192.438 237.717 192.24 237.952 192.24L244.97 192.189C245.205 192.189 245.403 192.379 245.403 192.614C245.403 192.849 245.212 193.047 244.977 193.047Z" fill="white"/>
<path d="M245.051 203.071L229.049 203.196C228.815 203.196 228.617 203.005 228.617 202.771C228.617 202.536 228.807 202.338 229.042 202.338L245.043 202.214C245.278 202.214 245.476 202.404 245.476 202.639C245.476 202.873 245.285 203.071 245.051 203.071Z" fill="white"/>
<path d="M226.109 203.211L219.091 203.262C218.856 203.262 218.658 203.071 218.658 202.837C218.658 202.602 218.849 202.404 219.083 202.404L226.101 202.353C226.336 202.353 226.534 202.543 226.534 202.778C226.534 203.013 226.343 203.211 226.109 203.211Z" fill="white"/>
<path d="M243.181 215.025L219.179 215.208C218.944 215.208 218.746 215.017 218.746 214.783C218.746 214.548 218.937 214.35 219.171 214.35L243.173 214.167C243.408 214.167 243.606 214.357 243.606 214.592C243.606 214.827 243.415 215.025 243.181 215.025Z" fill="white"/>
<path d="M251.181 214.966L246.202 215.003C245.967 215.003 245.769 214.812 245.769 214.577C245.769 214.343 245.96 214.145 246.195 214.145L251.174 214.108C251.409 214.108 251.607 214.299 251.607 214.533C251.607 214.768 251.416 214.966 251.181 214.966Z" fill="white"/>
<path d="M243.327 234.949L219.325 235.133C219.091 235.133 218.893 234.942 218.893 234.707C218.893 234.473 219.083 234.275 219.318 234.275L243.32 234.091C243.555 234.091 243.753 234.282 243.753 234.517C243.753 234.751 243.562 234.949 243.327 234.949Z" fill="white"/>
<path d="M251.328 234.891L246.349 234.927C246.114 234.927 245.916 234.737 245.916 234.502C245.916 234.267 246.107 234.069 246.341 234.069L251.321 234.033C251.555 234.033 251.753 234.223 251.753 234.458C251.753 234.693 251.563 234.891 251.328 234.891Z" fill="white"/>
<path d="M243.254 224.536L219.252 224.719C219.017 224.719 218.819 224.529 218.819 224.294C218.819 224.059 219.01 223.861 219.245 223.861L243.247 223.678C243.481 223.678 243.679 223.869 243.679 224.103C243.679 224.338 243.489 224.536 243.254 224.536Z" fill="white"/>
<path d="M251.255 224.477L246.275 224.514C246.041 224.514 245.843 224.323 245.843 224.089C245.843 223.854 246.033 223.656 246.268 223.656L251.247 223.619C251.482 223.619 251.68 223.81 251.68 224.045C251.68 224.279 251.489 224.477 251.255 224.477Z" fill="white"/>
<path d="M259.453 224.411L254.474 224.448C254.239 224.448 254.041 224.257 254.041 224.023C254.041 223.788 254.232 223.59 254.467 223.59L259.446 223.553C259.681 223.553 259.879 223.744 259.879 223.979C259.879 224.213 259.688 224.411 259.453 224.411Z" fill="white"/>
<path d="M235.217 219.77L219.215 219.894C218.981 219.894 218.783 219.704 218.783 219.469C218.783 219.234 218.973 219.036 219.208 219.036L235.209 218.911C235.444 218.911 235.642 219.102 235.642 219.337C235.642 219.572 235.451 219.77 235.217 219.77Z" fill="white"/>
<path d="M245.175 219.689L238.157 219.74C237.923 219.74 237.725 219.549 237.725 219.315C237.725 219.08 237.915 218.882 238.15 218.882L245.168 218.831C245.403 218.831 245.601 219.021 245.601 219.256C245.601 219.491 245.41 219.689 245.175 219.689Z" fill="white"/>
<path d="M245.256 229.713L229.255 229.838C229.02 229.838 228.822 229.647 228.822 229.413C228.822 229.178 229.013 228.98 229.247 228.98L245.249 228.855C245.483 228.855 245.681 229.046 245.681 229.281C245.681 229.515 245.491 229.713 245.256 229.713Z" fill="white"/>
<path d="M226.307 229.853L219.289 229.904C219.054 229.904 218.856 229.713 218.856 229.479C218.856 229.244 219.047 229.046 219.281 229.046L226.299 228.995C226.534 228.995 226.732 229.185 226.732 229.42C226.732 229.655 226.541 229.853 226.307 229.853Z" fill="white"/>
<path d="M243.379 241.117L219.377 241.3C219.142 241.3 218.944 241.109 218.944 240.875C218.944 240.64 219.135 240.442 219.369 240.442L243.371 240.259C243.606 240.259 243.804 240.449 243.804 240.684C243.804 240.919 243.613 241.117 243.379 241.117Z" fill="white"/>
<path d="M251.379 241.051L246.4 241.087C246.165 241.087 245.967 240.897 245.967 240.662C245.967 240.427 246.158 240.229 246.393 240.229L251.372 240.193C251.607 240.193 251.805 240.383 251.805 240.618C251.805 240.853 251.614 241.051 251.379 241.051Z" fill="white"/>
<path d="M251.475 253.635L246.495 253.671C246.261 253.671 246.063 253.481 246.063 253.246C246.063 253.011 246.253 252.813 246.488 252.813L251.467 252.777C251.702 252.777 251.9 252.967 251.9 253.202C251.9 253.437 251.709 253.635 251.475 253.635Z" fill="white"/>
<path d="M259.673 253.576L254.694 253.613C254.459 253.613 254.261 253.422 254.261 253.187C254.261 252.953 254.452 252.755 254.687 252.755L259.666 252.718C259.901 252.718 260.099 252.909 260.099 253.143C260.099 253.378 259.908 253.576 259.673 253.576Z" fill="white"/>
<path d="M235.415 245.854L219.413 245.979C219.179 245.979 218.981 245.788 218.981 245.553C218.981 245.319 219.171 245.121 219.406 245.121L235.407 244.996C235.642 244.996 235.84 245.187 235.84 245.421C235.84 245.656 235.649 245.854 235.415 245.854Z" fill="white"/>
<path d="M245.373 245.781L238.355 245.832C238.121 245.832 237.923 245.641 237.923 245.407C237.923 245.172 238.113 244.974 238.348 244.974L245.366 244.923C245.601 244.923 245.799 245.113 245.799 245.348C245.799 245.583 245.608 245.781 245.373 245.781Z" fill="white"/>
<path opacity="0.22" d="M278.323 53.2929L221.845 53.8745C220.456 53.8888 219.341 55.0265 219.355 56.4156L220.328 150.908C220.343 152.297 221.481 153.412 222.87 153.397L279.348 152.816C280.737 152.801 281.852 151.664 281.837 150.275L280.864 55.7822C280.85 54.3931 279.712 53.2786 278.323 53.2929Z" fill="#03486E"/>
<path d="M274.956 48.9278L218.478 49.5094C217.089 49.5237 215.974 50.6614 215.989 52.0505L216.962 146.543C216.976 147.932 218.114 149.046 219.503 149.032L275.981 148.451C277.37 148.436 278.485 147.299 278.47 145.909L277.497 51.4171C277.483 50.028 276.345 48.9135 274.956 48.9278Z" fill="#FAFAFA"/>
<path d="M277.699 51.4032L277.75 56.6906L216.238 57.3212L216.179 51.9092C216.165 50.5746 217.235 49.4892 218.563 49.4746L275.125 48.8952C276.525 48.8806 277.669 50.0026 277.684 51.4032H277.699Z" fill="#599AF2"/>
<path d="M270.109 52.1219C269.911 52.1219 269.742 51.9606 269.742 51.7552C269.742 51.5499 269.903 51.3886 270.109 51.3886L274.721 51.3445C274.897 51.3152 275.088 51.5059 275.088 51.7112C275.088 51.9165 274.927 52.0779 274.721 52.0779L270.109 52.1219Z" fill="white"/>
<path d="M270.123 53.2951C269.925 53.2951 269.757 53.1338 269.757 52.9284C269.757 52.7231 269.918 52.5618 270.123 52.5618L274.736 52.5178C274.905 52.5178 275.103 52.6791 275.103 52.8844C275.103 53.0898 274.941 53.2511 274.736 53.2511L270.123 53.2951Z" fill="white"/>
<path d="M270.138 54.4759C269.94 54.4759 269.771 54.3145 269.771 54.1092C269.771 53.9039 269.933 53.7425 270.138 53.7425L274.751 53.6985C274.949 53.6985 275.117 53.8599 275.117 54.0652C275.117 54.2705 274.956 54.4319 274.751 54.4319L270.138 54.4759Z" fill="white"/>
<path d="M221.723 55.7006C221.628 55.7006 221.54 55.6639 221.467 55.5979L219.773 53.9406C219.575 53.7426 219.567 53.4199 219.765 53.2219L221.364 51.5939C221.511 51.4472 221.738 51.4472 221.885 51.5939C222.031 51.7332 222.031 51.9679 221.885 52.1146L220.447 53.5812L221.98 55.0846C222.127 55.2239 222.127 55.4586 221.98 55.6052C221.907 55.6786 221.811 55.7152 221.716 55.7152L221.723 55.7006Z" fill="white"/>
<path opacity="0.36" d="M275.836 148.636L219.171 148.959C217.807 148.966 216.693 147.866 216.685 146.495L216.575 126.856L278.19 126.511L278.3 146.15C278.307 147.514 277.207 148.629 275.836 148.636Z" fill="#599AF2"/>
<path d="M259.414 66.3773L234.665 66.5156C234.211 66.5181 233.845 66.8879 233.848 67.3415L233.863 70.0474C233.866 70.501 234.235 70.8667 234.689 70.8642L259.439 70.7259C259.892 70.7234 260.258 70.3536 260.255 69.9L260.24 67.1941C260.238 66.7405 259.868 66.3748 259.414 66.3773Z" fill="#4C65BA"/>
<path opacity="0.32" d="M226.949 80.8803L267.289 80.655C269.203 80.6444 270.767 82.1903 270.777 84.1043L270.782 84.9549C270.793 86.8689 269.247 88.4322 267.333 88.4429L226.993 88.6682C225.079 88.6789 223.516 87.133 223.505 85.219L223.5 84.3683C223.49 82.4544 225.035 80.891 226.949 80.8803Z" fill="#599AF2"/>
<path opacity="0.43" d="M229.981 84.7771C229.988 86.1044 228.917 87.1824 227.597 87.1898C226.27 87.1971 225.192 86.1264 225.185 84.8064C225.177 83.4864 226.248 82.4011 227.568 82.3938C228.895 82.3864 229.973 83.4571 229.981 84.7771Z" fill="white"/>
<path d="M228.441 84.1024C228.441 84.5791 228.059 84.9678 227.583 84.9678C227.106 84.9678 226.717 84.5864 226.717 84.1098C226.717 83.6331 227.099 83.2444 227.575 83.2444C228.052 83.2444 228.441 83.6258 228.441 84.1024Z" fill="white"/>
<path d="M228.873 86.3317L226.314 86.3464V86.031C226.314 85.2904 226.908 84.6817 227.649 84.6744C228.323 84.6744 228.866 85.2097 228.873 85.8844V86.3317Z" fill="white"/>
<path opacity="0.32" d="M227.02 93.5739L267.36 93.3486C269.274 93.3379 270.838 94.8839 270.848 96.7978L270.853 97.6485C270.864 99.5624 269.318 101.126 267.404 101.136L227.064 101.362C225.15 101.372 223.587 99.8265 223.576 97.9125L223.571 97.0619C223.56 95.1479 225.106 93.5846 227.02 93.5739Z" fill="#599AF2"/>
<path opacity="0.43" d="M230.054 97.4714C230.061 98.7988 228.991 99.8768 227.671 99.8841C226.343 99.8914 225.265 98.8208 225.258 97.5008C225.251 96.1734 226.321 95.0954 227.641 95.0881C228.969 95.0808 230.047 96.1514 230.054 97.4714Z" fill="white"/>
<path d="M226.843 97.0949L228.456 97.0859C228.588 97.0852 228.691 97.1873 228.692 97.3193L228.7 98.7493C228.701 98.8813 228.599 98.9845 228.467 98.9852L226.853 98.9942C226.721 98.995 226.618 98.8929 226.617 98.7609L226.609 97.3309C226.609 97.1989 226.711 97.0957 226.843 97.0949Z" fill="white"/>
<path d="M226.813 97.2661V96.6721C226.813 96.5181 226.871 96.3714 226.981 96.2541C227.091 96.1441 227.238 96.0781 227.392 96.0781H227.935C228.074 96.0781 228.206 96.1294 228.309 96.2321C228.411 96.3347 228.463 96.4667 228.463 96.6061V97.2587H228.287V96.6061C228.287 96.5107 228.243 96.4301 228.184 96.3641C228.118 96.2981 228.037 96.2614 227.942 96.2614H227.392C227.282 96.2614 227.179 96.3054 227.106 96.3861C227.033 96.4594 226.989 96.5621 226.989 96.6721V97.2661H226.805H226.813Z" fill="white"/>
<path d="M256.791 115.313L239.389 115.409C237.285 115.423 235.569 113.722 235.554 111.617C235.539 109.513 237.241 107.797 239.345 107.782L256.747 107.687C258.852 107.672 260.568 109.373 260.583 111.478C260.597 113.583 258.896 115.299 256.791 115.313Z" fill="#F7A9B4"/>
<path d="M230.589 134.952C230.186 134.952 229.856 134.629 229.856 134.226C229.856 133.822 230.179 133.493 230.582 133.485L264.257 133.294C264.66 133.294 264.99 133.617 264.99 134.02C264.99 134.424 264.667 134.754 264.264 134.761L230.589 134.952Z" fill="white"/>
<path d="M237.439 140.019C237.035 140.019 236.705 139.697 236.705 139.293C236.705 138.89 237.028 138.56 237.431 138.553L257.451 138.443C257.855 138.443 258.185 138.765 258.185 139.169C258.185 139.572 257.862 139.902 257.459 139.909L237.439 140.019Z" fill="white"/>
<path opacity="0.22" d="M235.316 117.452L178.838 118.033C177.449 118.048 176.334 119.185 176.348 120.575L177.321 215.067C177.336 216.456 178.473 217.57 179.863 217.556L236.341 216.975C237.73 216.96 238.844 215.823 238.83 214.433L237.857 119.941C237.843 118.552 236.705 117.438 235.316 117.452Z" fill="#03486E"/>
<path d="M231.956 113.072L175.478 113.654C174.089 113.668 172.974 114.806 172.989 116.195L173.962 210.687C173.976 212.076 175.114 213.191 176.503 213.176L232.981 212.595C234.37 212.58 235.485 211.443 235.471 210.054L234.497 115.561C234.483 114.172 233.345 113.058 231.956 113.072Z" fill="white"/>
<path opacity="0.42" d="M231.956 113.072L175.478 113.654C174.089 113.668 172.974 114.806 172.989 116.195L173.962 210.687C173.976 212.076 175.114 213.191 176.503 213.176L232.981 212.595C234.37 212.58 235.485 211.443 235.471 210.054L234.497 115.561C234.483 114.172 233.345 113.058 231.956 113.072Z" fill="#599AF2"/>
<path d="M234.696 115.548L234.747 120.835L173.235 121.466L173.177 116.054C173.162 114.719 174.233 113.634 175.56 113.619L232.122 113.04C233.523 113.025 234.667 114.147 234.681 115.548H234.696Z" fill="#599AF2"/>
<path d="M227.106 116.267C226.908 116.267 226.739 116.105 226.739 115.9C226.739 115.695 226.901 115.533 227.106 115.533L231.719 115.489C231.887 115.489 232.085 115.651 232.085 115.856C232.085 116.061 231.924 116.223 231.719 116.223L227.106 116.267Z" fill="white"/>
<path d="M227.113 117.44C226.915 117.44 226.747 117.279 226.747 117.073C226.747 116.868 226.908 116.707 227.113 116.707L231.726 116.663C231.924 116.663 232.093 116.824 232.093 117.029C232.093 117.235 231.931 117.396 231.726 117.396L227.113 117.44Z" fill="white"/>
<path d="M227.128 118.621C226.93 118.621 226.761 118.459 226.761 118.254C226.761 118.049 226.923 117.887 227.128 117.887L231.741 117.843C231.939 117.843 232.107 118.005 232.107 118.21C232.107 118.415 231.946 118.577 231.741 118.577L227.128 118.621Z" fill="white"/>
<path d="M178.721 119.845C178.625 119.845 178.537 119.809 178.464 119.743L176.77 118.085C176.572 117.887 176.565 117.565 176.763 117.367L178.361 115.739C178.508 115.592 178.735 115.592 178.882 115.739C179.029 115.878 179.029 116.113 178.882 116.259L177.445 117.726L178.977 119.229C179.124 119.369 179.124 119.603 178.977 119.75C178.904 119.823 178.809 119.86 178.713 119.86L178.721 119.845Z" fill="white"/>
<g opacity="0.36">
<path d="M232.826 212.78L176.161 213.103C174.797 213.11 173.683 212.01 173.675 210.639L173.565 191L235.18 190.656L235.29 210.294C235.297 211.658 234.197 212.773 232.826 212.78Z" fill="white"/>
<path d="M176.147 213.463C175.391 213.463 174.687 213.169 174.152 212.641C173.609 212.106 173.316 211.395 173.309 210.639L173.199 190.634L235.547 190.282L235.657 210.287C235.664 211.857 234.395 213.133 232.833 213.147L176.169 213.47H176.154L176.147 213.463ZM173.932 191.367L174.042 210.639C174.042 211.204 174.269 211.732 174.665 212.128C175.061 212.524 175.589 212.737 176.147 212.737H176.161L232.826 212.414C233.985 212.414 234.931 211.453 234.923 210.295L234.813 191.023L173.932 191.367Z" fill="white"/>
</g>
<path d="M182.315 134.545L182.32 130.116C182.321 129.324 182.96 128.687 183.752 128.688L228.17 128.742C228.962 128.743 229.599 129.382 229.598 130.174L229.593 134.603C229.592 135.395 228.953 136.032 228.161 136.031L183.743 135.977C182.951 135.976 182.314 135.337 182.315 134.545Z" fill="white"/>
<path d="M228.382 141.691L183.524 141.633C182.857 141.633 182.314 141.09 182.314 140.423C182.314 139.755 182.857 139.213 183.524 139.213L228.382 139.271C229.049 139.271 229.592 139.814 229.592 140.481C229.592 141.149 229.049 141.691 228.382 141.691Z" fill="white"/>
<path d="M228.375 147.265L183.517 147.206C182.849 147.206 182.307 146.663 182.307 145.996C182.307 145.329 182.849 144.786 183.517 144.786L228.375 144.845C229.042 144.845 229.585 145.387 229.585 146.055C229.585 146.722 229.042 147.265 228.375 147.265Z" fill="white"/>
<path d="M188.379 155.427C188.379 157.106 187.015 158.463 185.335 158.463C183.656 158.463 182.299 157.099 182.299 155.419C182.299 153.74 183.663 152.383 185.343 152.383C187.022 152.383 188.379 153.747 188.379 155.427Z" fill="#F7A9B4"/>
<path d="M188.364 169.221C188.364 170.9 187 172.257 185.321 172.257C183.641 172.257 182.285 170.893 182.285 169.213C182.285 167.534 183.649 166.177 185.328 166.177C187.007 166.177 188.364 167.541 188.364 169.221Z" fill="#F7A9B4"/>
<path d="M188.342 182.597C188.342 184.276 186.978 185.64 185.299 185.633C183.619 185.633 182.263 184.269 182.263 182.589C182.263 180.91 183.627 179.553 185.306 179.553C186.985 179.553 188.342 180.917 188.342 182.597Z" fill="#F7A9B4"/>
<path d="M219.201 154.349L190.102 154.312C189.897 154.312 189.735 154.151 189.735 153.945C189.735 153.74 189.897 153.579 190.102 153.579L219.201 153.615C219.406 153.615 219.567 153.777 219.567 153.982C219.567 154.187 219.406 154.349 219.201 154.349Z" fill="white"/>
<path d="M204.651 157.429L190.102 157.414C189.897 157.414 189.735 157.253 189.735 157.047C189.735 156.842 189.897 156.681 190.102 156.681L204.651 156.695C204.857 156.695 205.018 156.857 205.018 157.062C205.018 157.267 204.857 157.429 204.651 157.429Z" fill="white"/>
<path d="M219.186 168.59L190.087 168.553C189.882 168.553 189.721 168.392 189.721 168.187C189.721 167.981 189.882 167.82 190.087 167.82L219.186 167.857C219.391 167.857 219.553 168.018 219.553 168.223C219.553 168.429 219.391 168.59 219.186 168.59Z" fill="white"/>
<path d="M204.629 171.67L190.08 171.655C189.875 171.655 189.713 171.494 189.713 171.289C189.713 171.083 189.875 170.922 190.08 170.922L204.629 170.937C204.835 170.937 204.996 171.098 204.996 171.303C204.996 171.509 204.835 171.67 204.629 171.67Z" fill="white"/>
<path d="M219.164 181.592L190.065 181.555C189.86 181.555 189.699 181.394 189.699 181.189C189.699 180.983 189.86 180.822 190.065 180.822L219.164 180.859C219.369 180.859 219.531 181.02 219.531 181.225C219.531 181.431 219.369 181.592 219.164 181.592Z" fill="white"/>
<path d="M204.615 184.672L190.065 184.658C189.86 184.658 189.699 184.496 189.699 184.291C189.699 184.086 189.86 183.924 190.065 183.924L204.615 183.939C204.82 183.939 204.981 184.1 204.981 184.306C204.981 184.511 204.82 184.672 204.615 184.672Z" fill="white"/>
<path d="M187.579 199.097C187.176 199.097 186.846 198.774 186.846 198.371C186.846 197.967 187.169 197.637 187.572 197.63L221.247 197.439C221.65 197.439 221.98 197.762 221.98 198.165C221.98 198.569 221.657 198.899 221.254 198.906L187.579 199.097Z" fill="white"/>
<path d="M194.429 204.164C194.025 204.164 193.695 203.841 193.695 203.438C193.695 203.035 194.018 202.705 194.421 202.697L214.441 202.587C214.845 202.587 215.175 202.91 215.175 203.313C215.175 203.717 214.852 204.047 214.449 204.054L194.429 204.164Z" fill="white"/>
<path d="M104.581 82.174H52.008C51.3559 82.174 50.8273 82.7025 50.8273 83.3546V98.6373C50.8273 99.2893 51.3559 99.8179 52.008 99.8179H104.581C105.233 99.8179 105.761 99.2893 105.761 98.6373V83.3546C105.761 82.7025 105.233 82.174 104.581 82.174Z" fill="#599AF2"/>
<path d="M60.06 96.3418C56.9287 96.3418 54.3767 93.7971 54.3767 90.6584C54.3767 87.5198 56.9287 84.9751 60.06 84.9751C63.1914 84.9751 65.7434 87.5271 65.7434 90.6584C65.7434 93.7898 63.1914 96.3418 60.06 96.3418Z" fill="#F7A9B4"/>
<path d="M59.5614 92.7997L57.4347 89.859C57.2514 89.6097 57.31 89.2577 57.5594 89.0744C57.684 88.9864 57.8307 88.9497 57.9774 88.9717C58.124 88.9937 58.256 89.0744 58.344 89.199L59.6934 91.069L66.4474 84.315C66.55 84.2124 66.6894 84.1537 66.8434 84.1537C66.9901 84.1537 67.1367 84.2124 67.2394 84.315C67.4594 84.535 67.4594 84.887 67.2394 85.107L59.554 92.7924L59.5614 92.7997Z" fill="white"/>
<path opacity="0.38" d="M98.6627 88.4512H70.554C70.3487 88.4512 70.1874 88.2899 70.1874 88.0846C70.1874 87.8792 70.3487 87.7179 70.554 87.7179H98.6627C98.868 87.7179 99.0294 87.8792 99.0294 88.0846C99.0294 88.2899 98.868 88.4512 98.6627 88.4512Z" fill="white"/>
<path opacity="0.38" d="M83.1087 91.788H70.5467C70.3413 91.788 70.18 91.6266 70.18 91.4213C70.18 91.216 70.3413 91.0546 70.5467 91.0546H83.1087C83.314 91.0546 83.4753 91.216 83.4753 91.4213C83.4753 91.6266 83.314 91.788 83.1087 91.788Z" fill="white"/>
<path opacity="0.38" d="M98.6627 91.788H86.1007C85.8953 91.788 85.734 91.6266 85.734 91.4213C85.734 91.216 85.8953 91.0546 86.1007 91.0546H98.6627C98.868 91.0546 99.0293 91.216 99.0293 91.4213C99.0293 91.6266 98.868 91.788 98.6627 91.788Z" fill="white"/>
<path opacity="0.38" d="M98.6627 95.2784H70.554C70.3487 95.2784 70.1874 95.1171 70.1874 94.9118C70.1874 94.7064 70.3487 94.5451 70.554 94.5451H98.6627C98.868 94.5451 99.0294 94.7064 99.0294 94.9118C99.0294 95.1171 98.868 95.2784 98.6627 95.2784Z" fill="white"/>
<path d="M305.653 163.251H253.081C252.429 163.251 251.9 163.78 251.9 164.432V179.715C251.9 180.367 252.429 180.895 253.081 180.895H305.653C306.305 180.895 306.834 180.367 306.834 179.715V164.432C306.834 163.78 306.305 163.251 305.653 163.251Z" fill="#599AF2"/>
<path d="M261.133 177.419C258.001 177.419 255.449 174.867 255.449 171.736C255.449 168.604 258.001 166.052 261.133 166.052C264.264 166.052 266.816 168.604 266.816 171.736C266.816 174.867 264.264 177.419 261.133 177.419Z" fill="#F7A9B4"/>
<path d="M260.634 173.87L258.507 170.929C258.419 170.804 258.383 170.658 258.405 170.511C258.427 170.364 258.507 170.232 258.632 170.144C258.749 170.056 258.896 170.02 259.05 170.042C259.197 170.064 259.329 170.144 259.417 170.269L260.766 172.139L267.52 165.385C267.74 165.165 268.092 165.165 268.312 165.385C268.532 165.605 268.532 165.957 268.312 166.177L260.627 173.862L260.634 173.87Z" fill="white"/>
<path opacity="0.38" d="M299.728 169.521H271.619C271.414 169.521 271.253 169.36 271.253 169.155C271.253 168.949 271.414 168.788 271.619 168.788H299.728C299.933 168.788 300.095 168.949 300.095 169.155C300.095 169.36 299.933 169.521 299.728 169.521Z" fill="white"/>
<path opacity="0.38" d="M284.181 172.858H271.619C271.414 172.858 271.253 172.697 271.253 172.491C271.253 172.286 271.414 172.125 271.619 172.125H284.181C284.387 172.125 284.548 172.286 284.548 172.491C284.548 172.697 284.387 172.858 284.181 172.858Z" fill="white"/>
<path opacity="0.38" d="M299.728 172.858H287.166C286.961 172.858 286.799 172.697 286.799 172.491C286.799 172.286 286.961 172.125 287.166 172.125H299.728C299.933 172.125 300.095 172.286 300.095 172.491C300.095 172.697 299.933 172.858 299.728 172.858Z" fill="white"/>
<path opacity="0.38" d="M299.728 176.349H271.619C271.414 176.349 271.253 176.187 271.253 175.982C271.253 175.777 271.414 175.615 271.619 175.615H299.728C299.933 175.615 300.095 175.777 300.095 175.982C300.095 176.187 299.933 176.349 299.728 176.349Z" fill="white"/>
</svg>
