<svg width="330" height="302" viewBox="0 0 330 302" fill="none" xmlns="http://www.w3.org/2000/svg">
<path fill-rule="evenodd" clip-rule="evenodd" d="M141.219 16.1247C176.762 11.6654 214.473 10.595 243.413 31.7053C276.486 55.8298 303.533 92.9718 302.678 133.899C301.832 174.348 268.964 204.474 239.228 231.908C211.095 257.865 179.433 285.079 141.219 282.863C104.247 280.72 79.3208 248.147 53.9514 221.167C29.7393 195.418 -0.515809 169.205 1.14859 133.899C2.77921 99.3104 35.3055 76.7741 61.809 54.4893C85.1998 34.8217 110.896 19.9289 141.219 16.1247Z" fill="#F5F5F5"/>
<path opacity="0.96" d="M254.187 121.068C254.298 117.91 253.802 114.83 252.766 111.955L257.593 108.438L255.274 104.63L252.955 100.822L247.615 103.492C245.536 101.258 243.029 99.393 240.171 98.041L241.095 92.1453L236.765 91.0928L232.435 90.0403L230.544 95.705C227.387 95.5938 224.306 96.0901 221.431 97.1254L217.914 92.2994L214.106 94.6183L210.299 96.9372L212.968 102.277C210.735 104.356 208.87 106.863 207.518 109.721L201.622 108.797L200.569 113.127L199.517 117.457L205.182 119.348C205.07 122.505 205.567 125.586 206.602 128.461L201.776 131.978L204.095 135.785L206.414 139.593L211.753 136.923C213.833 139.157 216.34 141.022 219.198 142.374L218.274 148.27L222.603 149.322L226.933 150.375L228.824 144.71C231.982 144.822 235.062 144.325 237.937 143.29L241.454 148.116L245.262 145.797L249.07 143.478L246.4 138.139C248.633 136.059 250.499 133.552 251.851 130.694L257.747 131.618L258.799 127.288L259.852 122.959L254.187 121.068ZM226.249 134.314C218.453 132.414 213.67 124.559 215.57 116.763C217.469 108.968 225.325 104.185 233.12 106.084C240.915 107.984 245.698 115.839 243.799 123.635C241.899 131.43 234.044 136.213 226.249 134.314Z" fill="#E9EEF8"/>
<path opacity="0.96" d="M115.643 48.6079C115.728 46.2205 115.352 43.8759 114.564 41.7025L118.218 39.0327L116.464 36.1491L114.71 33.2654L110.662 35.2848C109.088 33.5905 107.188 32.1787 105.023 31.1518L105.725 26.6851L102.439 25.8894L99.1534 25.0936L97.7245 29.3806C95.3371 29.295 92.9925 29.6715 90.8191 30.4587L88.1493 26.8049L85.2656 28.5591L82.382 30.3133L84.4014 34.3607C82.7071 35.9351 81.2952 37.8348 80.2684 39.9997L75.8017 39.298L75.0059 42.5838L74.2101 45.8697L78.4971 47.2987C78.4116 49.686 78.7881 52.0306 79.5753 54.2041L75.9215 56.8738L77.6757 59.7575L79.4298 62.6412L83.4772 60.6217C85.0517 62.316 86.9513 63.7279 89.1162 64.7547L88.4146 69.2214L91.7004 70.0172L94.9862 70.813L96.4153 66.526C98.8026 66.6116 101.147 66.2351 103.321 65.4478L105.99 69.1016L108.874 67.3474L111.758 65.5933L109.738 61.5459C111.433 59.9714 112.844 58.0718 113.871 55.9069L118.338 56.6086L119.134 53.3227L119.93 50.0369L115.643 48.6079ZM94.4643 58.6451C88.56 57.2075 84.9319 51.252 86.3695 45.3477C87.807 39.4435 93.7626 35.8153 99.6669 37.2529C105.571 38.6905 109.199 44.646 107.762 50.5503C106.324 56.4545 100.369 60.0827 94.4643 58.6451Z" fill="#E9EEF8"/>
<path opacity="0.96" d="M113.204 245.023C113.289 242.635 112.913 240.291 112.126 238.117L115.78 235.447L114.025 232.564L112.271 229.68L108.224 231.7C106.649 230.005 104.75 228.593 102.585 227.567L103.286 223.1L100.001 222.304L96.7148 221.508L95.2858 225.795C92.8984 225.71 90.5538 226.086 88.3804 226.873L85.7106 223.22L82.827 224.974L79.9433 226.728L81.9627 230.775C80.2685 232.35 78.8566 234.249 77.8298 236.414L73.3631 235.713L72.5673 238.999L71.7715 242.284L76.0585 243.713C75.9729 246.101 76.3494 248.445 77.1366 250.619L73.4829 253.289L75.237 256.172L76.9912 259.056L81.0386 257.036C82.6131 258.731 84.5127 260.143 86.6776 261.169L85.9759 265.636L89.2618 266.432L92.5476 267.228L93.9766 262.941C96.364 263.026 98.7085 262.65 100.882 261.863L103.552 265.516L106.435 263.762L109.319 262.008L107.3 257.961C108.994 256.386 110.406 254.487 111.433 252.322L115.899 253.023L116.695 249.737L117.491 246.452L113.204 245.023ZM92.0256 255.06C86.1214 253.622 82.4933 247.667 83.9308 241.762C85.3684 235.858 91.324 232.23 97.2282 233.668C103.132 235.105 106.761 241.061 105.323 246.965C103.885 252.869 97.9299 256.497 92.0256 255.06Z" fill="#E9EEF8"/>
<g opacity="0.73">
<path d="M67.0633 140.708C66.704 140.708 66.3373 140.656 65.978 140.561L59.818 138.874C57.6473 138.28 56.3713 136.036 56.9653 133.866L59.026 126.342C55.2567 124.398 51.9273 121.817 49.104 118.649L42.328 122.514C41.382 123.056 40.282 123.188 39.2333 122.902C38.1847 122.616 37.3047 121.934 36.7693 120.988L33.6087 115.437C32.494 113.486 33.176 110.993 35.1267 109.878L41.9027 106.014C40.612 101.973 40.084 97.793 40.3333 93.5617L32.8093 91.501C30.6387 90.907 29.3627 88.663 29.9567 86.4923L31.6433 80.3323C32.2373 78.1617 34.4813 76.8857 36.652 77.4797L44.176 79.5403C46.1193 75.771 48.7007 72.4417 51.8687 69.6183L48.004 62.8423C47.4613 61.8963 47.3293 60.7963 47.6153 59.7477C47.9013 58.699 48.5833 57.819 49.5293 57.2837L55.0733 54.123C57.024 53.0083 59.5173 53.6903 60.632 55.641L64.4967 62.417C68.5373 61.1263 72.7173 60.5983 76.9487 60.8477L79.0093 53.3237C79.6033 51.153 81.8473 49.877 84.018 50.471L90.178 52.1577C92.3487 52.7517 93.6247 54.9957 93.0307 57.1663L90.97 64.6903C94.7393 66.6337 98.0687 69.215 100.892 72.383L107.668 68.5183C108.614 67.9757 109.714 67.8437 110.763 68.1297C111.811 68.4157 112.691 69.0977 113.227 70.0437L116.387 75.5877C116.93 76.5337 117.062 77.6337 116.776 78.6823C116.49 79.731 115.808 80.611 114.862 81.1463L108.086 85.011C109.377 89.0517 109.905 93.2317 109.655 97.463L117.179 99.5237C118.228 99.8097 119.108 100.492 119.643 101.438C120.186 102.384 120.318 103.484 120.032 104.532L118.345 110.692C117.751 112.863 115.507 114.139 113.337 113.545L105.813 111.484C103.869 115.254 101.288 118.583 98.12 121.406L101.985 128.182C102.527 129.128 102.659 130.228 102.373 131.277C102.087 132.326 101.405 133.206 100.459 133.741L94.9153 136.902C93.9693 137.444 92.8693 137.576 91.8207 137.29C90.772 137.004 89.892 136.322 89.3567 135.376L85.492 128.6C81.4513 129.891 77.2713 130.419 73.04 130.17L70.9793 137.694C70.6933 138.742 70.0113 139.622 69.0653 140.158C68.442 140.51 67.7527 140.693 67.056 140.693L67.0633 140.708ZM49.5953 115.84L50.1893 116.537C53.13 120.02 56.7013 122.785 60.808 124.772L61.6293 125.168L59.092 134.445C58.96 134.929 59.026 135.435 59.2753 135.868C59.5247 136.3 59.928 136.616 60.412 136.748L66.572 138.434C67.056 138.566 67.562 138.5 67.9947 138.251C68.4273 138.002 68.7427 137.598 68.8747 137.114L71.412 127.838L72.3213 127.911C76.868 128.292 81.3487 127.728 85.6533 126.232L86.5187 125.931L91.2853 134.284C91.5347 134.716 91.938 135.032 92.422 135.164C92.906 135.296 93.412 135.23 93.8447 134.98L99.3887 131.82C99.8213 131.57 100.137 131.167 100.269 130.683C100.401 130.199 100.335 129.693 100.085 129.26L95.3187 120.908L96.0153 120.314C99.4913 117.373 102.263 113.802 104.251 109.695L104.647 108.874L113.923 111.411C114.921 111.682 115.955 111.096 116.226 110.098L117.913 103.938C118.045 103.454 117.979 102.948 117.729 102.516C117.48 102.083 117.077 101.768 116.593 101.636L107.316 99.0983L107.389 98.189C107.771 93.6497 107.206 89.1617 105.71 84.857L105.409 83.9917L113.762 79.225C114.195 78.9757 114.51 78.5723 114.642 78.0883C114.774 77.6043 114.708 77.0983 114.459 76.6657L111.298 71.1217C111.049 70.689 110.645 70.3737 110.161 70.2417C109.677 70.1097 109.171 70.1757 108.739 70.425L100.386 75.1917L99.792 74.495C96.8513 71.0117 93.28 68.247 89.1733 66.2597L88.352 65.8637L90.8893 56.587C91.0213 56.103 90.9553 55.597 90.706 55.1643C90.4567 54.7317 90.0533 54.4163 89.5693 54.2843L83.4093 52.5977C82.412 52.3263 81.378 52.913 81.1067 53.9103L78.5693 63.187L77.66 63.1137C73.1133 62.7323 68.6327 63.297 64.328 64.793L63.4627 65.0937L58.696 56.741C58.4467 56.3083 58.0433 55.993 57.5593 55.861C57.0753 55.729 56.5693 55.795 56.1367 56.0443L50.5927 59.205C50.16 59.4543 49.8447 59.8577 49.7127 60.3417C49.5807 60.8257 49.6467 61.3317 49.896 61.7643L54.6627 70.117L53.966 70.711C50.4827 73.6517 47.718 77.223 45.7307 81.3297L45.3347 82.151L36.058 79.6137C35.574 79.4817 35.068 79.5477 34.6353 79.797C34.2027 80.0463 33.8873 80.4497 33.7553 80.9337L32.0687 87.0937C31.9367 87.5777 32.0027 88.0837 32.252 88.5163C32.5013 88.949 32.9047 89.2643 33.3887 89.3963L42.6653 91.9337L42.592 92.843C42.2107 97.3823 42.7753 101.87 44.2713 106.175L44.572 107.04L36.2193 111.807C35.7867 112.056 35.4713 112.46 35.3393 112.944C35.2073 113.428 35.2733 113.934 35.5227 114.366L38.6833 119.918C38.9327 120.35 39.336 120.666 39.82 120.798C40.304 120.93 40.81 120.864 41.2427 120.614L49.5953 115.848V115.84ZM75.0273 113.897C73.3993 113.897 71.764 113.677 70.1507 113.237C65.4207 111.939 61.468 108.881 59.0407 104.62C56.606 100.36 55.9827 95.4023 57.2807 90.6723C58.5787 85.935 61.6367 81.9897 65.8973 79.5623C70.158 77.1277 75.1153 76.5043 79.8453 77.8023C84.5753 79.1003 88.528 82.1583 90.9553 86.419C93.39 90.6797 94.0133 95.637 92.7153 100.367C91.4173 105.097 88.3593 109.05 84.0987 111.477C81.29 113.083 78.1733 113.897 75.0273 113.897ZM74.976 79.335C72.204 79.335 69.4613 80.0537 66.99 81.469C63.2353 83.6103 60.544 87.0863 59.4 91.2517C58.2633 95.417 58.8133 99.7803 60.9547 103.535C63.096 107.29 66.572 109.981 70.7373 111.125C74.9027 112.262 79.266 111.712 83.0207 109.57C86.7753 107.429 89.4667 103.953 90.6107 99.7877C91.7547 95.6223 91.1973 91.259 89.0633 87.5043C86.922 83.7497 83.446 81.0583 79.2807 79.9143C77.858 79.5257 76.4207 79.335 74.9833 79.335H74.976Z" fill="white"/>
</g>
<g opacity="0.69">
<path d="M245.388 92.0887L203.896 92.844C202.701 92.866 201.711 92.1107 201.689 91.1574L201.19 63.606C201.175 62.6527 202.136 61.8607 203.331 61.8387L244.823 61.0834C246.026 61.0614 247.009 61.8167 247.031 62.77L247.529 90.3214C247.544 91.2747 246.583 92.0667 245.388 92.0887ZM203.346 62.352C202.429 62.3667 201.696 62.924 201.711 63.5987L202.209 91.15C202.224 91.8174 202.979 92.3527 203.889 92.3307L245.381 91.5754C246.297 91.5607 247.031 91.0034 247.016 90.3287L246.517 62.7774C246.503 62.11 245.747 61.5747 244.838 61.5894L203.346 62.3447V62.352Z" fill="white"/>
<path d="M246.566 66.6703L201.518 67.488L201.527 68.0013L246.575 67.1835L246.566 66.6703Z" fill="white"/>
<path d="M204.769 66.0919C204.233 66.0992 203.793 65.6739 203.779 65.1385C203.771 64.6032 204.197 64.1632 204.732 64.1485C205.267 64.1412 205.707 64.5665 205.722 65.1019C205.729 65.6372 205.304 66.0772 204.769 66.0919ZM204.739 64.6692C204.49 64.6692 204.285 64.8819 204.292 65.1312C204.292 65.3805 204.505 65.5859 204.754 65.5785C205.003 65.5785 205.209 65.3659 205.201 65.1165C205.201 64.8672 204.989 64.6619 204.739 64.6692Z" fill="white"/>
<path d="M207.445 66.048C206.91 66.0554 206.47 65.63 206.455 65.0947C206.448 64.5594 206.873 64.1194 207.409 64.1047C207.944 64.0974 208.384 64.5227 208.399 65.058C208.406 65.5934 207.981 66.0334 207.445 66.048ZM207.416 64.6254C207.167 64.6254 206.961 64.838 206.969 65.0874C206.969 65.3367 207.181 65.542 207.431 65.5347C207.68 65.5347 207.885 65.322 207.878 65.0727C207.878 64.8234 207.665 64.618 207.416 64.6254Z" fill="white"/>
<path d="M210.063 65.9966C209.528 66.004 209.088 65.5786 209.073 65.0433C209.066 64.508 209.491 64.068 210.027 64.0533C210.562 64.046 211.002 64.4713 211.017 65.0066C211.024 65.542 210.599 65.982 210.063 65.9966ZM210.034 64.574C209.785 64.574 209.579 64.7866 209.587 65.036C209.587 65.2853 209.799 65.4906 210.049 65.4833C210.298 65.4833 210.503 65.2706 210.496 65.0213C210.496 64.772 210.283 64.5666 210.034 64.574Z" fill="white"/>
</g>
<g opacity="0.69">
<path d="M106.135 256.751L64.6434 257.507C63.448 257.529 62.458 256.773 62.436 255.82L61.9374 228.269C61.9227 227.315 62.8834 226.523 64.0787 226.501L105.571 225.746C106.773 225.724 107.756 226.479 107.778 227.433L108.277 254.984C108.291 255.937 107.331 256.729 106.135 256.751ZM64.0934 227.015C63.1767 227.029 62.4434 227.587 62.458 228.261L62.9567 255.813C62.9714 256.48 63.7267 257.015 64.636 257.001L106.128 256.245C107.045 256.231 107.778 255.673 107.763 254.999L107.265 227.447C107.25 226.78 106.495 226.245 105.585 226.259L64.0934 227.015Z" fill="white"/>
<path d="M107.318 231.325L62.2697 232.143L62.2791 232.656L107.328 231.839L107.318 231.325Z" fill="white"/>
<path d="M65.516 230.755C64.9807 230.762 64.5407 230.337 64.526 229.801C64.5187 229.266 64.944 228.826 65.4793 228.811C66.0147 228.804 66.4547 229.229 66.4693 229.765C66.4767 230.3 66.0513 230.74 65.516 230.755ZM65.4867 229.332C65.2373 229.332 65.032 229.545 65.0393 229.794C65.0393 230.043 65.252 230.249 65.5013 230.241C65.7507 230.234 65.956 230.029 65.9487 229.779C65.9487 229.53 65.736 229.325 65.4867 229.332Z" fill="white"/>
<path d="M68.1927 230.711C67.6574 230.718 67.2174 230.293 67.2027 229.758C67.1954 229.222 67.6207 228.782 68.156 228.768C68.6914 228.76 69.1314 229.186 69.146 229.721C69.1534 230.256 68.728 230.696 68.1927 230.711ZM68.1634 229.288C67.914 229.288 67.7087 229.501 67.716 229.75C67.7234 230 67.9287 230.205 68.178 230.198C68.4274 230.198 68.6327 229.985 68.6254 229.736C68.618 229.486 68.4127 229.281 68.1634 229.288Z" fill="white"/>
<path d="M70.818 230.66C70.2827 230.667 69.8427 230.241 69.828 229.706C69.8207 229.171 70.246 228.731 70.7813 228.716C71.3167 228.709 71.7567 229.134 71.7713 229.67C71.7787 230.205 71.3533 230.645 70.818 230.66ZM70.7887 229.237C70.5393 229.237 70.334 229.449 70.3413 229.699C70.3413 229.948 70.554 230.154 70.8033 230.146C71.0527 230.146 71.258 229.933 71.2507 229.684C71.2507 229.435 71.038 229.23 70.7887 229.237Z" fill="white"/>
</g>
<g opacity="0.55">
<path d="M278.535 178.805L274.245 175.366C275.667 172.704 276.481 169.829 276.701 166.933L282.172 166.331C283.206 166.214 283.947 165.29 283.837 164.256L283.397 160.245C283.287 159.211 282.355 158.47 281.321 158.58L275.851 159.181C275.007 156.402 273.592 153.769 271.619 151.481L275.059 147.191C275.711 146.377 275.579 145.197 274.765 144.544L271.612 142.021C270.798 141.369 269.617 141.501 268.965 142.315L265.525 146.605C262.863 145.182 259.989 144.368 257.092 144.148L256.491 138.685C256.381 137.651 255.449 136.91 254.415 137.02L250.404 137.46C249.37 137.577 248.629 138.501 248.739 139.535L249.341 145.006C246.561 145.849 243.929 147.265 241.641 149.237L237.351 145.798C236.537 145.145 235.356 145.277 234.703 146.091L232.181 149.245C231.528 150.059 231.66 151.239 232.474 151.892L236.764 155.331C235.341 157.993 234.527 160.868 234.307 163.765L228.844 164.366C227.81 164.483 227.069 165.407 227.179 166.441L227.619 170.453C227.737 171.487 228.661 172.227 229.695 172.117L235.165 171.516C236.009 174.295 237.424 176.928 239.397 179.216L235.957 183.506C235.305 184.32 235.437 185.501 236.251 186.153L239.404 188.676C240.218 189.329 241.399 189.197 242.051 188.383L245.491 184.093C248.153 185.515 251.027 186.329 253.924 186.549L254.525 192.013C254.643 193.047 255.567 193.787 256.601 193.677L260.612 193.237C261.646 193.12 262.387 192.196 262.277 191.162L261.675 185.699C264.455 184.855 267.087 183.44 269.375 181.467L273.665 184.907C274.479 185.559 275.66 185.427 276.313 184.613L278.835 181.46C279.488 180.646 279.356 179.465 278.542 178.813L278.535 178.805ZM248.673 173.863C243.965 170.093 243.21 163.222 246.987 158.514C250.756 153.806 257.627 153.051 262.335 156.827C267.043 160.597 267.799 167.468 264.029 172.176C260.26 176.884 253.389 177.639 248.681 173.87L248.673 173.863Z" fill="white"/>
<path d="M256.381 194.044C255.875 194.044 255.383 193.875 254.98 193.553C254.511 193.179 254.217 192.643 254.151 192.042L253.579 186.879C250.771 186.63 248.079 185.853 245.579 184.547L242.33 188.603C241.956 189.072 241.421 189.365 240.819 189.431C240.225 189.497 239.639 189.329 239.169 188.955L236.023 186.432C235.554 186.058 235.261 185.523 235.195 184.921C235.129 184.327 235.297 183.741 235.671 183.271L238.92 179.216C237.109 177.053 235.759 174.596 234.909 171.912L229.746 172.484C229.152 172.55 228.565 172.381 228.096 172C227.627 171.626 227.333 171.091 227.267 170.489L226.827 166.478C226.761 165.884 226.93 165.297 227.311 164.828C227.685 164.359 228.221 164.065 228.822 163.999L233.985 163.427C234.234 160.619 235.011 157.927 236.317 155.419L232.261 152.171C231.792 151.797 231.499 151.261 231.433 150.667C231.367 150.073 231.535 149.487 231.917 149.017L234.439 145.864C234.813 145.395 235.349 145.101 235.95 145.035C236.544 144.969 237.131 145.138 237.6 145.519L241.655 148.768C243.819 146.957 246.275 145.607 248.959 144.749L248.387 139.587C248.248 138.355 249.143 137.24 250.375 137.108L254.386 136.668C255.618 136.536 256.733 137.423 256.865 138.655L257.437 143.825C260.245 144.075 262.937 144.852 265.437 146.157L268.686 142.102C269.463 141.134 270.879 140.98 271.847 141.757L274.993 144.28C275.462 144.654 275.755 145.189 275.821 145.791C275.887 146.385 275.719 146.971 275.337 147.441L272.089 151.496C273.9 153.659 275.249 156.116 276.107 158.8L281.27 158.228C281.864 158.162 282.451 158.331 282.92 158.712C283.389 159.086 283.683 159.621 283.749 160.223L284.189 164.234C284.255 164.828 284.086 165.415 283.705 165.884C283.331 166.353 282.795 166.647 282.194 166.713L277.031 167.285C276.782 170.093 276.005 172.785 274.699 175.293L278.755 178.541C279.224 178.915 279.517 179.451 279.583 180.052C279.649 180.646 279.481 181.233 279.099 181.702L276.577 184.848C275.799 185.816 274.384 185.97 273.416 185.2L269.361 181.951C267.197 183.763 264.748 185.112 262.057 185.97L262.629 191.133C262.695 191.727 262.526 192.313 262.145 192.783C261.771 193.252 261.235 193.545 260.634 193.611L256.623 194.051C256.542 194.059 256.454 194.066 256.373 194.066L256.381 194.044ZM245.388 183.616L245.659 183.763C248.241 185.149 251.027 185.955 253.946 186.175L254.247 186.197L254.885 191.969C254.929 192.372 255.127 192.731 255.442 192.981C255.757 193.237 256.153 193.355 256.557 193.303L260.568 192.863C260.971 192.819 261.331 192.621 261.58 192.306C261.837 191.991 261.947 191.595 261.903 191.191L261.265 185.42L261.558 185.332C264.359 184.481 266.904 183.088 269.119 181.174L269.346 180.976L273.878 184.606C274.531 185.127 275.484 185.024 276.005 184.371L278.527 181.225C278.784 180.91 278.894 180.514 278.85 180.111C278.806 179.707 278.608 179.348 278.293 179.099L273.761 175.469L273.907 175.197C275.293 172.616 276.1 169.829 276.32 166.911L276.342 166.61L282.113 165.972C282.517 165.928 282.876 165.73 283.125 165.415C283.382 165.099 283.492 164.703 283.448 164.3L283.008 160.289C282.964 159.885 282.766 159.526 282.451 159.277C282.135 159.027 281.739 158.903 281.336 158.954L275.565 159.592L275.477 159.299C274.633 156.497 273.233 153.953 271.319 151.738L271.121 151.511L274.751 146.979C275 146.663 275.117 146.267 275.073 145.864C275.029 145.461 274.831 145.101 274.516 144.852L271.37 142.329C270.717 141.809 269.764 141.911 269.243 142.564L265.613 147.096L265.342 146.949C262.761 145.563 259.974 144.757 257.055 144.537L256.755 144.515L256.117 138.743C256.029 137.915 255.273 137.313 254.445 137.401L250.433 137.841C250.03 137.885 249.671 138.083 249.421 138.399C249.165 138.714 249.055 139.11 249.099 139.513L249.737 145.285L249.443 145.373C246.642 146.216 244.097 147.617 241.883 149.531L241.655 149.729L237.123 146.099C236.808 145.842 236.412 145.732 236.009 145.776C235.605 145.82 235.246 146.018 234.997 146.333L232.474 149.487C232.225 149.802 232.107 150.198 232.151 150.601C232.195 151.005 232.393 151.364 232.709 151.613L237.241 155.243L237.094 155.515C235.708 158.096 234.901 160.883 234.681 163.801L234.659 164.102L228.888 164.74C228.485 164.784 228.125 164.982 227.876 165.297C227.619 165.613 227.509 166.009 227.553 166.412L227.993 170.423C228.037 170.827 228.235 171.186 228.551 171.435C228.866 171.685 229.262 171.802 229.665 171.758L235.437 171.12L235.525 171.413C236.368 174.215 237.769 176.759 239.683 178.974L239.881 179.201L236.251 183.733C235.994 184.049 235.884 184.445 235.928 184.848C235.972 185.251 236.17 185.611 236.485 185.86L239.631 188.383C239.947 188.632 240.343 188.749 240.746 188.705C241.149 188.661 241.509 188.463 241.758 188.148L245.388 183.616ZM255.493 176.627C253.015 176.627 250.521 175.821 248.446 174.156C246.092 172.271 244.618 169.58 244.288 166.588C243.958 163.589 244.816 160.648 246.701 158.294C248.585 155.94 251.277 154.466 254.269 154.136C257.268 153.806 260.209 154.664 262.563 156.549C267.417 160.443 268.202 167.556 264.308 172.411C262.079 175.19 258.801 176.635 255.493 176.635V176.627ZM255.523 154.796C255.134 154.796 254.738 154.818 254.349 154.862C251.548 155.17 249.033 156.549 247.273 158.749C243.635 163.288 244.369 169.939 248.908 173.584C253.447 177.221 260.099 176.488 263.743 171.949C267.381 167.409 266.647 160.758 262.108 157.113C260.216 155.595 257.921 154.796 255.53 154.796H255.523Z" fill="white"/>
</g>
<g opacity="0.38">
<path d="M305.895 211.402H264.374C263.655 211.402 263.076 210.705 263.076 209.855V194.572C263.076 193.714 263.663 193.025 264.374 193.025H305.895C306.614 193.025 307.193 193.721 307.193 194.572V209.855C307.193 210.705 306.607 211.402 305.895 211.402ZM264.374 193.758C264.066 193.758 263.809 194.132 263.809 194.572V209.855C263.809 210.295 264.066 210.669 264.374 210.669H305.895C306.203 210.669 306.46 210.295 306.46 209.855V194.572C306.46 194.132 306.203 193.758 305.895 193.758H264.374Z" fill="white"/>
<path d="M299.735 198.935H271.627V199.669H299.735V198.935Z" fill="white"/>
<path d="M299.728 200.036H271.619C271.216 200.036 270.886 199.706 270.886 199.302C270.886 198.899 271.216 198.569 271.619 198.569H299.728C300.131 198.569 300.461 198.899 300.461 199.302C300.461 199.706 300.131 200.036 299.728 200.036Z" fill="white"/>
<path d="M284.189 202.272H271.627V203.006H284.189V202.272Z" fill="white"/>
<path d="M284.181 203.372H271.619C271.216 203.372 270.886 203.042 270.886 202.639C270.886 202.236 271.216 201.906 271.619 201.906H284.181C284.585 201.906 284.915 202.236 284.915 202.639C284.915 203.042 284.585 203.372 284.181 203.372Z" fill="white"/>
<path d="M299.735 202.272H287.173V203.006H299.735V202.272Z" fill="white"/>
<path d="M299.728 203.372H287.166C286.763 203.372 286.433 203.042 286.433 202.639C286.433 202.236 286.763 201.906 287.166 201.906H299.728C300.131 201.906 300.461 202.236 300.461 202.639C300.461 203.042 300.131 203.372 299.728 203.372Z" fill="white"/>
<path d="M299.735 205.755H271.627V206.489H299.735V205.755Z" fill="white"/>
<path d="M299.728 206.855H271.619C271.216 206.855 270.886 206.525 270.886 206.122C270.886 205.719 271.216 205.389 271.619 205.389H299.728C300.131 205.389 300.461 205.719 300.461 206.122C300.461 206.525 300.131 206.855 299.728 206.855Z" fill="white"/>
</g>
<g opacity="0.55">
<path d="M190.285 279.324C189.706 279.324 189.156 279.126 188.694 278.759C188.159 278.334 187.829 277.725 187.755 277.05L187.242 272.364C184.69 272.1 182.241 271.389 179.945 270.245L176.997 273.926C176.117 275.026 174.504 275.202 173.411 274.322L170.368 271.88C169.84 271.455 169.503 270.846 169.429 270.172C169.356 269.497 169.547 268.83 169.972 268.294L172.92 264.613C171.299 262.626 170.075 260.389 169.261 257.954L164.575 258.468C163.174 258.614 161.913 257.61 161.759 256.209L161.333 252.33C161.179 250.929 162.191 249.668 163.592 249.514L168.278 249C168.542 246.448 169.253 243.999 170.397 241.704L166.716 238.756C165.616 237.876 165.44 236.27 166.32 235.17L168.762 232.126C169.187 231.591 169.796 231.261 170.471 231.188C171.145 231.114 171.813 231.305 172.348 231.73L176.029 234.678C178.017 233.058 180.253 231.833 182.688 231.019L182.175 226.333C182.101 225.658 182.292 224.991 182.717 224.456C183.143 223.92 183.751 223.59 184.426 223.517L188.305 223.092C188.98 223.018 189.647 223.209 190.183 223.634C190.718 224.06 191.048 224.668 191.121 225.343L191.635 230.029C194.187 230.293 196.636 231.004 198.931 232.148L201.879 228.467C202.759 227.367 204.365 227.191 205.465 228.071L208.509 230.513C209.037 230.938 209.374 231.547 209.447 232.222C209.521 232.896 209.33 233.564 208.905 234.099L205.957 237.78C207.577 239.768 208.802 242.004 209.616 244.439L214.302 243.926C215.695 243.772 216.964 244.784 217.118 246.184L217.543 250.064C217.697 251.464 216.685 252.726 215.285 252.88L210.599 253.393C210.335 255.945 209.623 258.394 208.479 260.682L212.161 263.63C212.696 264.056 213.026 264.664 213.099 265.339C213.173 266.014 212.982 266.681 212.557 267.216L210.115 270.26C209.689 270.795 209.081 271.125 208.406 271.198C207.731 271.279 207.064 271.081 206.529 270.656L202.847 267.708C200.86 269.328 198.623 270.553 196.189 271.367L196.702 276.053C196.856 277.454 195.844 278.715 194.443 278.869L190.564 279.294C190.469 279.302 190.373 279.309 190.278 279.309L190.285 279.324ZM179.557 268.382L180.092 268.668C182.541 269.981 185.181 270.751 187.953 270.956L188.562 271L189.207 276.889C189.237 277.175 189.383 277.439 189.603 277.615C189.831 277.798 190.117 277.879 190.403 277.85L194.282 277.424C194.568 277.395 194.832 277.248 195.008 277.021C195.191 276.794 195.272 276.515 195.243 276.222L194.597 270.333L195.184 270.157C197.839 269.358 200.259 268.03 202.356 266.212L202.818 265.816L207.445 269.519C207.673 269.702 207.951 269.783 208.245 269.754C208.531 269.724 208.795 269.578 208.971 269.35L211.413 266.307C211.596 266.08 211.677 265.794 211.647 265.508C211.618 265.222 211.471 264.958 211.251 264.782L206.624 261.071L206.91 260.536C208.223 258.086 208.993 255.446 209.198 252.674L209.242 252.066L215.131 251.42C215.725 251.354 216.157 250.819 216.091 250.225L215.666 246.346C215.6 245.752 215.057 245.326 214.471 245.385L208.582 246.03L208.406 245.444C207.607 242.789 206.279 240.369 204.461 238.272L204.065 237.81L207.775 233.182C207.959 232.955 208.039 232.676 208.01 232.383C207.981 232.097 207.834 231.833 207.614 231.657L204.571 229.215C204.109 228.841 203.419 228.914 203.045 229.384L199.342 234.011L198.807 233.725C196.357 232.412 193.717 231.642 190.945 231.437L190.337 231.393L189.691 225.504C189.662 225.218 189.515 224.954 189.295 224.778C189.068 224.595 188.782 224.514 188.496 224.544L184.617 224.969C184.331 224.998 184.067 225.145 183.891 225.365C183.707 225.592 183.627 225.871 183.656 226.164L184.301 232.053L183.715 232.229C181.06 233.028 178.647 234.356 176.543 236.174L176.081 236.57L171.453 232.867C171.226 232.684 170.947 232.603 170.654 232.632C170.368 232.662 170.104 232.808 169.928 233.028L167.486 236.072C167.303 236.299 167.222 236.585 167.251 236.871C167.281 237.157 167.427 237.421 167.647 237.597L172.275 241.308L171.989 241.843C170.676 244.292 169.906 246.932 169.701 249.704L169.657 250.313L163.768 250.958C163.174 251.024 162.741 251.56 162.807 252.154L163.233 256.033C163.299 256.627 163.834 257.052 164.428 256.994L170.317 256.348L170.493 256.935C171.292 259.59 172.619 262.01 174.438 264.107L174.834 264.569L171.123 269.196C170.94 269.424 170.859 269.702 170.889 269.996C170.918 270.282 171.065 270.546 171.285 270.722L174.328 273.164C174.79 273.538 175.479 273.464 175.853 272.995L179.564 268.368L179.557 268.382ZM189.427 262.486C186.949 262.486 184.455 261.68 182.38 260.008C180.026 258.123 178.552 255.432 178.222 252.432C177.892 249.433 178.75 246.492 180.635 244.138C182.519 241.784 185.211 240.31 188.21 239.98C191.209 239.65 194.157 240.508 196.504 242.393C198.851 244.278 200.332 246.969 200.662 249.968C200.992 252.968 200.134 255.908 198.249 258.262C196.02 261.042 192.742 262.486 189.427 262.486ZM189.457 241.381C189.09 241.381 188.731 241.403 188.364 241.44C185.753 241.726 183.414 243.009 181.779 245.062C180.136 247.108 179.395 249.675 179.681 252.278C179.967 254.889 181.251 257.228 183.304 258.864C187.528 262.252 193.725 261.57 197.113 257.346C198.755 255.3 199.496 252.733 199.21 250.13C198.924 247.519 197.641 245.18 195.587 243.544C193.827 242.136 191.686 241.381 189.464 241.381H189.457Z" fill="white"/>
</g>
<path d="M109.864 45.8811V60.6431L109.872 64.0751L109.886 105.054L109.923 185.244L109.938 226.222V229.654V239.628C109.938 244.13 112.783 247.958 116.765 249.454C117.916 249.887 119.148 250.129 120.446 250.129H127.934L210.382 250.092C212.59 250.092 214.628 249.41 216.315 248.252C219.072 246.36 220.884 243.184 220.884 239.584L220.796 45.8371C220.796 42.6105 219.336 39.7211 217.041 37.7998C215.215 36.2671 212.861 35.3358 210.287 35.3358L120.351 35.3725C114.55 35.3725 109.85 40.0805 109.85 45.8811H109.864Z" fill="#1E386B"/>
<path d="M110.634 49.5552V63.8405L110.642 67.1552L110.656 106.806L110.693 184.393L110.708 224.044V227.359V237.01C110.708 241.366 113.509 245.069 117.44 246.514C118.569 246.932 119.794 247.166 121.07 247.166H128.454L209.759 247.13C211.93 247.13 213.946 246.47 215.611 245.348C218.332 243.514 220.114 240.442 220.114 236.966L220.033 49.5185C220.033 46.3945 218.588 43.6005 216.33 41.7378C214.526 40.2565 212.208 39.3545 209.671 39.3545L120.982 39.3912C115.262 39.3912 110.627 43.9452 110.627 49.5625L110.634 49.5552Z" fill="#03486E"/>
<path d="M215.017 64.8528L215.083 220.561C215.083 221.955 213.954 223.077 212.568 223.084L118.254 223.128C116.86 223.128 115.738 221.999 115.731 220.613L115.665 64.9041C115.665 63.5108 116.794 62.3815 118.18 62.3815L212.494 62.3375C213.888 62.3375 215.01 63.4668 215.017 64.8528Z" fill="white"/>
<path d="M215.017 64.7867V74.8847L115.672 74.9287V64.7134C115.672 63.3787 116.743 62.3007 118.078 62.3007L212.48 62.2567C213.88 62.2567 215.017 63.3934 215.017 64.7867Z" fill="#599AF2"/>
<path d="M202.756 67.1628C202.55 67.1628 202.389 67.0014 202.389 66.7961C202.389 66.5908 202.55 66.4294 202.756 66.4294H210.206C210.412 66.4294 210.573 66.5908 210.573 66.7961C210.573 67.0014 210.412 67.1628 210.206 67.1628H202.756Z" fill="white"/>
<path d="M202.756 69.0621C202.55 69.0621 202.389 68.9007 202.389 68.6954C202.389 68.4901 202.55 68.3287 202.756 68.3287H210.206C210.412 68.3287 210.573 68.4901 210.573 68.6954C210.573 68.9007 210.412 69.0621 210.206 69.0621H202.756Z" fill="white"/>
<path d="M202.756 70.9686C202.55 70.9686 202.389 70.8073 202.389 70.602C202.389 70.3966 202.55 70.2353 202.756 70.2353H210.206C210.412 70.2353 210.573 70.3966 210.573 70.602C210.573 70.8073 210.412 70.9686 210.206 70.9686H202.756Z" fill="white"/>
<path d="M124.553 72.1862C124.458 72.1862 124.362 72.1495 124.296 72.0762L121.59 69.3702C121.356 69.1355 121.356 68.7542 121.59 68.5269L124.194 65.9235C124.34 65.7769 124.568 65.7769 124.714 65.9235C124.861 66.0629 124.861 66.2975 124.714 66.4442L122.206 68.9522L124.817 71.5629C124.964 71.7022 124.964 71.9369 124.817 72.0835C124.744 72.1569 124.648 72.1935 124.56 72.1935L124.553 72.1862Z" fill="white"/>
<path d="M165.429 53.0166C163.948 53.0166 162.738 51.814 162.738 50.3253C162.738 48.844 163.94 47.634 165.429 47.634C166.91 47.634 168.12 48.8366 168.12 50.3253C168.12 51.8066 166.918 53.0166 165.429 53.0166ZM165.429 48.778C164.571 48.778 163.882 49.4746 163.882 50.3326C163.882 51.1833 164.578 51.88 165.429 51.88C165.84 51.88 166.228 51.7186 166.522 51.4253C166.815 51.132 166.976 50.7433 166.976 50.3253C166.976 49.9073 166.815 49.526 166.522 49.2326C166.228 48.9393 165.84 48.778 165.429 48.778Z" fill="white"/>
<path d="M162.877 242.451C161.924 242.451 161.154 241.674 161.154 240.728V235.631C161.154 234.678 161.924 233.908 162.877 233.908H167.974C168.927 233.908 169.697 234.678 169.697 235.631V240.728C169.697 241.681 168.927 242.451 167.974 242.451H162.877ZM167.974 234.634H162.877C162.327 234.634 161.887 235.081 161.887 235.631V240.728C161.887 241.278 162.334 241.718 162.884 241.718H167.981C168.531 241.718 168.971 241.271 168.971 240.721V235.624C168.971 235.074 168.524 234.634 167.974 234.634Z" fill="white"/>
<path d="M132.172 235.463C131.967 235.463 131.806 235.301 131.806 235.096C131.806 234.891 131.967 234.729 132.172 234.729H137.078C137.284 234.729 137.445 234.891 137.445 235.096C137.445 235.301 137.284 235.463 137.078 235.463H132.172Z" fill="white"/>
<path d="M132.172 238.117C131.967 238.117 131.806 237.956 131.806 237.751C131.806 237.545 131.967 237.384 132.172 237.384H137.078C137.284 237.384 137.445 237.545 137.445 237.751C137.445 237.956 137.284 238.117 137.078 238.117H132.172Z" fill="white"/>
<path d="M132.172 240.801C131.967 240.801 131.806 240.64 131.806 240.435C131.806 240.229 131.967 240.068 132.172 240.068H137.078C137.284 240.068 137.445 240.229 137.445 240.435C137.445 240.64 137.284 240.801 137.078 240.801H132.172Z" fill="white"/>
<path d="M199.918 242.429C199.822 242.429 199.727 242.393 199.661 242.319L195.804 238.462L199.558 234.7C199.705 234.553 199.932 234.553 200.079 234.7C200.226 234.847 200.226 235.074 200.079 235.221L196.838 238.462L200.174 241.799C200.321 241.945 200.321 242.173 200.174 242.319C200.101 242.393 200.006 242.429 199.918 242.429Z" fill="white"/>
<path opacity="0.36" d="M215.032 75.0605H115.834V107.547H215.032V75.0605Z" fill="#599AF2"/>
<path opacity="0.43" d="M160.604 81.631H124.986C124.415 81.631 123.952 82.094 123.952 82.665V88.649C123.952 89.2201 124.415 89.683 124.986 89.683H160.604C161.175 89.683 161.638 89.2201 161.638 88.649V82.665C161.638 82.094 161.175 81.631 160.604 81.631Z" fill="white"/>
<path opacity="0.43" d="M180.169 94.1932H124.986C124.415 94.1932 123.952 94.6561 123.952 95.2272V97.1852C123.952 97.7562 124.415 98.2192 124.986 98.2192H180.169C180.74 98.2192 181.203 97.7562 181.203 97.1852V95.2272C181.203 94.6561 180.74 94.1932 180.169 94.1932Z" fill="white"/>
<path opacity="0.43" d="M202.814 97.5372C200.783 97.5372 198.869 96.7452 197.432 95.3079C195.994 93.8705 195.202 91.9565 195.195 89.9252C195.195 87.8939 195.987 85.9799 197.424 84.5352C198.862 83.0979 200.776 82.3059 202.807 82.2985C204.838 82.2985 206.752 83.0905 208.19 84.5279C209.627 85.9652 210.419 87.8792 210.426 89.9105C210.426 91.9419 209.634 93.8559 208.197 95.3005C206.76 96.7379 204.846 97.5299 202.814 97.5372ZM202.814 83.7652C201.172 83.7652 199.624 84.4032 198.466 85.5692C197.307 86.7352 196.662 88.2752 196.669 89.9179C196.669 91.5605 197.307 93.1079 198.473 94.2665C199.632 95.4252 201.179 96.0632 202.822 96.0632C204.464 96.0632 206.012 95.4252 207.17 94.2592C208.329 93.0932 208.974 91.5532 208.967 89.9105C208.967 88.2679 208.329 86.7205 207.163 85.5619C206.004 84.4032 204.457 83.7652 202.814 83.7652Z" fill="white"/>
<path d="M144.36 119.339H127.956C126.109 119.339 124.612 120.836 124.612 122.683V139.088C124.612 140.935 126.109 142.432 127.956 142.432H144.36C146.207 142.432 147.704 140.935 147.704 139.088V122.683C147.704 120.836 146.207 119.339 144.36 119.339Z" fill="#1E386B"/>
<g opacity="0.36">
<path d="M141.141 130.999C141.141 133.749 138.912 135.986 136.162 135.986C133.412 135.986 131.175 133.757 131.175 131.007C131.175 128.257 133.404 126.02 136.154 126.02C138.904 126.02 141.141 128.249 141.141 130.999Z" fill="#599AF2"/>
</g>
<g opacity="0.26">
<path d="M165.539 122.933H152.559C152.097 122.933 151.723 123.307 151.723 123.769V126.24C151.723 126.702 152.097 127.076 152.559 127.076H165.539C166.001 127.076 166.375 126.702 166.375 126.24V123.769C166.375 123.307 166.001 122.933 165.539 122.933Z" fill="#03486E"/>
<path d="M151.73 133.441C151.327 133.441 150.997 133.111 150.997 132.708C150.997 132.305 151.327 131.975 151.73 131.975L176.737 131.96C177.14 131.96 177.47 132.29 177.47 132.693C177.47 133.097 177.14 133.427 176.737 133.427L151.73 133.441Z" fill="#03486E"/>
<path d="M151.73 138.67C151.327 138.67 150.997 138.34 150.997 137.937C150.997 137.533 151.327 137.203 151.73 137.203L192.511 137.189C192.914 137.189 193.244 137.519 193.244 137.922C193.244 138.325 192.914 138.655 192.511 138.655L151.73 138.67Z" fill="#03486E"/>
<path d="M182.31 133.427C181.907 133.427 181.577 133.097 181.577 132.693C181.577 132.29 181.907 131.96 182.31 131.96H207.317C207.72 131.953 208.05 132.275 208.05 132.679C208.05 133.082 207.72 133.412 207.317 133.412H182.31V133.427Z" fill="#03486E"/>
</g>
<path d="M144.397 186.52H127.992C126.145 186.52 124.648 188.017 124.648 189.864V206.269C124.648 208.116 126.145 209.613 127.992 209.613H144.397C146.244 209.613 147.741 208.116 147.741 206.269V189.864C147.741 188.017 146.244 186.52 144.397 186.52Z" fill="#599AF2"/>
<g opacity="0.57">
<path d="M141.17 198.173C141.17 200.923 138.941 203.159 136.191 203.159C133.441 203.159 131.204 200.93 131.204 198.18C131.204 195.43 133.434 193.193 136.184 193.193C138.934 193.193 141.17 195.423 141.17 198.173Z" fill="#03486E"/>
</g>
<g opacity="0.26">
<path d="M165.568 190.106H152.588C152.127 190.106 151.752 190.48 151.752 190.942V193.413C151.752 193.875 152.127 194.249 152.588 194.249H165.568C166.03 194.249 166.404 193.875 166.404 193.413V190.942C166.404 190.48 166.03 190.106 165.568 190.106Z" fill="#03486E"/>
<path d="M151.76 200.615C151.356 200.615 151.026 200.285 151.026 199.881C151.026 199.478 151.356 199.148 151.76 199.148H176.766V199.141C177.17 199.141 177.5 199.471 177.5 199.874C177.5 200.277 177.17 200.607 176.766 200.607H151.76V200.615Z" fill="#03486E"/>
<path d="M151.76 205.85C151.356 205.85 151.026 205.52 151.026 205.117C151.026 204.714 151.356 204.384 151.76 204.384L192.54 204.369C192.944 204.369 193.274 204.699 193.274 205.102C193.274 205.506 192.944 205.836 192.54 205.836L151.76 205.85Z" fill="#03486E"/>
<path d="M182.34 200.6C181.936 200.6 181.606 200.27 181.606 199.867C181.606 199.463 181.936 199.133 182.34 199.133H207.346C207.75 199.126 208.08 199.449 208.08 199.859C208.08 200.27 207.75 200.593 207.346 200.593H182.34V200.6Z" fill="#03486E"/>
</g>
<path d="M144.382 152.853H127.978C126.131 152.853 124.634 154.35 124.634 156.197V172.601C124.634 174.448 126.131 175.945 127.978 175.945H144.382C146.229 175.945 147.726 174.448 147.726 172.601V156.197C147.726 154.35 146.229 152.853 144.382 152.853Z" fill="#F7A9B4"/>
<path opacity="0.43" d="M141.156 164.505C141.156 167.255 138.926 169.492 136.176 169.492C133.426 169.492 131.19 167.263 131.19 164.513C131.19 161.763 133.419 159.526 136.169 159.526C138.919 159.526 141.156 161.755 141.156 164.505Z" fill="white"/>
<g opacity="0.26">
<path d="M165.554 156.438H152.574C152.112 156.438 151.738 156.813 151.738 157.274V159.746C151.738 160.207 152.112 160.582 152.574 160.582H165.554C166.015 160.582 166.39 160.207 166.39 159.746V157.274C166.39 156.813 166.015 156.438 165.554 156.438Z" fill="#03486E"/>
<path d="M151.745 166.947C151.342 166.947 151.012 166.617 151.012 166.214C151.012 165.81 151.342 165.48 151.745 165.48H163.31C163.713 165.48 164.043 165.81 164.043 166.214C164.043 166.617 163.713 166.947 163.31 166.947H151.745Z" fill="#03486E"/>
<path d="M151.745 172.183C151.342 172.183 151.012 171.853 151.012 171.45C151.012 171.046 151.342 170.716 151.745 170.716H175.483V170.709C175.886 170.709 176.216 171.039 176.216 171.442C176.216 171.846 175.886 172.176 175.483 172.176H151.745V172.183Z" fill="#03486E"/>
<path d="M168.15 166.94C167.746 166.94 167.416 166.61 167.416 166.206C167.416 165.803 167.746 165.473 168.15 165.473H191.25C191.653 165.466 191.983 165.788 191.983 166.199C191.983 166.61 191.653 166.932 191.25 166.932H168.15V166.94Z" fill="#03486E"/>
<path d="M195.547 166.932C195.144 166.932 194.814 166.602 194.814 166.199C194.814 165.796 195.144 165.466 195.547 165.466H207.112C207.515 165.466 207.845 165.788 207.845 166.192C207.845 166.595 207.515 166.925 207.112 166.925H195.547V166.932Z" fill="#03486E"/>
</g>
<path d="M120.225 153.901L115.36 134.417L18.7516 158.54L23.6167 178.024L120.225 153.901Z" fill="#CB2026"/>
<path d="M108.934 146.371L32.4465 165.461" stroke="white" stroke-width="1.65" stroke-miterlimit="10"/>
<path d="M103.515 153.375L40.1209 169.202" stroke="white" stroke-width="1.65" stroke-miterlimit="10"/>
<path d="M100.816 142.552L37.4152 158.372" stroke="white" stroke-width="1.65" stroke-miterlimit="10"/>
<path d="M120.22 153.903L140.738 139.561C141.616 138.947 141.273 137.569 140.209 137.433L115.359 134.413L120.22 153.903Z" fill="#455C7D"/>
<path d="M132.057 136.441L134.006 144.265" stroke="#1E386B" stroke-width="1.65" stroke-miterlimit="10"/>
<path d="M283.681 44.0982L206.73 83.6553C202.276 78.4295 194.673 76.7304 188.297 80.0072L168.615 90.1232C170.957 94.6778 176.554 96.4769 181.108 94.1353L185.934 91.6509C190.396 89.3522 195.879 91.1155 198.178 95.5774C200.477 100.039 198.713 105.522 194.251 107.821L189.897 110.062C185.078 112.54 183.179 118.451 185.656 123.269L205.338 113.154C211.713 109.877 214.762 102.709 213.098 96.0414L290.049 56.4843C293.469 54.7281 294.818 50.5304 293.062 47.1037C291.306 43.677 287.108 42.3348 283.681 44.091V44.0982Z" fill="#8E9298"/>
<path d="M215.89 84.3763L280.226 51.3014" stroke="white" stroke-width="1.65" stroke-miterlimit="10"/>
<path d="M218.146 88.7667L282.482 55.6918" stroke="white" stroke-width="1.65" stroke-miterlimit="10"/>
<path d="M304.277 177.233L304.213 177.219C301.679 176.733 299.266 175.734 297.167 174.235C292.648 171.022 285.909 168.267 278.127 166.767C270.346 165.268 263.064 165.332 257.681 166.639C255.175 167.246 252.563 167.281 250.028 166.796L236.214 164.14C234.751 163.862 233.344 164.818 233.059 166.275L231.603 173.871C231.324 175.334 232.281 176.741 233.737 177.026L247.494 179.668C250.035 180.16 252.455 181.167 254.569 182.666C259.088 185.886 265.841 188.655 273.637 190.155C281.433 191.654 288.736 191.59 294.126 190.269C296.646 189.655 299.266 189.612 301.807 190.105C303.442 190.412 305.02 189.341 305.334 187.706L306.669 180.746C306.983 179.111 305.912 177.533 304.277 177.219V177.233Z" fill="#CB2026"/>
<path d="M232.831 167.481L193.009 159.828C193.045 159.029 192.545 158.286 191.753 158.051L181.444 154.988C180.445 154.688 179.402 155.324 179.21 156.344L177.896 163.176C177.696 164.204 178.431 165.175 179.467 165.268L190.182 166.246C191.003 166.318 191.746 165.818 192.01 165.061L231.831 172.714L232.838 167.474L232.831 167.481Z" fill="#8E9298"/>
<path d="M259.852 170.051L292.105 176.248" stroke="white" stroke-width="1.65" stroke-miterlimit="10"/>
<path d="M258.866 175.198L291.113 181.395" stroke="white" stroke-width="1.65" stroke-miterlimit="10"/>
<path d="M257.874 180.353L290.121 186.549" stroke="white" stroke-width="1.65" stroke-miterlimit="10"/>
</svg>
