<svg width="330" height="302" viewBox="0 0 330 302" fill="none" xmlns="http://www.w3.org/2000/svg">
<path fill-rule="evenodd" clip-rule="evenodd" d="M141.219 16.1247C176.762 11.6654 214.473 10.595 243.413 31.7053C276.486 55.8298 303.533 92.9718 302.678 133.899C301.832 174.348 268.964 204.474 239.228 231.908C211.095 257.865 179.433 285.079 141.219 282.863C104.247 280.72 79.3208 248.147 53.9514 221.167C29.7393 195.418 -0.515798 169.205 1.1486 133.899C2.77922 99.3104 35.3055 76.7741 61.809 54.4893C85.1998 34.8217 110.896 19.9289 141.219 16.1247Z" fill="#F5F5F5"/>
<path d="M243.82 131.311H178.431V250.255H243.82V131.311Z" fill="#E9EEF8"/>
<path d="M232.344 138.304H225.172V145.477H232.344V138.304Z" fill="#CDDDF1"/>
<path d="M232.344 152.889H225.172V160.061H232.344V152.889Z" fill="#CDDDF1"/>
<path d="M232.344 167.473H225.172V174.645H232.344V167.473Z" fill="#CDDDF1"/>
<path d="M77.9863 250.285V100.26L98.6968 82.2396V250.285H77.9863Z" fill="#E9EEF8"/>
<path d="M89.1933 107.881H81.6921C81.1542 107.881 80.7358 107.463 80.7358 106.925C80.7358 106.387 81.1542 105.969 81.6921 105.969H89.1933C89.7313 105.969 90.1497 106.387 90.1497 106.925C90.1795 107.463 89.7313 107.881 89.1933 107.881Z" fill="#CDDDF1"/>
<path d="M89.1933 112.125H81.6921C81.1541 112.125 80.7357 111.706 80.7357 111.169C80.7357 110.631 81.1541 110.212 81.6921 110.212H89.1933C89.7312 110.212 90.1496 110.631 90.1496 111.169C90.1795 111.677 89.7312 112.125 89.1933 112.125Z" fill="#CDDDF1"/>
<path d="M89.1933 116.339H81.6921C81.1541 116.339 80.7357 115.92 80.7357 115.382C80.7357 114.844 81.1541 114.426 81.6921 114.426H89.1933C89.7312 114.426 90.1496 114.844 90.1496 115.382C90.1795 115.92 89.7312 116.339 89.1933 116.339Z" fill="#CDDDF1"/>
<path d="M261.004 163.946V252.407H240.264V181.967L261.004 163.946Z" fill="#E9EEF8"/>
<path d="M251.5 189.558H243.999C243.461 189.558 243.043 189.139 243.043 188.601C243.043 188.064 243.461 187.645 243.999 187.645H251.5C252.038 187.645 252.457 188.064 252.457 188.601C252.457 189.139 252.009 189.558 251.5 189.558Z" fill="#CDDDF1"/>
<path d="M251.5 193.802H243.999C243.461 193.802 243.043 193.383 243.043 192.845C243.043 192.307 243.461 191.889 243.999 191.889H251.5C252.038 191.889 252.457 192.307 252.457 192.845C252.457 193.353 252.009 193.802 251.5 193.802Z" fill="#CDDDF1"/>
<path d="M251.5 198.015H243.999C243.461 198.015 243.043 197.597 243.043 197.059C243.043 196.521 243.461 196.103 243.999 196.103H251.5C252.038 196.103 252.457 196.521 252.457 197.059C252.457 197.597 252.009 198.015 251.5 198.015Z" fill="#CDDDF1"/>
<path d="M89.1933 120.582H81.6921C81.1541 120.582 80.7357 120.164 80.7357 119.626C80.7357 119.088 81.1541 118.67 81.6921 118.67H89.1933C89.7312 118.67 90.1496 119.088 90.1496 119.626C90.1795 120.134 89.7312 120.582 89.1933 120.582Z" fill="#CDDDF1"/>
<path d="M121.738 152.38H56.9171V250.255H121.738V152.38Z" fill="#E9EEF8"/>
<path d="M69.6782 219.772C71.1127 217.381 72.3678 213.317 69.5586 210.089C66.7494 206.862 69.9472 205.517 70.3655 201.422C70.7839 197.298 65.3747 196.94 65.7034 191.65C65.8229 189.498 64.3287 185.972 61.8183 185.733C58.7102 185.434 56.9171 189.11 57.0666 191.65C57.3654 196.969 51.986 197.298 52.4044 201.422C52.8228 205.547 56.0205 206.862 53.2113 210.089C50.4021 213.317 51.6573 217.351 53.0918 219.772C54.5263 222.163 51.3883 226.287 52.8228 229.873C54.2573 233.43 57.3654 238.689 61.3999 238.57C65.4345 238.689 68.5425 233.459 69.977 229.873C71.3816 226.287 68.2437 222.193 69.6782 219.772Z" fill="#CDDDF1"/>
<path d="M61.5791 194.399V252.168H61.3102V194.399C61.3102 194.31 61.3699 194.22 61.4297 194.22C61.5193 194.22 61.5791 194.31 61.5791 194.399Z" fill="#92B2DD"/>
<path d="M61.4296 207.041C61.3998 207.041 61.34 207.011 61.3101 206.981L56.9468 201.512C56.8871 201.452 56.917 201.363 56.9768 201.333C57.0365 201.273 57.1261 201.303 57.156 201.363L61.5193 206.832C61.5791 206.891 61.5492 206.981 61.4894 207.011C61.4894 207.041 61.4595 207.041 61.4296 207.041Z" fill="#92B2DD"/>
<path d="M61.4297 235.193C61.3998 235.193 61.3699 235.163 61.34 235.163C61.2802 235.103 61.2802 235.013 61.34 234.983L66.5102 230.321C66.5699 230.262 66.6596 230.262 66.6895 230.321C66.7493 230.381 66.7493 230.471 66.6895 230.501L61.5193 235.163C61.4894 235.193 61.4595 235.193 61.4297 235.193Z" fill="#92B2DD"/>
<path d="M61.4296 198.195C61.3998 198.195 61.3699 198.195 61.34 198.165L59.4871 196.162C59.4273 196.103 59.4273 196.013 59.4871 195.983C59.5469 195.923 59.6365 195.923 59.6664 195.983L61.5193 197.985C61.5791 198.045 61.5791 198.135 61.5193 198.165C61.4894 198.195 61.4595 198.195 61.4296 198.195Z" fill="#92B2DD"/>
<path d="M61.4297 212.898C61.3998 212.898 61.34 212.868 61.34 212.838C61.2802 212.779 61.3101 212.689 61.34 212.659L66.1815 208.475C66.2412 208.415 66.3309 208.445 66.3607 208.475C66.4205 208.535 66.3906 208.625 66.3607 208.654L61.5193 212.838C61.4894 212.898 61.4595 212.898 61.4297 212.898Z" fill="#92B2DD"/>
<path d="M61.4297 220.698C61.3998 220.698 61.3699 220.698 61.34 220.668L55.3331 214.482C55.2734 214.422 55.2734 214.333 55.3331 214.303C55.3929 214.243 55.4825 214.243 55.5124 214.303L61.5194 220.489C61.5791 220.549 61.5791 220.639 61.5194 220.668C61.4895 220.698 61.4596 220.698 61.4297 220.698Z" fill="#92B2DD"/>
<path d="M276.933 219.772C278.367 217.381 279.623 213.317 276.813 210.089C274.004 206.862 277.202 205.517 277.62 201.422C278.039 197.298 272.629 196.94 272.958 191.65C273.078 189.498 271.584 185.972 269.073 185.733C265.965 185.434 264.172 189.11 264.321 191.65C264.62 196.969 259.241 197.298 259.659 201.422C260.078 205.547 263.275 206.862 260.466 210.089C257.657 213.317 258.912 217.351 260.347 219.772C261.781 222.163 258.643 226.287 260.078 229.873C261.512 233.43 264.62 238.689 268.655 238.57C272.689 238.689 275.797 233.459 277.232 229.873C278.636 226.287 275.498 222.193 276.933 219.772Z" fill="#CDDDF1"/>
<path d="M268.834 194.399V252.168H268.565V194.399C268.565 194.31 268.625 194.22 268.685 194.22C268.774 194.22 268.834 194.31 268.834 194.399Z" fill="#92B2DD"/>
<path d="M268.685 207.041C268.655 207.041 268.595 207.011 268.565 206.981L264.202 201.512C264.142 201.452 264.172 201.363 264.232 201.333C264.292 201.273 264.381 201.303 264.411 201.363L268.774 206.832C268.834 206.891 268.804 206.981 268.744 207.011C268.744 207.041 268.715 207.041 268.685 207.041Z" fill="#92B2DD"/>
<path d="M268.685 235.193C268.655 235.193 268.625 235.163 268.595 235.163C268.535 235.103 268.535 235.013 268.595 234.983L273.765 230.321C273.825 230.262 273.915 230.262 273.945 230.321C274.004 230.381 274.004 230.471 273.945 230.501L268.774 235.163C268.774 235.193 268.715 235.193 268.685 235.193Z" fill="#92B2DD"/>
<path d="M268.685 198.195C268.655 198.195 268.625 198.195 268.595 198.165L266.742 196.162C266.682 196.103 266.682 196.013 266.742 195.983C266.802 195.923 266.892 195.923 266.921 195.983L268.774 197.985C268.834 198.045 268.834 198.135 268.774 198.165C268.774 198.195 268.715 198.195 268.685 198.195Z" fill="#92B2DD"/>
<path d="M268.685 212.898C268.655 212.898 268.595 212.868 268.595 212.838C268.535 212.779 268.565 212.689 268.595 212.659L273.437 208.475C273.496 208.415 273.586 208.445 273.616 208.475C273.676 208.535 273.646 208.625 273.616 208.654L268.774 212.838C268.744 212.898 268.715 212.898 268.685 212.898Z" fill="#92B2DD"/>
<path d="M268.685 220.698C268.655 220.698 268.625 220.698 268.595 220.668L262.588 214.482C262.528 214.422 262.528 214.333 262.588 214.303C262.648 214.243 262.737 214.243 262.767 214.303L268.774 220.489C268.834 220.549 268.834 220.639 268.774 220.668C268.774 220.698 268.715 220.698 268.685 220.698Z" fill="#92B2DD"/>
<path d="M210.946 250.285H117.525C111.757 250.285 107.065 245.593 107.065 239.825V40.4599C107.065 34.692 111.757 30 117.525 30H210.946C216.714 30 221.406 34.692 221.406 40.4599V239.825C221.406 245.593 216.714 250.285 210.946 250.285Z" fill="#CDDDF1"/>
<path d="M210.08 36.9633H185.364V41.4162C185.364 41.8645 185.006 42.2231 184.557 42.2231H146.812C146.364 42.2231 146.005 41.8645 146.005 41.4162V36.9633H118.451C115.283 36.9633 112.713 39.4736 112.713 42.5518V239.167C112.713 242.246 115.283 244.756 118.451 244.756H210.109C213.277 244.756 215.847 242.246 215.847 239.167V42.5518C215.817 39.4736 213.247 36.9633 210.08 36.9633Z" fill="white"/>
<path d="M133.782 62.2463H132.139V153.905H133.782V62.2463Z" fill="#CDDDF1"/>
<path d="M138.561 67.8506C141.654 64.7578 141.654 59.7434 138.561 56.6507C135.468 53.5579 130.454 53.5579 127.361 56.6507C124.268 59.7434 124.268 64.7578 127.361 67.8506C130.454 70.9433 135.468 70.9433 138.561 67.8506Z" fill="#E9EEF8"/>
<path d="M132.886 65.3544C132.437 65.3544 132.019 65.175 131.72 64.8463L129.419 62.2762C129.15 61.9773 129.18 61.4991 129.479 61.2302C129.778 60.9612 130.256 60.9911 130.525 61.29L132.826 63.8601C132.826 63.8601 132.856 63.89 132.886 63.89C132.916 63.89 132.945 63.8601 132.945 63.8601L139.61 54.0577C139.849 53.729 140.297 53.6393 140.626 53.8485C140.955 54.0876 141.044 54.5359 140.835 54.8646L134.171 64.667C133.902 65.0555 133.454 65.3245 132.975 65.3544C132.945 65.3544 132.916 65.3544 132.886 65.3544Z" fill="#6FC390"/>
<path d="M138.558 97.9462C141.651 94.8534 141.651 89.839 138.558 86.7462C135.465 83.6535 130.451 83.6535 127.358 86.7462C124.265 89.839 124.265 94.8534 127.358 97.9462C130.451 101.039 135.465 101.039 138.558 97.9462Z" fill="#E9EEF8"/>
<path d="M132.886 95.4488C132.437 95.4488 132.019 95.2695 131.72 94.9408L129.419 92.3706C129.15 92.0718 129.18 91.5936 129.479 91.3247C129.778 91.0557 130.256 91.0856 130.525 91.3844L132.826 93.9546C132.826 93.9546 132.856 93.9845 132.886 93.9845C132.916 93.9845 132.945 93.9546 132.945 93.9546L139.61 84.1522C139.849 83.8234 140.297 83.7338 140.626 83.943C140.955 84.1821 141.044 84.6303 140.835 84.9591L134.171 94.7615C133.902 95.15 133.454 95.419 132.975 95.4488C132.945 95.4488 132.916 95.4488 132.886 95.4488Z" fill="#6FC390"/>
<path d="M138.576 128.063C141.669 124.97 141.669 119.956 138.576 116.863C135.483 113.77 130.469 113.77 127.376 116.863C124.283 119.956 124.283 124.97 127.376 128.063C130.469 131.156 135.483 131.156 138.576 128.063Z" fill="#E9EEF8"/>
<path d="M138.56 157.745C141.653 154.652 141.653 149.638 138.56 146.545C135.468 143.452 130.453 143.452 127.36 146.545C124.268 149.638 124.268 154.652 127.36 157.745C130.453 160.838 135.468 160.838 138.56 157.745Z" fill="#E9EEF8"/>
<path d="M193.045 59.5566H152.46C152.132 59.5566 151.863 59.2877 151.863 58.9589V57.4946C151.863 57.1658 152.132 56.8969 152.46 56.8969H193.045C193.374 56.8969 193.642 57.1658 193.642 57.4946V58.929C193.642 59.2877 193.374 59.5566 193.045 59.5566Z" fill="#CDDDF1"/>
<path d="M173.38 66.6693H152.46C152.132 66.6693 151.863 66.4004 151.863 66.0716V64.6371C151.863 64.3084 152.132 64.0394 152.46 64.0394H173.38C173.709 64.0394 173.978 64.3084 173.978 64.6371V66.0716C173.978 66.4303 173.709 66.6693 173.38 66.6693Z" fill="#CDDDF1"/>
<path d="M193.045 89.8006H152.46C152.132 89.8006 151.863 89.5316 151.863 89.2029V87.7684C151.863 87.4396 152.132 87.1707 152.46 87.1707H193.045C193.374 87.1707 193.643 87.4396 193.643 87.7684V89.2029C193.643 89.5316 193.374 89.8006 193.045 89.8006Z" fill="#CDDDF1"/>
<path d="M173.38 96.9432H152.46C152.132 96.9432 151.863 96.6742 151.863 96.3455V94.911C151.863 94.5823 152.132 94.3133 152.46 94.3133H173.38C173.709 94.3133 173.978 94.5823 173.978 94.911V96.3455C173.978 96.6742 173.709 96.9432 173.38 96.9432Z" fill="#CDDDF1"/>
<path d="M193.045 120.045H152.46C152.132 120.045 151.863 119.776 151.863 119.447V118.012C151.863 117.684 152.132 117.415 152.46 117.415H193.045C193.374 117.415 193.643 117.684 193.643 118.012V119.447C193.643 119.805 193.374 120.045 193.045 120.045Z" fill="#CDDDF1"/>
<path d="M173.38 127.187H152.46C152.132 127.187 151.863 126.918 151.863 126.589V125.155C151.863 124.826 152.132 124.557 152.46 124.557H173.38C173.709 124.557 173.978 124.826 173.978 125.155V126.589C173.978 126.918 173.709 127.187 173.38 127.187Z" fill="#CDDDF1"/>
<path d="M195.107 230.56H135.127C133.483 230.56 132.139 229.216 132.139 227.572V213.436C132.139 211.792 133.483 210.448 135.127 210.448H195.107C196.751 210.448 198.096 211.792 198.096 213.436V227.572C198.096 229.216 196.751 230.56 195.107 230.56Z" fill="#CDDDF1"/>
<path d="M275.857 254.11H52.7032C52.0457 254.11 51.5078 253.572 51.5078 252.915V251.48C51.5078 250.823 52.0457 250.285 52.7032 250.285H275.857C276.514 250.285 277.052 250.823 277.052 251.48V252.915C277.052 253.572 276.514 254.11 275.857 254.11Z" fill="#92B2DD"/>
<path d="M180.643 264.54H72.5771C71.9196 264.54 71.3817 264.002 71.3817 263.345V261.91C71.3817 261.253 71.9196 260.715 72.5771 260.715H180.643C181.3 260.715 181.838 261.253 181.838 261.91V263.345C181.838 264.032 181.3 264.54 180.643 264.54Z" fill="#E9EEF8"/>
<path d="M254.459 264.54H194.898C194.24 264.54 193.702 264.002 193.702 263.345V261.91C193.702 261.253 194.24 260.715 194.898 260.715H254.459C255.117 260.715 255.655 261.253 255.655 261.91V263.345C255.655 264.032 255.117 264.54 254.459 264.54Z" fill="#E9EEF8"/>
<path d="M201.024 275H141.463C140.805 275 140.267 274.462 140.267 273.805V272.37C140.267 271.713 140.805 271.175 141.463 271.175H201.024C201.682 271.175 202.22 271.713 202.22 272.37V273.805C202.22 274.462 201.682 275 201.024 275Z" fill="#E9EEF8"/>
<path d="M239.273 158.256H220.038V241.143H239.273V158.256Z" fill="#CB2026"/>
<path d="M203.251 203.022H184.016V241.143H203.251V203.022Z" fill="#1E386B"/>
<path d="M167.578 193.58H148.343V240.794H167.578V193.58Z" fill="#FFBA01"/>
<path d="M131.556 167H112.32V241.143H131.556V167Z" fill="#1E386B"/>
<path d="M95.8832 183.088H76.6479V240.794H95.8832V183.088Z" fill="#1E386B"/>
<path d="M194.158 187.984L157.436 180.989L122.113 147.065L86.79 178.192L85.7408 176.443L122.113 144.268L158.485 178.891L193.458 185.886L228.781 135.874L230.53 137.273L194.158 187.984Z" fill="#110239"/>
<path d="M90.6371 177.492C90.6371 179.94 88.5387 181.689 86.4403 181.689C83.9921 181.689 82.2435 179.59 82.2435 177.492C82.2435 175.044 84.3419 173.295 86.4403 173.295C88.5387 172.945 90.6371 175.044 90.6371 177.492Z" fill="#CB2026"/>
<path d="M121.763 149.863C124.081 149.863 125.96 147.984 125.96 145.666C125.96 143.348 124.081 141.469 121.763 141.469C119.445 141.469 117.566 143.348 117.566 145.666C117.566 147.984 119.445 149.863 121.763 149.863Z" fill="#CB2026"/>
<path d="M162.332 179.94C162.332 182.388 160.234 184.137 158.136 184.137C155.687 184.137 153.939 182.038 153.939 179.94C153.939 177.492 156.037 175.743 158.136 175.743C160.234 175.393 162.332 177.492 162.332 179.94Z" fill="#CB2026"/>
<path d="M198.005 186.235C198.005 188.683 195.906 190.432 193.808 190.432C191.36 190.432 189.611 188.334 189.611 186.235C189.611 183.787 191.71 182.038 193.808 182.038C196.256 181.689 198.005 183.787 198.005 186.235Z" fill="#CB2026"/>
<path d="M234.027 137.273C234.027 139.721 231.929 141.47 229.831 141.47C227.382 141.47 225.634 139.371 225.634 137.273C225.634 135.174 227.732 133.076 229.831 133.076C231.929 133.076 234.027 135.174 234.027 137.273Z" fill="#CB2026"/>
</svg>
