<svg width="120" height="120" viewBox="0 0 120 120" fill="none" xmlns="http://www.w3.org/2000/svg">
<g clip-path="url(#clip0_130_2)">
<path fill-rule="evenodd" clip-rule="evenodd" d="M119.863 60.0001C119.863 93.0611 93.0613 119.863 60.0002 119.863C26.939 119.863 0.137329 93.0613 0.137329 60.0001C0.137329 43.5321 6.99864 27.5663 19.2355 16.1731C29.9216 6.2238 44.25 0.137085 59.9985 0.137085C75.7452 0.137085 90.073 6.22265 100.759 16.17C112.983 27.5498 119.863 43.5719 119.863 60.0001ZM21.3114 21.4856C18.7192 21.4422 21.6329 16.7711 21.4517 19.8167C21.4457 19.917 23.0913 21.4856 21.3114 21.4856ZM18.6418 31.8027C18.6219 31.7093 18.6352 31.6373 18.4279 31.4923C18.2207 31.3472 18.1531 31.2176 18.0433 30.8329C17.9334 30.4483 18.1532 30.7229 18.318 30.4208C18.4828 30.1186 18.2357 30.2558 18.6203 29.9812C19.0048 29.7065 17.8943 29.4988 18.9499 28.8274C20.0056 28.156 19.2522 27.5362 18.9774 27.4537C18.7027 27.3712 18.2905 27.2338 18.7576 26.8492C19.2247 26.4646 19.4556 26.0541 19.7467 26.2174C19.8558 26.2785 19.7467 26.657 19.7467 26.657C19.723 26.8516 20.2802 26.8602 20.3236 26.7943C20.3236 26.7943 20.4051 25.8015 21.1639 24.8984C19.6776 24.1211 18.2085 23.2946 16.7582 22.4182C12.3882 27.446 8.8799 33.243 6.46415 39.5797C8.87014 40.7763 11.2638 41.8905 13.6484 42.9234C14.2423 41.0008 14.924 39.1353 15.6859 37.3275C15.5296 37.1613 15.2834 36.0387 14.5035 36.9426C14.4107 37.049 14.3077 37.1542 14.3191 36.9186C13.2555 36.019 11.0518 38.7152 12.1555 35.3416C12.3521 34.7404 12.5803 34.0049 11.8647 34.2801C10.6542 32.6672 10.8952 34.7094 10.1815 33.322C10.2365 32.2719 12.999 32.6204 13.4742 32.2393C13.4545 32.1029 13.6824 32.0915 13.914 32.2201C13.689 32.0534 13.5075 32.0064 13.5785 31.667L12.9474 31.6749C12.9108 31.5474 13.0862 31.4296 13.0176 31.3207C12.9701 31.2452 12.6824 31.1724 12.626 31.1039C12.2088 30.5982 11.6275 30.2621 11.9829 29.8102C12.0208 29.7619 12.4197 30.1206 12.4812 30.0688C12.557 30.0258 12.1628 29.6008 12.2171 29.5725C12.7775 29.2795 12.4543 29.6568 13.0328 29.7066C13.6441 29.7593 13.6001 29.5697 14.2061 29.5463C14.9808 30.6307 15.3467 30.9979 15.5961 30.9492C15.6951 30.9298 15.5595 30.439 15.9792 30.4376C16.1582 30.437 16.2315 30.3377 16.5153 30.5386L17.1204 32.0465C17.8127 32.0349 18.3026 31.9233 18.6418 31.8027ZM22.0625 23.0587L22.0819 23.003C22.1545 22.7947 21.9335 22.407 22.1088 22.4107L22.4293 22.4778C22.4293 22.4778 22.557 21.7059 23.0439 21.7059C23.5308 21.7059 23.3738 21.3918 23.3738 21.3918C23.3738 21.3918 23.4183 21.2052 23.7299 21.2037C24.0415 21.2023 24.0315 21.1786 24.2553 20.9676C24.4792 20.7567 24.9334 20.7288 25.353 20.7634C25.6952 20.7918 25.8712 20.7011 26.1693 20.6635C29.8707 16.4376 34.1998 12.6744 38.8626 9.54454C37.7707 9.12638 36.64 8.68081 35.4653 8.209C28.9574 11.2976 23.0701 15.6079 18.1538 20.8701C19.442 21.6395 20.7453 22.369 22.0625 23.0587ZM14.0472 32.3106C14.7246 32.7397 16.4945 33.2157 16.8864 33.8836C17.2783 34.5516 16.6016 35.5114 16.1834 36.1801C15.8881 36.6526 15.0219 36.0757 14.7667 35.136C15.7523 34.4946 14.1964 32.7286 14.2991 33.8953C14.1262 33.6927 14.3709 33.7334 14.1222 33.4352C14.1888 33.4245 14.2244 33.4656 14.2845 33.5079C14.4991 32.9104 14.3012 32.5186 14.0472 32.3106ZM80.4196 19.2801C81.0689 18.3642 81.9267 17.6697 82.89 17.0864C83.2085 16.6519 80.6441 16.566 82.5915 15.3637C82.5915 15.2304 82.4848 15.099 82.6892 15.0553C82.6467 14.833 82.9251 14.4923 83.3408 14.1283C81.6504 12.7967 79.9074 11.5615 78.1267 10.4253C76.7675 10.9205 75.4686 11.3697 74.2185 11.7723C76.264 13.9645 78.3656 16.4675 80.4196 19.2801ZM85.0878 12.8975C85.6426 12.5705 86.09 12.363 86.1489 12.4223C86.1952 12.2523 86.2648 12.2093 86.4397 12.2001C86.4552 11.8827 86.663 11.9409 86.9148 12.0034C86.9148 11.6905 87.2444 11.9467 87.3634 12.0275C87.4926 11.6034 87.273 11.4464 87.6703 11.3834C87.2892 11.0097 88.0356 10.6163 88.5503 10.3157C87.1474 9.5079 85.7074 8.75745 84.233 8.0679C82.9411 8.58937 81.7023 9.07787 80.5096 9.53456C82.0703 10.5812 83.5997 11.7031 85.0878 12.8975ZM89.5197 10.8868C89.5578 11.0982 89.5804 11.3016 89.6029 11.4349C89.9411 11.339 90.1871 11.3382 90.3574 11.4015C90.0797 11.2275 89.8007 11.056 89.5197 10.8868ZM90.5292 11.5097C91.0737 12.0546 89.9518 13.8515 89.0708 13.3175C89.1289 13.6745 88.6381 14.3938 88.296 14.3249C88.7489 14.5467 89.19 15.49 88.9915 15.9823C89.3103 15.9423 89.8904 16.2757 90.0848 16.0868C90.3144 16.2875 92.3963 15.7834 91.046 17.2178C90.9023 17.37 90.8907 17.7549 90.9251 18.1894C92.6088 19.913 94.1936 21.7288 95.6711 23.6323C97.673 22.7164 99.6652 21.7252 101.645 20.659C98.3415 17.1583 94.6 14.0785 90.5292 11.5097ZM91.6133 21.946C91.5963 22.0512 91.5503 22.1149 91.4633 22.1149C91.09 22.1149 90.4926 22.2704 90.5348 22.8153C90.573 22.9079 91.0567 24.5104 90.1782 23.8742C90.1937 24.0119 90.5171 24.9838 89.983 24.7634C89.7503 25.353 90.0752 25.4771 90.3496 25.882C91.4819 25.4423 92.6114 24.9786 93.7385 24.4915C93.0561 23.6274 92.3458 22.7683 91.6133 21.946ZM92.5974 27.1901C93.0533 27.3637 93.3908 28.0934 92.7126 28.0934C92.7804 29.2405 94.4126 28.7867 93.5745 29.9731C93.5733 29.9749 95.1559 34.3897 94.8404 34.6719C95.6311 35.3004 94.4407 37.186 94.3893 35.5538C94.3845 35.3979 93.327 35.9026 94.3166 34.8764C94.5823 34.6008 89.1922 31.6352 89.3426 29.7782C89.3174 29.7782 89.1922 29.2634 89.0492 28.556C88.4671 28.7671 87.8844 28.9723 87.3015 29.1712C87.27 29.3545 87.1571 29.6134 87.0037 29.8812C89.77 35.1838 92.1804 41.1986 93.8841 47.9223C97.2582 46.9746 100.67 45.8938 104.126 44.6815C102.138 37.7501 98.9738 31.5579 95.0152 26.1686C94.2111 26.5208 93.4051 26.8616 92.5974 27.1901ZM88.693 26.5079C88.5588 25.5545 88.4996 24.7198 88.6537 24.5438L88.6545 24.5426C88.4012 24.5004 87.5934 23.3812 87.5697 23.036C87.286 23.5738 88.7111 24.7242 87.9023 24.3426C87.9023 24.3426 88.1207 27.0837 87.64 26.0064C87.2248 26.2686 87.2193 25.4393 86.9522 25.4393C86.8737 25.9237 86.4582 25.7189 86.4085 27.3145C87.1711 27.056 87.9322 26.7875 88.693 26.5079ZM85.167 30.7904C85.1486 30.7967 85.1311 30.8005 85.1152 30.8005C84.304 30.8005 85.2681 31.8289 84.527 31.8289C83.8718 31.8289 83.7285 32.7549 83.704 32.7756C83.4456 32.9986 83.3903 32.2015 82.2667 33.6045C82.1526 33.7472 81.5615 37.4138 81.6255 37.5923H81.6259C81.9785 38.1152 80.9886 39.8786 81.0281 40.1182C81.3297 40.0493 81.4 40.0631 81.7118 39.8931C81.4104 39.9472 81.4196 39.1441 81.9052 39.2923C81.9052 38.1916 83.0155 39.7741 82.6674 40.4289C82.693 40.5479 82.926 40.5775 83.0296 40.4538C82.4133 36.8582 90.2259 42.5368 87.3826 49.3659C87.4078 49.4245 87.424 49.4978 87.433 49.5812C88.0067 49.4475 88.5811 49.3097 89.1571 49.1678C88.9215 47.5019 88.7078 44.8209 88.7871 44.0708C88.8388 43.5741 87.9004 43.3264 88.0604 43.0015C88.0349 42.9393 87.9311 42.9375 87.896 42.8549L87.8337 41.8798C87.8278 41.1552 88.3707 40.1368 88.0407 39.8352C87.3515 39.2056 89.193 38.9734 88.7537 39.8752C88.5726 40.2471 89.5581 40.7683 89.0804 41.002C89.3464 41.1331 89.7859 41.9723 89.2904 42.0367C89.3503 42.1664 89.4044 42.313 89.2963 42.4442C89.4074 42.5637 90.3707 44.1538 91.0378 45.2868C89.4615 39.9668 87.4371 35.1338 85.167 30.7904ZM86.8303 51.8209C86.3893 52.6297 85.7651 53.1875 85.1455 52.6694C84.9752 52.5268 84.7903 54.4849 83.9159 53.513C83.766 53.3467 83.7607 53.1497 83.9763 53.1497H83.9755C84.2785 53.1375 84.207 52.8286 84.0397 52.4193C81.4385 52.9489 78.856 53.3964 76.2885 53.7608C76.304 54.0204 76.3163 54.2726 76.3244 54.5174L93.1256 54.5167C92.9192 53.157 92.6745 51.8007 92.3818 50.4568C90.5207 50.9519 88.6708 51.4068 86.8303 51.8209ZM83.8774 50.3615C83.9108 50.3526 83.9467 50.3453 83.9859 50.3393L84.4585 50.2408C85.0574 49.763 84.0974 47.3749 84.0456 46.7104C83.5922 47.0275 82.45 49.5793 81.5648 48.3831C80.3037 46.6782 79.5122 48.3001 78.4608 47.3501C77.4334 46.4219 76.5037 44.7371 75.0019 44.846C75.5037 47.366 75.886 49.6934 76.1108 51.7186C78.6822 51.3508 81.27 50.8978 83.8774 50.3615ZM73.1089 45.7952L72.9864 45.9041C72.8938 45.9886 73.0678 46.1749 73.2271 46.4149L73.1089 45.7952ZM73.384 47.2641C73.0897 48.2401 73.3411 50.9453 71.3045 50.0012C69.1748 49.0141 67.9544 53.2689 65.3163 51.4546C63.1622 49.9734 61.8311 51.7567 60.9615 50.3111C60.8885 50.1904 60.8078 50.0786 60.7207 49.9753V52.9031C65.1393 52.8634 69.5889 52.5582 74.0863 51.9916C73.9307 50.5652 73.6919 48.9753 73.384 47.2641ZM58.6671 49.1278C58.1663 49.2604 57.9059 49.7323 58.2911 50.5623C58.8601 51.7879 55.5229 51.8349 55.5207 50.6108C55.5197 49.6664 53.0237 50.9872 52.4797 50.7574C52.3393 51.0512 52.1559 51.2127 51.8114 51.2127H51.8126C50.7641 51.2127 48.3648 50.9375 48.3648 49.2742C48.3648 48.1782 46.3963 49.5286 46.3682 47.9974C46.3682 47.9974 46.0574 48.3456 45.8067 48.4001C45.5959 49.6634 45.4271 50.8508 45.3067 51.9434C49.7452 52.5409 54.1927 52.859 58.6671 52.9026V49.1278ZM44.5282 44.1397C44.52 44.0912 44.5141 44.043 44.5108 43.9957C44.1207 43.9582 43.0504 44.5746 42.8582 44.0201C42.5656 44.2808 42.2226 43.7341 42.5289 43.5041C42.3251 43.3456 41.9552 43.3308 42.0274 43.0005C41.0056 42.7293 41.5534 42.3516 41.64 41.5245C41.2715 41.5245 36.8857 40.4949 35.7728 39.8686C35.695 39.8245 35.7385 40.3508 35.5594 40.4475C35.6996 41.7919 34.8638 40.3823 34.8679 41.1434C34.87 41.5519 34.2577 41.4256 34.0429 41.3582C34.5466 43.6253 32.7263 43.1864 32.1954 41.4716C31.9662 40.7308 30.116 41.0641 30.1702 40.1875C30.1671 40.1923 30.142 40.1412 30.0971 40.0508C29.1507 42.5942 28.303 45.2641 27.5807 48.0609C32.8256 49.6522 38.0507 50.8471 43.2841 51.6519C43.5307 49.4541 43.9619 46.9041 44.5282 44.1397ZM28.7014 37.9678C28.2864 37.5894 27.8184 37.3894 27.3458 37.6452C27.1816 37.7341 25.446 38.7171 25.8976 37.1705C23.7284 38.2423 24.5169 38.4201 23.8448 38.9023C24.6033 39.6371 24.2369 41.0641 23.7674 40.5508C23.6634 41.0423 24.8005 41.7467 22.7609 41.1494C20.7624 40.5642 21.015 42.1856 20.8923 42.202H20.8953C20.2848 42.202 20.1296 44.6527 19.8312 44.6808C17.2258 44.9283 16.8468 42.4171 16.8152 40.0197C16.3542 41.2311 15.9298 42.4672 15.5447 43.729C18.9194 45.1327 22.277 46.3723 25.6247 47.45C26.4909 44.1126 27.531 40.9519 28.7014 37.9678ZM28.9095 20.6931C32.0864 21.066 30.2707 20.1075 31.118 19.7434C31.5351 19.5645 35.0993 16.9712 35.1353 16.563C35.1627 16.2508 38.2749 16.1186 37.5015 17.7912C37.4703 17.859 37.4645 17.9349 37.5152 17.9982C38.184 17.9982 38.0327 20.0812 37.4781 21.3889C39.7938 18.0025 42.3574 14.7881 45.1556 11.7875C43.9037 11.3834 42.6041 10.9334 41.2437 10.4367C36.8245 13.2578 32.6394 16.689 28.9095 20.6931ZM36.8758 22.282C36.2997 22.7193 35.5642 22.2168 34.8505 19.529C33.5102 21.446 33.0755 21.6738 33.5047 22.7608C33.5738 22.7371 33.6754 22.6437 33.7193 22.5853L33.6336 22.5778C33.8203 21.0626 34.6588 21.4319 34.6603 22.8667C34.6611 23.6226 35.273 22.3875 35.3381 22.3964H35.3376C35.5803 22.4193 36.2691 22.3949 36.7297 22.5026L36.8758 22.282ZM39.5341 22.0171C39.7641 22.3082 40.0334 22.6294 39.5304 23.1797C39.3607 23.3652 39.0741 23.0815 38.8655 22.9938L38.6111 23.3734C38.6708 24.2393 40.8774 23.3135 41.61 23.9872C42.5282 23.5142 42.87 23.6719 42.1385 24.7205C42.3496 25.3012 43.4897 24.4175 44.4919 25.7286C44.8708 25.6234 44.3826 23.4623 45.0141 23.9072C45.2582 24.0789 47.2926 29.1886 47.2963 26.8049C47.297 26.356 48.5767 23.1819 49.7689 23.4912C49.7496 23.1575 49.8933 23.0427 50.0744 23.0478C50.376 22.0752 50.68 21.113 50.9852 20.166C50.0385 20.3753 47.9722 20.5634 47.5345 20.5634C47.4637 20.6745 47.1855 20.9942 47.0574 20.7341C46.4822 21.6316 44.8841 20.8752 44.8882 23.3053C44.8885 23.4449 44.8245 23.682 44.6541 23.682C44.1777 23.682 43.4681 22.8689 43.6334 22.316C42.5952 21.6801 44.8097 20.1449 45.6475 20.4664C45.6482 20.0037 45.8671 19.6093 46.3719 19.9283C46.4004 19.7315 46.5415 19.7041 46.6996 19.7041L46.6989 19.6638C46.7282 19.5656 46.9811 19.4256 47.0941 19.3989C47.0255 19.122 50.2237 18.8912 51.2366 19.3886C51.8674 17.4527 52.5004 15.5864 53.1212 13.8304C51.2708 13.506 49.3574 13.0471 47.3256 12.4553C44.4903 15.4274 41.8766 18.6433 39.5341 22.0171ZM51.5137 25.3252C51.6829 25.3431 51.8596 25.5135 51.9459 25.6568C51.7707 23.6272 52.7311 26.0304 53.4867 26.233C52.5108 23.6645 53.0407 24.4593 54.5433 24.2805L54.7752 24.3245C55.0626 24.3245 55.2889 24.1849 55.4778 24.4956C55.7178 24.3111 55.3997 23.4519 55.3997 23.1797L55.5796 22.9574C55.9667 22.9771 56.0611 22.596 56.4388 22.676C56.5462 22.565 57.6766 22.1515 57.6766 22.1438C57.7663 22.1535 57.8019 22.0578 57.8615 22.0015C57.3678 21.8941 57.9166 21.4234 58.1745 21.5283C58.016 20.6875 58.4618 21.036 58.6671 21.4449V14.4042C57.4897 14.3719 56.31 14.2801 55.113 14.13C53.95 17.4938 52.7122 21.3341 51.5137 25.3252ZM58.6671 21.9763C58.6407 21.9912 58.6092 22.0012 58.5707 22.0064C58.6078 22.0308 58.6393 22.0619 58.6671 22.0971V21.9763ZM60.7207 20.4938C61.1934 20.6078 61.6341 21.1252 61.5322 21.1516C61.9393 21.3971 63.9292 21.2701 63.5782 22.602C63.9774 23.0141 63.5389 23.2634 63.3922 23.6319C63.984 23.4223 63.7089 24.0204 63.7559 24.2623L63.9448 24.6015C64.1578 24.5715 65.9055 23.6216 65.7811 24.6015C66.4278 24.6672 66.5171 24.6119 67.1267 24.3472C66.7949 23.6689 66.9952 23.5678 67.3244 23.5142C66.2989 20.1715 65.2577 16.9734 64.2708 14.1186C63.0718 14.2712 61.8941 14.3652 60.7207 14.4012V20.4938ZM69.8555 24.8209C70.0851 25.1668 70.2763 25.4405 70.3867 25.486C70.497 25.3567 70.5971 25.4241 70.7118 25.5012C70.6311 25.2367 70.497 24.7853 70.497 24.5256C70.5241 24.3264 72.0475 23.8241 72.5166 23.9341C72.373 23.4938 72.4426 23.3026 72.8892 23.3656C72.726 23.0679 71.7122 22.449 72.5785 22.1271C72.5037 22.0531 72.2788 21.8294 72.413 21.7004L72.5997 21.6675C73.0938 21.7175 74.0993 20.6538 74.5408 21.1393C74.4007 19.8086 76.9389 21.6386 77.5801 19.9586C77.6781 19.7004 77.79 19.4978 77.9108 19.3397C75.9471 16.7456 73.9622 14.4456 72.047 12.4393C70.0145 13.0308 68.1045 13.489 66.2608 13.8153C67.4492 17.1746 68.6815 20.9375 69.8555 24.8209ZM91.3988 46.5419C90.9915 46.3445 90.4196 45.1623 90.0952 47.0986C90.0274 47.5041 89.9367 48.4342 90.0841 48.9363C90.6914 48.7826 91.2996 48.6248 91.9093 48.4623C91.7455 47.8153 91.5755 47.1753 91.3988 46.5419ZM94.6608 44.0427C93.9037 44.0427 95.046 42.4578 95.0467 43.6726C95.0467 43.9072 94.8822 44.0427 94.6608 44.0427ZM95.4851 39.3349H95.4815C96.3714 39.6694 95.2478 41.4956 95.2185 40.0711C95.2185 39.876 95.0715 39.3456 95.3641 39.3179C94.4526 39.0531 95.5452 37.7397 95.5511 38.7208C95.5518 38.876 95.9355 39.3349 95.4851 39.3349ZM95.1818 37.9615C93.7096 37.9423 95.433 34.6604 95.4267 37.6286C95.4259 37.7731 95.3345 37.9615 95.1818 37.9615ZM95.0618 42.7526C94.4878 42.7526 94.8315 41.4774 95.0897 41.2764C95.0829 41.2352 94.2585 40.5889 95.0996 40.7079C95.4948 40.7634 95.567 41.129 95.2296 41.3142C95.6004 41.5545 95.6182 42.7526 95.0618 42.7526ZM2.98069 54.5249L11.2655 54.5237C11.6258 51.1838 12.2386 47.9768 13.0732 44.9072C10.6469 43.8616 8.21134 42.7323 5.76441 41.5193C4.35507 45.6619 3.40673 50.0175 2.98069 54.5249ZM38.0875 7.04375C39.0938 7.43892 40.0664 7.81194 41.0082 8.16375C43.8718 6.39672 46.824 4.87525 49.81 3.60785C45.7367 4.33897 41.8126 5.50044 38.0875 7.04375ZM69.1629 3.43378C72.2841 4.73268 75.3719 6.30895 78.3626 8.15304C79.4004 7.76638 80.4749 7.35346 81.5908 6.91378C77.6485 5.30821 73.487 4.129 69.1629 3.43378ZM103.064 22.2178C101.031 23.326 98.9845 24.3557 96.9267 25.3079C100.879 30.769 104.044 37.0168 106.058 43.9912C108.685 43.0371 111.338 42.0083 114.02 40.9048C111.57 33.9652 107.82 27.6386 103.064 22.2178ZM114.669 42.8546C111.95 43.9712 109.26 45.0123 106.595 45.9768C107.287 48.7174 107.803 51.5652 108.121 54.5164H117.016C116.635 50.4934 115.838 46.5916 114.669 42.8546ZM13.3244 54.5234L24.169 54.5223C24.4245 52.8174 24.7465 51.1236 25.1337 49.4437C21.7594 48.362 18.3765 47.1186 14.9774 45.7112C14.2242 48.5308 13.6649 51.4697 13.3244 54.5234ZM26.2405 54.522L43.0633 54.5201C43.0722 54.2538 43.0856 53.9785 43.103 53.6949C37.7651 52.8812 32.4391 51.6701 27.0943 50.0541C26.7572 51.5318 26.473 53.0242 26.2405 54.522ZM45.1096 54.5201L49.9338 54.5193C48.3319 54.3768 46.7322 54.1989 45.1338 53.9856C45.1237 54.1678 45.1156 54.346 45.1096 54.5201ZM69.6863 54.5182L74.2781 54.5174C74.2727 54.3593 74.2652 54.1979 74.2563 54.033C72.7282 54.2245 71.2048 54.3864 69.6863 54.5182ZM95.1959 54.5167L106.063 54.5164C105.76 51.8086 105.286 49.1911 104.657 46.6672C101.184 47.882 97.753 48.9659 94.3588 49.9167C94.6931 51.4382 94.9683 52.9758 95.1959 54.5167ZM75.8744 9.05267C72.8022 7.26527 69.6381 5.76564 66.453 4.56564C68.3234 6.04197 70.4289 7.8953 72.6337 10.123C73.6759 9.80123 74.7537 9.44417 75.8744 9.05267ZM60.7207 4.88449V12.3542C61.6637 12.3234 62.6126 12.2523 63.576 12.1409C62.503 9.13824 61.5185 6.62601 60.7207 4.88449ZM58.6671 12.3579V4.88449C57.8681 6.62821 56.8826 9.14412 55.8078 12.1519C56.7711 12.2609 57.7212 12.3297 58.6671 12.3579ZM43.4938 9.0638C44.6155 9.45708 45.6948 9.8153 46.7389 10.1386C48.9493 7.9038 51.0604 6.04522 52.9348 4.56564C49.7426 5.76785 46.5719 7.27157 43.4938 9.0638ZM48.9651 10.7882C50.6589 11.2508 52.2664 11.6127 53.8255 11.8726C54.9607 8.77005 56.0352 6.10265 56.9549 4.12932C54.8155 5.5627 52.0193 7.78191 48.9651 10.7882ZM65.5571 11.8582C67.1096 11.5967 68.7141 11.2349 70.4067 10.7727C67.3585 7.77414 64.5685 5.5605 62.433 4.12932C63.3511 6.09971 64.4237 8.76197 65.5571 11.8582ZM94.0009 81.5312L94.615 78.2834L94.7687 74.3393H97.535V81.6141L94.0009 81.5312ZM91.0809 74.803L90.7731 78.9016L90.4661 80.2938C90.3269 80.7139 90.2015 81.1339 90.0046 81.5312L88.6991 81.6093V87.6407H92.0024V84.8569H99.1483V87.6407H102.376V81.6093H101.3V71.0912H91.1576L91.0809 74.803ZM35.2969 77.123L35.6042 75.886L36.2961 74.8805L37.7558 74.2623L39.6005 74.4941L40.5987 75.2667L41.2131 76.969L41.1369 79.3656L40.6758 80.5256L39.9839 81.2219L38.7551 81.6856L36.9871 81.4541L36.45 81.1445L35.7583 80.2938L35.4507 79.5982L35.2969 77.123ZM36.3731 71.0138L35.2969 71.323L33.7604 72.2512L32.9151 73.0248L31.8396 74.8805L31.3785 76.969L31.6091 80.3719L32.8383 82.8459L34.6054 84.315L35.7583 84.7795L37.4491 85.0888L40.5987 84.8569L42.2891 84.0833L43.6724 82.8459L44.748 80.913L45.0554 79.7526L45.1321 76.7371L44.5173 74.4941L43.8265 73.3341L42.7502 72.2512L41.3668 71.4008L39.7532 70.9363L36.3731 71.0138ZM71.5639 71.0912L70.0272 71.7101L69.1057 72.8694L67.415 76.2723L67.338 71.0912H63.5731V84.8569H67.338L67.342 79.4319L68.0298 80.3719L70.2579 84.8569H74.6376L73.7154 82.923C73.3814 82.2537 73.0493 81.5831 72.7168 80.913L71.1806 78.3608L70.4887 77.6645L71.9483 74.5712L72.3324 74.1853L74.1765 74.0294V71.0138L71.5639 71.0912ZM48.2832 84.8569H52.0477V79.3656H56.0431V84.8569H59.8843V71.0912H56.0431V76.0408H52.0477V71.0912H48.2832V84.8569ZM24.7706 76.1179L24.6169 76.4272L24.0021 76.6597L21.3894 76.8146V74.3346L24.0021 74.4941L24.6938 74.9579L24.8476 75.2667L24.7706 76.1179ZM17.6246 84.8569H21.3894V80.139L25.5391 79.9075L26.9988 79.289L27.9211 78.3608L28.6891 76.7371L28.766 74.8805L28.1511 73.0248L27.3061 72.0193L26.6145 71.5549L25.6929 71.2456L24.3861 71.0912H17.6246V84.8569ZM75.8665 74.3393H79.7091V84.8569H83.4735V74.3393H87.3928V71.0912H75.8665V74.3393Z" fill="black"/>
<path fill-rule="evenodd" clip-rule="evenodd" d="M60.7631 0.184937L61.2848 0.19491L61.0273 0.868716L60.7631 0.184937Z" fill="black"/>
</g>
<defs>
<clipPath id="clip0_130_2">
<rect width="120" height="120" fill="white"/>
</clipPath>
</defs>
</svg>
